<svg width="32" height="29" viewBox="0 0 32 29" fill="none" xmlns="http://www.w3.org/2000/svg">
<path fill-rule="evenodd" clip-rule="evenodd" d="M0.593797 3.97389C0.902965 1.95786 2.91794 0.685059 5.01226 0.685059H8.99541C10.9979 0.685059 12.7758 1.81637 13.409 3.49362L15.0366 7.80413C15.736 9.65686 14.5009 11.6432 12.355 12.1169C11.8302 12.2327 11.6492 12.8096 12.0317 13.1473L17.2756 17.777C17.6582 18.1147 18.3116 17.9548 18.4428 17.4916C18.9793 15.597 21.2292 14.5066 23.3278 15.1241L28.2102 16.561C30.1099 17.12 31.3913 18.6896 31.3913 20.4576V23.9743C31.3913 25.8232 29.9497 27.6023 27.6662 27.8751C26.6015 28.0025 25.5154 28.068 24.4127 28.068C11.1372 28.068 0.375305 18.5667 0.375305 6.84623C0.375305 5.87274 0.44965 4.91385 0.593797 3.97389Z" fill="#032FA8"/>
</svg>
