<svg width="52" height="50" viewBox="0 0 52 50" fill="none" xmlns="http://www.w3.org/2000/svg">
<g clip-path="url(#clip0_323_60)">
<path d="M14.6936 34.6662C15.8355 34.3443 17.0313 34.9785 17.3643 36.0833C17.6972 37.1879 17.0414 38.3443 15.8993 38.6664C14.8207 38.9706 14.0456 39.2931 13.5489 39.5825C14.063 39.8818 14.8711 40.2145 15.9964 40.5256C18.4833 41.2129 22.0442 41.6658 26.0659 41.6658C30.0877 41.6658 33.6485 41.2129 36.1353 40.5256C37.2608 40.2145 38.0687 39.8818 38.5828 39.5825C38.0861 39.2931 37.3112 38.9706 36.2325 38.6664C35.0905 38.3443 34.4346 37.1879 34.7676 36.0833C35.1006 34.9785 36.2962 34.3443 37.4382 34.6662C38.8773 35.072 40.1972 35.5931 41.2063 36.262C42.1458 36.885 43.297 37.9706 43.297 39.5825C43.297 41.215 42.1171 42.3079 41.164 42.9306C40.1356 43.6025 38.7892 44.1256 37.3189 44.5318C34.3489 45.3527 30.3711 45.8325 26.0659 45.8325C21.7607 45.8325 17.7829 45.3527 14.813 44.5318C13.3426 44.1256 11.9962 43.6025 10.9678 42.9306C10.0147 42.3079 8.83478 41.215 8.83478 39.5825C8.83478 37.9706 9.98612 36.885 10.9255 36.262C11.9346 35.5931 13.2546 35.072 14.6936 34.6662ZM26.0659 4.16663C34.9875 4.16663 42.2201 11.1622 42.2201 19.7916C42.2201 25.1414 39.2057 29.4925 36.0819 32.5814C34.7574 33.8912 33.3691 35.0187 32.0904 35.9481C30.8116 36.8775 27.887 38.6177 27.887 38.6177C26.75 39.2389 25.3818 39.2389 24.2448 38.6177C23.1078 37.9964 21.3202 36.8775 20.0414 35.9481C18.7626 35.0187 17.3744 33.8912 16.0498 32.5814C12.9262 29.4925 9.91172 25.1414 9.91172 19.7916C9.91172 11.1622 17.1442 4.16663 26.0659 4.16663ZM26.0659 15.625C23.6867 15.625 21.7581 17.4904 21.7581 19.7916C21.7581 22.0929 23.6867 23.9583 26.0659 23.9583C28.4451 23.9583 30.3737 22.0929 30.3737 19.7916C30.3737 17.4904 28.4451 15.625 26.0659 15.625Z" fill="#032FA8"/>
</g>
<defs>
<clipPath id="clip0_323_60">
<rect width="51.6934" height="50" fill="white" transform="translate(0.219238)"/>
</clipPath>
</defs>
</svg>
