<svg width="34" height="38" viewBox="0 0 34 38" fill="none" xmlns="http://www.w3.org/2000/svg">
<path fill-rule="evenodd" clip-rule="evenodd" d="M16.6667 0.00012207C19.4293 0.00012207 22.0789 1.09759 24.0324 3.05109C25.9859 5.0046 27.0833 7.65412 27.0833 10.4168V14.5939C28.6875 14.6251 29.6792 14.7397 30.4896 15.1522C31.469 15.6514 32.2653 16.4478 32.7646 17.4272C33.3333 18.5418 33.3333 20.0001 33.3333 22.9168V29.1668C33.3333 32.0835 33.3333 33.5418 32.7646 34.6564C32.2653 35.6358 31.469 36.4321 30.4896 36.9314C29.375 37.5001 27.9167 37.5001 25 37.5001H8.33333C5.41667 37.5001 3.95833 37.5001 2.84375 36.9314C1.86355 36.4325 1.06645 35.6361 0.566666 34.6564C-3.72529e-07 33.5418 0 32.0835 0 29.1668V22.9168C0 20.0001 -3.72529e-07 18.5418 0.566666 17.4272C1.06645 16.4475 1.86355 15.6511 2.84375 15.1522C3.65417 14.7376 4.64583 14.6251 6.25 14.5939V10.4168C6.25 7.65412 7.34747 5.0046 9.30097 3.05109C11.2545 1.09759 13.904 0.00012207 16.6667 0.00012207ZM22.9167 10.4168V14.5835H10.4167V10.4168C10.4167 8.75919 11.0751 7.16947 12.2472 5.99737C13.4194 4.82527 15.0091 4.16679 16.6667 4.16679C18.3243 4.16679 19.914 4.82527 21.0861 5.99737C22.2582 7.16947 22.9167 8.75919 22.9167 10.4168Z" fill="#032FA8"/>
</svg>
