<svg width="488" height="100" viewBox="0 0 488 100" fill="none" xmlns="http://www.w3.org/2000/svg">
<path d="M255.289 48.21C253.309 48.21 251.489 47.75 249.829 46.83C248.189 45.91 246.879 44.63 245.899 42.99C244.939 41.33 244.459 39.47 244.459 37.41C244.459 35.35 244.939 33.5 245.899 31.86C246.879 30.22 248.189 28.94 249.829 28.02C251.489 27.1 253.309 26.64 255.289 26.64C257.269 26.64 259.079 27.1 260.719 28.02C262.379 28.94 263.679 30.22 264.619 31.86C265.579 33.5 266.059 35.35 266.059 37.41C266.059 39.47 265.579 41.33 264.619 42.99C263.659 44.63 262.359 45.91 260.719 46.83C259.079 47.75 257.269 48.21 255.289 48.21ZM255.289 43.53C256.969 43.53 258.309 42.97 259.309 41.85C260.329 40.73 260.839 39.25 260.839 37.41C260.839 35.55 260.329 34.07 259.309 32.97C258.309 31.85 256.969 31.29 255.289 31.29C253.589 31.29 252.229 31.84 251.209 32.94C250.209 34.04 249.709 35.53 249.709 37.41C249.709 39.27 250.209 40.76 251.209 41.88C252.229 42.98 253.589 43.53 255.289 43.53ZM274.043 33.63C274.543 32.85 275.233 32.22 276.113 31.74C276.993 31.26 278.023 31.02 279.203 31.02C280.583 31.02 281.833 31.37 282.953 32.07C284.073 32.77 284.953 33.77 285.593 35.07C286.253 36.37 286.583 37.88 286.583 39.6C286.583 41.32 286.253 42.84 285.593 44.16C284.953 45.46 284.073 46.47 282.953 47.19C281.833 47.89 280.583 48.24 279.203 48.24C278.043 48.24 277.013 48 276.113 47.52C275.233 47.04 274.543 46.42 274.043 45.66V55.98H268.913V31.26H274.043V33.63ZM281.363 39.6C281.363 38.32 281.003 37.32 280.283 36.6C279.583 35.86 278.713 35.49 277.673 35.49C276.653 35.49 275.783 35.86 275.063 36.6C274.363 37.34 274.013 38.35 274.013 39.63C274.013 40.91 274.363 41.92 275.063 42.66C275.783 43.4 276.653 43.77 277.673 43.77C278.693 43.77 279.563 43.4 280.283 42.66C281.003 41.9 281.363 40.88 281.363 39.6ZM298.605 43.65V48H295.995C294.135 48 292.685 47.55 291.645 46.65C290.605 45.73 290.085 44.24 290.085 42.18V35.52H288.045V31.26H290.085V27.18H295.215V31.26H298.575V35.52H295.215V42.24C295.215 42.74 295.335 43.1 295.575 43.32C295.815 43.54 296.215 43.65 296.775 43.65H298.605ZM304.042 29.52C303.142 29.52 302.402 29.26 301.822 28.74C301.262 28.2 300.982 27.54 300.982 26.76C300.982 25.96 301.262 25.3 301.822 24.78C302.402 24.24 303.142 23.97 304.042 23.97C304.922 23.97 305.642 24.24 306.202 24.78C306.782 25.3 307.072 25.96 307.072 26.76C307.072 27.54 306.782 28.2 306.202 28.74C305.642 29.26 304.922 29.52 304.042 29.52ZM306.592 31.26V48H301.462V31.26H306.592ZM320.6 31.08C322.52 31.08 324.06 31.72 325.22 33C326.38 34.26 326.96 36 326.96 38.22V48H321.86V38.91C321.86 37.79 321.57 36.92 320.99 36.3C320.41 35.68 319.63 35.37 318.65 35.37C317.67 35.37 316.89 35.68 316.31 36.3C315.73 36.92 315.44 37.79 315.44 38.91V48H310.31V25.8H315.44V33.51C315.96 32.77 316.67 32.18 317.57 31.74C318.47 31.3 319.48 31.08 320.6 31.08ZM333.105 29.52C332.205 29.52 331.465 29.26 330.885 28.74C330.325 28.2 330.045 27.54 330.045 26.76C330.045 25.96 330.325 25.3 330.885 24.78C331.465 24.24 332.205 23.97 333.105 23.97C333.985 23.97 334.705 24.24 335.265 24.78C335.845 25.3 336.135 25.96 336.135 26.76C336.135 27.54 335.845 28.2 335.265 28.74C334.705 29.26 333.985 29.52 333.105 29.52ZM335.655 31.26V48H330.525V31.26H335.655ZM346.902 43.2L350.532 31.26H355.992L350.052 48H343.722L337.782 31.26H343.272L346.902 43.2ZM373.932 39.36C373.932 39.84 373.902 40.34 373.842 40.86H362.232C362.312 41.9 362.642 42.7 363.222 43.26C363.822 43.8 364.552 44.07 365.412 44.07C366.692 44.07 367.582 43.53 368.082 42.45H373.542C373.262 43.55 372.752 44.54 372.012 45.42C371.292 46.3 370.382 46.99 369.282 47.49C368.182 47.99 366.952 48.24 365.592 48.24C363.952 48.24 362.492 47.89 361.212 47.19C359.932 46.49 358.932 45.49 358.212 44.19C357.492 42.89 357.132 41.37 357.132 39.63C357.132 37.89 357.482 36.37 358.182 35.07C358.902 33.77 359.902 32.77 361.182 32.07C362.462 31.37 363.932 31.02 365.592 31.02C367.212 31.02 368.652 31.36 369.912 32.04C371.172 32.72 372.152 33.69 372.852 34.95C373.572 36.21 373.932 37.68 373.932 39.36ZM368.682 38.01C368.682 37.13 368.382 36.43 367.782 35.91C367.182 35.39 366.432 35.13 365.532 35.13C364.672 35.13 363.942 35.38 363.342 35.88C362.762 36.38 362.402 37.09 362.262 38.01H368.682Z" fill="url(#paint0_diamond_309_67)"/>
<path d="M179.857 73.925C180.873 74.1083 181.723 74.6083 182.407 75.425C183.107 76.2417 183.457 77.2 183.457 78.3C183.457 79.2 183.24 80.0083 182.807 80.725C182.39 81.425 181.757 81.9833 180.907 82.4C180.073 82.8 179.057 83 177.857 83H172.282V65.45H177.757C179.507 65.45 180.823 65.8583 181.707 66.675C182.607 67.475 183.057 68.5167 183.057 69.8C183.057 70.9167 182.757 71.825 182.157 72.525C181.557 73.2083 180.79 73.675 179.857 73.925ZM173.407 73.425H177.807C179.123 73.425 180.132 73.1167 180.832 72.5C181.548 71.8667 181.907 71 181.907 69.9C181.907 68.8333 181.557 67.9917 180.857 67.375C180.157 66.7583 179.098 66.45 177.682 66.45H173.407V73.425ZM177.782 82.025C179.198 82.025 180.307 81.6917 181.107 81.025C181.923 80.3417 182.332 79.4083 182.332 78.225C182.332 77.0583 181.915 76.1333 181.082 75.45C180.265 74.75 179.14 74.4 177.707 74.4H173.407V82.025H177.782ZM198.234 69.425V83H197.109V80.05C196.726 81.0833 196.084 81.875 195.184 82.425C194.301 82.9583 193.284 83.225 192.134 83.225C190.518 83.225 189.193 82.7333 188.159 81.75C187.143 80.75 186.634 79.275 186.634 77.325V69.425H187.734V77.25C187.734 78.8667 188.143 80.1083 188.959 80.975C189.776 81.825 190.884 82.25 192.284 82.25C193.751 82.25 194.918 81.7833 195.784 80.85C196.668 79.9167 197.109 78.5333 197.109 76.7V69.425H198.234ZM202.385 82.05H210.035V83H201.135V82.05L208.585 70.375H201.31V69.425H209.86V70.375L202.385 82.05ZM212.981 82.05H220.631V83H211.731V82.05L219.181 70.375H211.906V69.425H220.456V70.375L212.981 82.05ZM224.102 66.4C223.835 66.4 223.61 66.3167 223.427 66.15C223.244 65.9667 223.152 65.725 223.152 65.425C223.152 65.1417 223.244 64.9083 223.427 64.725C223.61 64.5417 223.835 64.45 224.102 64.45C224.369 64.45 224.594 64.5417 224.777 64.725C224.96 64.9083 225.052 65.1417 225.052 65.425C225.052 65.725 224.96 65.9667 224.777 66.15C224.594 66.3167 224.369 66.4 224.102 66.4ZM224.652 69.425V83H223.527V69.425H224.652ZM234.901 69.15C236.518 69.15 237.834 69.65 238.851 70.65C239.868 71.6333 240.376 73.1 240.376 75.05V83H239.276V75.125C239.276 73.5083 238.868 72.275 238.051 71.425C237.234 70.5583 236.126 70.125 234.726 70.125C233.259 70.125 232.084 70.5917 231.201 71.525C230.334 72.4583 229.901 73.8417 229.901 75.675V83H228.776V69.425H229.901V72.3C230.284 71.2833 230.918 70.5083 231.801 69.975C232.701 69.425 233.734 69.15 234.901 69.15ZM250.202 69.25C251.635 69.25 252.852 69.6 253.852 70.3C254.852 70.9833 255.552 71.8667 255.952 72.95V69.425H257.077V83.425C257.077 84.675 256.802 85.7667 256.252 86.7C255.702 87.65 254.96 88.375 254.027 88.875C253.094 89.3917 252.052 89.65 250.902 89.65C249.202 89.65 247.794 89.2417 246.677 88.425C245.56 87.6083 244.827 86.5083 244.477 85.125H245.602C245.935 86.2083 246.56 87.0667 247.477 87.7C248.394 88.35 249.535 88.675 250.902 88.675C251.852 88.675 252.71 88.4583 253.477 88.025C254.244 87.6083 254.844 87 255.277 86.2C255.727 85.4167 255.952 84.4917 255.952 83.425V79.45C255.552 80.5333 254.844 81.4333 253.827 82.15C252.827 82.85 251.619 83.2 250.202 83.2C248.935 83.2 247.802 82.9167 246.802 82.35C245.819 81.7667 245.044 80.95 244.477 79.9C243.927 78.8333 243.652 77.6 243.652 76.2C243.652 74.8 243.927 73.575 244.477 72.525C245.044 71.475 245.819 70.6667 246.802 70.1C247.802 69.5333 248.935 69.25 250.202 69.25ZM255.952 76.2C255.952 75.0167 255.702 73.975 255.202 73.075C254.719 72.1583 254.052 71.4583 253.202 70.975C252.352 70.475 251.402 70.225 250.352 70.225C249.252 70.225 248.285 70.4667 247.452 70.95C246.619 71.4167 245.969 72.1 245.502 73C245.035 73.9 244.802 74.9667 244.802 76.2C244.802 77.4333 245.035 78.5 245.502 79.4C245.969 80.3 246.619 80.9917 247.452 81.475C248.302 81.9583 249.269 82.2 250.352 82.2C251.402 82.2 252.352 81.9583 253.202 81.475C254.069 80.975 254.744 80.275 255.227 79.375C255.71 78.4583 255.952 77.4 255.952 76.2ZM285.979 69.425L281.704 83H280.629L276.304 70.975L271.954 83H270.879L266.604 69.425H267.779L271.429 81.725L275.779 69.425H276.854L281.179 81.675L284.829 69.425H285.979ZM289.019 66.4C288.752 66.4 288.527 66.3167 288.344 66.15C288.161 65.9667 288.069 65.725 288.069 65.425C288.069 65.1417 288.161 64.9083 288.344 64.725C288.527 64.5417 288.752 64.45 289.019 64.45C289.286 64.45 289.511 64.5417 289.694 64.725C289.877 64.9083 289.969 65.1417 289.969 65.425C289.969 65.725 289.877 65.9667 289.694 66.15C289.511 66.3167 289.286 66.4 289.019 66.4ZM289.569 69.425V83H288.444V69.425H289.569ZM295.368 70.4V79.375C295.368 80.375 295.551 81.0667 295.918 81.45C296.285 81.8167 296.935 82 297.868 82H299.393V83H297.693C296.51 83 295.635 82.725 295.068 82.175C294.518 81.6083 294.243 80.675 294.243 79.375V70.4H292.193V69.425H294.243V65.975H295.368V69.425H299.393V70.4H295.368ZM308.51 69.15C310.11 69.15 311.418 69.65 312.435 70.65C313.452 71.6333 313.96 73.1 313.96 75.05V83H312.86V75.125C312.86 73.5083 312.452 72.275 311.635 71.425C310.818 70.5583 309.71 70.125 308.31 70.125C306.843 70.125 305.668 70.5917 304.785 71.525C303.918 72.4583 303.485 73.8417 303.485 75.675V83H302.36V64.5H303.485V72.3C303.868 71.2833 304.51 70.5083 305.41 69.975C306.31 69.425 307.343 69.15 308.51 69.15ZM337.217 75.3C337.217 75.9 337.2 76.35 337.167 76.65H325.442C325.475 77.8667 325.742 78.8917 326.242 79.725C326.742 80.5583 327.4 81.1833 328.217 81.6C329.033 82.0167 329.925 82.225 330.892 82.225C332.225 82.225 333.342 81.9 334.242 81.25C335.142 80.5833 335.708 79.6833 335.942 78.55H337.117C336.85 79.9333 336.167 81.0583 335.067 81.925C333.967 82.775 332.575 83.2 330.892 83.2C329.625 83.2 328.492 82.9167 327.492 82.35C326.492 81.7833 325.708 80.975 325.142 79.925C324.575 78.8583 324.292 77.6167 324.292 76.2C324.292 74.7833 324.567 73.55 325.117 72.5C325.683 71.45 326.467 70.65 327.467 70.1C328.467 69.5333 329.608 69.25 330.892 69.25C332.192 69.25 333.317 69.5333 334.267 70.1C335.233 70.65 335.967 71.3917 336.467 72.325C336.967 73.2417 337.217 74.2333 337.217 75.3ZM336.092 75.725C336.142 74.525 335.925 73.5083 335.442 72.675C334.975 71.8417 334.333 71.225 333.517 70.825C332.7 70.4083 331.817 70.2 330.867 70.2C329.917 70.2 329.033 70.4083 328.217 70.825C327.417 71.225 326.758 71.8417 326.242 72.675C325.742 73.5083 325.475 74.525 325.442 75.725H336.092ZM345.792 70.425H342.267V83H341.142V70.425H339.092V69.425H341.142V68.475C341.142 67.0583 341.5 66.0083 342.217 65.325C342.933 64.625 344.108 64.275 345.742 64.275V65.275C344.442 65.275 343.533 65.525 343.017 66.025C342.517 66.525 342.267 67.3417 342.267 68.475V69.425H345.792V70.425ZM353.848 70.425H350.323V83H349.198V70.425H347.148V69.425H349.198V68.475C349.198 67.0583 349.557 66.0083 350.273 65.325C350.99 64.625 352.165 64.275 353.798 64.275V65.275C352.498 65.275 351.59 65.525 351.073 66.025C350.573 66.525 350.323 67.3417 350.323 68.475V69.425H353.848V70.425ZM357.305 66.4C357.038 66.4 356.813 66.3167 356.63 66.15C356.447 65.9667 356.355 65.725 356.355 65.425C356.355 65.1417 356.447 64.9083 356.63 64.725C356.813 64.5417 357.038 64.45 357.305 64.45C357.572 64.45 357.797 64.5417 357.98 64.725C358.163 64.9083 358.255 65.1417 358.255 65.425C358.255 65.725 358.163 65.9667 357.98 66.15C357.797 66.3167 357.572 66.4 357.305 66.4ZM357.855 69.425V83H356.73V69.425H357.855ZM361.279 76.2C361.279 74.7833 361.554 73.55 362.104 72.5C362.671 71.45 363.446 70.65 364.429 70.1C365.429 69.5333 366.571 69.25 367.854 69.25C369.554 69.25 370.946 69.675 372.029 70.525C373.129 71.375 373.812 72.5167 374.079 73.95H372.904C372.687 72.7833 372.121 71.8667 371.204 71.2C370.304 70.5333 369.187 70.2 367.854 70.2C366.854 70.2 365.946 70.425 365.129 70.875C364.312 71.3083 363.654 71.9833 363.154 72.9C362.671 73.8 362.429 74.9 362.429 76.2C362.429 77.5167 362.671 78.625 363.154 79.525C363.654 80.425 364.312 81.1 365.129 81.55C365.946 82 366.854 82.225 367.854 82.225C369.187 82.225 370.304 81.8917 371.204 81.225C372.121 80.5583 372.687 79.6417 372.904 78.475H374.079C373.812 79.8917 373.129 81.0333 372.029 81.9C370.929 82.7667 369.537 83.2 367.854 83.2C366.571 83.2 365.429 82.9167 364.429 82.35C363.446 81.7833 362.671 80.975 362.104 79.925C361.554 78.8583 361.279 77.6167 361.279 76.2ZM378.081 66.4C377.815 66.4 377.59 66.3167 377.406 66.15C377.223 65.9667 377.131 65.725 377.131 65.425C377.131 65.1417 377.223 64.9083 377.406 64.725C377.59 64.5417 377.815 64.45 378.081 64.45C378.348 64.45 378.573 64.5417 378.756 64.725C378.94 64.9083 379.031 65.1417 379.031 65.425C379.031 65.725 378.94 65.9667 378.756 66.15C378.573 66.3167 378.348 66.4 378.081 66.4ZM378.631 69.425V83H377.506V69.425H378.631ZM394.98 75.3C394.98 75.9 394.964 76.35 394.93 76.65H383.205C383.239 77.8667 383.505 78.8917 384.005 79.725C384.505 80.5583 385.164 81.1833 385.98 81.6C386.797 82.0167 387.689 82.225 388.655 82.225C389.989 82.225 391.105 81.9 392.005 81.25C392.905 80.5833 393.472 79.6833 393.705 78.55H394.88C394.614 79.9333 393.93 81.0583 392.83 81.925C391.73 82.775 390.339 83.2 388.655 83.2C387.389 83.2 386.255 82.9167 385.255 82.35C384.255 81.7833 383.472 80.975 382.905 79.925C382.339 78.8583 382.055 77.6167 382.055 76.2C382.055 74.7833 382.33 73.55 382.88 72.5C383.447 71.45 384.23 70.65 385.23 70.1C386.23 69.5333 387.372 69.25 388.655 69.25C389.955 69.25 391.08 69.5333 392.03 70.1C392.997 70.65 393.73 71.3917 394.23 72.325C394.73 73.2417 394.98 74.2333 394.98 75.3ZM393.855 75.725C393.905 74.525 393.689 73.5083 393.205 72.675C392.739 71.8417 392.097 71.225 391.28 70.825C390.464 70.4083 389.58 70.2 388.63 70.2C387.68 70.2 386.797 70.4083 385.98 70.825C385.18 71.225 384.522 71.8417 384.005 72.675C383.505 73.5083 383.239 74.525 383.205 75.725H393.855ZM404.505 69.15C406.122 69.15 407.439 69.65 408.455 70.65C409.472 71.6333 409.98 73.1 409.98 75.05V83H408.88V75.125C408.88 73.5083 408.472 72.275 407.655 71.425C406.839 70.5583 405.73 70.125 404.33 70.125C402.864 70.125 401.689 70.5917 400.805 71.525C399.939 72.4583 399.505 73.8417 399.505 75.675V83H398.38V69.425H399.505V72.3C399.889 71.2833 400.522 70.5083 401.405 69.975C402.305 69.425 403.339 69.15 404.505 69.15ZM413.257 76.2C413.257 74.7833 413.532 73.55 414.082 72.5C414.648 71.45 415.423 70.65 416.407 70.1C417.407 69.5333 418.548 69.25 419.832 69.25C421.532 69.25 422.923 69.675 424.007 70.525C425.107 71.375 425.79 72.5167 426.057 73.95H424.882C424.665 72.7833 424.098 71.8667 423.182 71.2C422.282 70.5333 421.165 70.2 419.832 70.2C418.832 70.2 417.923 70.425 417.107 70.875C416.29 71.3083 415.632 71.9833 415.132 72.9C414.648 73.8 414.407 74.9 414.407 76.2C414.407 77.5167 414.648 78.625 415.132 79.525C415.632 80.425 416.29 81.1 417.107 81.55C417.923 82 418.832 82.225 419.832 82.225C421.165 82.225 422.282 81.8917 423.182 81.225C424.098 80.5583 424.665 79.6417 424.882 78.475H426.057C425.79 79.8917 425.107 81.0333 424.007 81.9C422.907 82.7667 421.515 83.2 419.832 83.2C418.548 83.2 417.407 82.9167 416.407 82.35C415.423 81.7833 414.648 80.975 414.082 79.925C413.532 78.8583 413.257 77.6167 413.257 76.2ZM440.084 69.425L432.184 89.375H431.034L433.559 83L427.859 69.425H429.084L434.184 81.75L438.934 69.425H440.084Z" fill="url(#paint1_linear_309_67)"/>
<g clip-path="url(#clip0_309_67)">
<path d="M20.1648 27.3145V64.8145H70.577H74.4549H92.293V64.0332H95.3953V46.8457H92.293V28.877H74.4549V23.5254" fill="#75BBA7"/>
<path d="M75.2305 28.877V65.3613H96.9465C96.9465 65.1074 96.9465 65.127 96.9465 65.127V51.5332L92.2931 35.9082H75.2305" fill="#75BBA7"/>
<path d="M96.9466 67.0215H75.2306C74.3193 67.0215 73.5825 66.2793 73.5825 65.3613V28.877C73.5825 27.959 74.3193 27.2168 75.2306 27.2168C76.1419 27.2168 76.8787 27.959 76.8787 28.877V34.248H92.2932C93.03 34.248 93.6698 34.7363 93.8637 35.4395L98.5172 51.0645C98.5559 51.2207 98.5947 51.377 98.5947 51.5332V65.127C98.5947 65.2051 98.5947 65.3027 98.5947 65.4004C98.5753 66.2988 97.8385 67.0215 96.9466 67.0215ZM95.7639 66.2988C95.919 66.4746 96.1323 66.6113 96.365 66.6895C96.1323 66.5918 95.9384 66.4551 95.7639 66.2988ZM95.2985 65.3027C95.3179 65.4785 95.3567 65.6348 95.4343 65.8105C95.3761 65.6543 95.3179 65.4785 95.2985 65.3027ZM76.8787 63.7012H95.2985V51.7871L91.0717 37.5879H76.8787V63.7012Z" fill="#032FA8"/>
<path opacity="0.5" d="M55.5892 86.709C76.0101 86.709 92.5646 82.5729 92.5646 77.4707C92.5646 72.3685 76.0101 68.2324 55.5892 68.2324C35.1682 68.2324 18.6138 72.3685 18.6138 77.4707C18.6138 82.5729 35.1682 86.709 55.5892 86.709Z" fill="#B8CBCD"/>
<path d="M27.145 67.9395H23.2671C20.2812 67.9395 17.8381 65.4785 17.8381 62.4707V27.3145C17.8381 26.0254 18.8852 24.9707 20.1649 24.9707C21.4445 24.9707 22.4916 26.0254 22.4916 27.3145V62.4707C22.4916 62.9004 22.8406 63.252 23.2671 63.252H27.145C28.4247 63.252 29.4717 64.3066 29.4717 65.5957C29.4717 66.8848 28.4247 67.9395 27.145 67.9395Z" fill="#032FA8"/>
<path d="M96.9466 67.9395H82.8118V63.252H94.6199V50.3418L88.2796 30.4395H75.6184V25.752H89.9665C90.9747 25.752 91.8666 26.416 92.1769 27.373L99.157 49.248C99.2346 49.4824 99.2734 49.7168 99.2734 49.9707V65.5957C99.2734 66.8848 98.2263 67.9395 96.9466 67.9395Z" fill="#032FA8"/>
<path d="M66.6993 63.252H43.4321V67.9395H66.6993V63.252Z" fill="#032FA8"/>
<path d="M13.9603 46.8457H2.32672C1.04702 46.8457 0 45.791 0 44.502C0 43.2129 1.04702 42.1582 2.32672 42.1582H13.9603C15.24 42.1582 16.287 43.2129 16.287 44.502C16.287 45.791 15.24 46.8457 13.9603 46.8457Z" fill="#032FA8"/>
<path d="M13.9602 36.6895H6.28204C5.00235 36.6895 3.95532 35.6348 3.95532 34.3457C3.95532 33.0566 5.00235 32.002 6.28204 32.002H13.9602C15.2399 32.002 16.2869 33.0566 16.2869 34.3457C16.2869 35.6348 15.2399 36.6895 13.9602 36.6895Z" fill="#032FA8"/>
<path d="M13.9602 57.002H6.28204C5.00235 57.002 3.95532 55.9473 3.95532 54.6582C3.95532 53.3691 5.00235 52.3145 6.28204 52.3145H13.9602C15.2399 52.3145 16.2869 53.3691 16.2869 54.6582C16.2869 55.9473 15.2399 57.002 13.9602 57.002Z" fill="#032FA8"/>
<path d="M41.6676 43.3887C38.3132 43.3887 35.5793 40.6348 35.5793 37.2559C35.5793 33.877 38.3132 31.123 41.6676 31.123C45.0219 31.123 47.7558 33.877 47.7558 37.2559C47.7558 40.6348 45.0219 43.3887 41.6676 43.3887ZM41.6676 34.4434C40.1358 34.4434 38.8755 35.7129 38.8755 37.2559C38.8755 38.7988 40.1358 40.0684 41.6676 40.0684C43.1993 40.0684 44.4596 38.7988 44.4596 37.2559C44.4596 35.7129 43.1993 34.4434 41.6676 34.4434Z" fill="#645244"/>
<path d="M53.7279 55.5371C50.3735 55.5371 47.6396 52.7832 47.6396 49.4043C47.6396 46.0254 50.3735 43.2715 53.7279 43.2715C57.0822 43.2715 59.8161 46.0254 59.8161 49.4043C59.8161 52.7832 57.0822 55.5371 53.7279 55.5371ZM53.7279 46.5918C52.1961 46.5918 50.9358 47.8613 50.9358 49.4043C50.9358 50.9473 52.1961 52.2168 53.7279 52.2168C55.2596 52.2168 56.52 50.9473 56.52 49.4043C56.52 47.8613 55.2596 46.5918 53.7279 46.5918Z" fill="#645244"/>
<path d="M38.4877 54.2676C38.0612 54.2676 37.6346 54.1113 37.3244 53.7793C36.6845 53.1348 36.6845 52.0801 37.3244 51.4355L55.7248 32.9004C56.3647 32.2559 57.4117 32.2559 58.0515 32.9004C58.6914 33.5449 58.6914 34.5996 58.0515 35.2441L39.6511 53.7793C39.3409 54.0918 38.9143 54.2676 38.4877 54.2676Z" fill="#645244"/>
<path d="M36.6069 74.3457C41.3614 74.3457 45.2158 70.4632 45.2158 65.6738C45.2158 60.8845 41.3614 57.002 36.6069 57.002C31.8524 57.002 27.998 60.8845 27.998 65.6738C27.998 70.4632 31.8524 74.3457 36.6069 74.3457Z" fill="white"/>
<path d="M36.607 76.0254C30.9454 76.0254 26.3501 71.377 26.3501 65.6934C26.3501 60.0098 30.9648 55.3613 36.607 55.3613C42.2687 55.3613 46.864 60.0098 46.864 65.6934C46.864 71.377 42.2687 76.0254 36.607 76.0254ZM36.607 58.6621C32.768 58.6621 29.6463 61.8066 29.6463 65.6738C29.6463 69.541 32.768 72.6855 36.607 72.6855C40.4461 72.6855 43.5678 69.541 43.5678 65.6738C43.5678 61.8066 40.4655 58.6621 36.607 58.6621Z" fill="#032FA8"/>
<path d="M45.7588 65.5957C45.7588 70.8301 41.8033 74.6777 36.6264 74.6777C31.4301 74.6777 27.145 70.8301 27.145 65.5957" fill="white"/>
<path d="M36.6069 77.002C29.9952 77.002 24.7988 71.9824 24.7988 65.5762V63.2324H29.4523V65.5762C29.4523 69.3457 32.5933 72.3145 36.6069 72.3145C40.5623 72.3145 43.4126 69.4824 43.4126 65.5762V63.2324H48.066V65.5762C48.0854 72.0996 43.1605 77.002 36.6069 77.002Z" fill="#032FA8"/>
<path d="M36.6069 68.877C38.363 68.877 39.7867 67.4429 39.7867 65.6738C39.7867 63.9048 38.363 62.4707 36.6069 62.4707C34.8507 62.4707 33.427 63.9048 33.427 65.6738C33.427 67.4429 34.8507 68.877 36.6069 68.877Z" fill="#032FA8"/>
<path d="M74.6101 74.3457C79.3646 74.3457 83.2189 70.4632 83.2189 65.6738C83.2189 60.8845 79.3646 57.002 74.6101 57.002C69.8555 57.002 66.0012 60.8845 66.0012 65.6738C66.0012 70.4632 69.8555 74.3457 74.6101 74.3457Z" fill="white"/>
<path d="M74.61 76.0254C68.9483 76.0254 64.353 71.377 64.353 65.6934C64.353 60.0098 68.9677 55.3613 74.61 55.3613C80.2523 55.3613 84.8669 60.0098 84.8669 65.6934C84.8669 71.377 80.2716 76.0254 74.61 76.0254ZM74.61 58.6621C70.7709 58.6621 67.6492 61.8066 67.6492 65.6738C67.6492 69.541 70.7709 72.6855 74.61 72.6855C78.4491 72.6855 81.5707 69.541 81.5707 65.6738C81.5707 61.8066 78.4684 58.6621 74.61 58.6621Z" fill="#032FA8"/>
<path d="M83.7619 65.5957C83.7619 70.8301 79.8065 74.6777 74.6296 74.6777C69.4332 74.6777 65.1482 70.8301 65.1482 65.5957" fill="white"/>
<path d="M74.6101 77.002C67.9983 77.002 62.802 71.9824 62.802 65.5762V63.2324H67.4554V65.5762C67.4554 69.3457 70.5965 72.3145 74.6101 72.3145C78.5655 72.3145 81.4157 69.4824 81.4157 65.5762V63.2324H86.0692V65.5762C86.0886 72.0996 81.1637 77.002 74.6101 77.002Z" fill="#032FA8"/>
<path d="M74.61 68.877C76.3662 68.877 77.7899 67.4429 77.7899 65.6738C77.7899 63.9048 76.3662 62.4707 74.61 62.4707C72.8538 62.4707 71.4302 63.9048 71.4302 65.6738C71.4302 67.4429 72.8538 68.877 74.61 68.877Z" fill="#032FA8"/>
<path d="M75.2304 27.3145L71.5077 17.0996C71.2168 16.2988 70.2668 15.6348 69.4136 15.6348H26.4469C25.5938 15.6348 24.6243 16.2793 24.3141 17.0801L20.1648 27.3145" fill="#75BBA7"/>
<path d="M75.2306 29.6582C74.2805 29.6582 73.3886 29.0723 73.0396 28.1152L69.3362 17.9785L69.3168 17.959H26.5246C26.5052 17.9785 26.4665 17.998 26.4471 18.0176L22.3171 28.1934C21.8324 29.3848 20.4752 29.9707 19.2924 29.4824C18.1097 28.9941 17.528 27.627 18.0127 26.4355L22.162 16.2012C22.8407 14.5215 24.6439 13.291 26.4471 13.291H69.4138C71.2558 13.291 73.0396 14.5605 73.6794 16.2988L77.4022 26.5137C77.8481 27.7246 77.2277 29.0723 76.0255 29.5215C75.7735 29.6191 75.502 29.6582 75.2306 29.6582Z" fill="#032FA8"/>
<path d="M73.6794 29.7559H20.1649C19.2536 29.7559 18.5168 29.0137 18.5168 28.0957C18.5168 27.1777 19.2536 26.4355 20.1649 26.4355H73.6794C74.5907 26.4355 75.3275 27.1777 75.3275 28.0957C75.3275 29.0137 74.5907 29.7559 73.6794 29.7559Z" fill="#032FA8"/>
</g>
<defs>
<radialGradient id="paint0_diamond_309_67" cx="0" cy="0" r="1" gradientUnits="userSpaceOnUse" gradientTransform="translate(214.441 34.8841) scale(195.093 430.543)">
<stop offset="0.0729167" stop-color="#032FA8"/>
<stop offset="0.473958" stop-color="#032FA8"/>
<stop offset="0.994792" stop-color="#324E99"/>
</radialGradient>
<linearGradient id="paint1_linear_309_67" x1="487.677" y1="74.3743" x2="135.903" y2="74.3743" gradientUnits="userSpaceOnUse">
<stop offset="0.0729167" stop-color="#032FA8"/>
<stop offset="0.473958" stop-color="#324E99"/>
<stop offset="0.994792" stop-color="#032FA8"/>
</linearGradient>
<clipPath id="clip0_309_67">
<rect width="99.2733" height="100" fill="white"/>
</clipPath>
</defs>
</svg>
