<svg width="27" height="25" viewBox="0 0 27 25" fill="none" xmlns="http://www.w3.org/2000/svg">
<path fill-rule="evenodd" clip-rule="evenodd" d="M0.583575 3.41828C0.840709 1.68477 2.51656 0.590332 4.2584 0.590332H7.57117C9.23667 0.590332 10.7153 1.56311 11.242 3.00532L12.5956 6.71177C13.1773 8.30487 12.1501 10.0128 10.3653 10.4202C9.92889 10.5198 9.77836 11.0158 10.0965 11.3062L14.4578 15.2871C14.776 15.5775 15.3194 15.44 15.4285 15.0417C15.8748 13.4126 17.746 12.475 19.4914 13.006L23.552 14.2415C25.132 14.7222 26.1978 16.0718 26.1978 17.5921V20.6159C26.1978 22.2057 24.9988 23.7355 23.0996 23.9701C22.2141 24.0796 21.3108 24.136 20.3937 24.136C9.35252 24.136 0.401855 15.9661 0.401855 5.88811C0.401855 5.05104 0.463688 4.22652 0.583575 3.41828Z" fill="#8D4520"/>
</svg>
