<svg width="46" height="40" viewBox="0 0 46 40" fill="none" xmlns="http://www.w3.org/2000/svg">
<path fill-rule="evenodd" clip-rule="evenodd" d="M6.09445 5.91058C4.67786 7.22596 3.72916 9.36027 3.72916 12.7083V27.2916C3.72916 30.6395 4.67786 32.7739 6.09445 34.0893C7.53197 35.4241 9.69784 36.1458 12.5833 36.1458H33.4167C36.3021 36.1458 38.4679 35.4241 39.9056 34.0893C41.3221 32.7739 42.2708 30.6395 42.2708 27.2916V12.7083C42.2708 9.36027 41.3221 7.22596 39.9056 5.91058C38.4679 4.57573 36.3021 3.85413 33.4167 3.85413H12.5833C9.69784 3.85413 7.53197 4.57573 6.09445 5.91058ZM3.96803 3.62058C6.17634 1.57002 9.2188 0.729126 12.5833 0.729126H33.4167C36.7812 0.729126 39.8237 1.57002 42.0319 3.62058C44.2612 5.69063 45.3958 8.76465 45.3958 12.7083V27.2916C45.3958 31.2354 44.2612 34.3093 42.0319 36.3793C39.8237 38.43 36.7812 39.2708 33.4167 39.2708H12.5833C9.2188 39.2708 6.17634 38.43 3.96803 36.3793C1.73878 34.3093 0.604156 31.2354 0.604156 27.2916V12.7083C0.604156 8.76465 1.73878 5.69063 3.96803 3.62058Z" fill="#8D4520"/>
<path fill-rule="evenodd" clip-rule="evenodd" d="M38.3402 10.2296C38.8679 10.9125 38.7421 11.8938 38.0594 12.4214L26.5029 21.3512C24.4396 22.9454 21.5602 22.9454 19.4969 21.3512L7.94049 12.4214C7.25764 11.8938 7.13183 10.9125 7.65947 10.2296C8.18712 9.54679 9.16839 9.42098 9.85124 9.94863L21.4075 18.8783C22.3454 19.6031 23.6544 19.6031 24.5921 18.8783L36.1485 9.94863C36.8314 9.42098 37.8127 9.54679 38.3402 10.2296Z" fill="#8D4520"/>
</svg>
