<svg width="50" height="50" viewBox="0 0 50 50" fill="none" xmlns="http://www.w3.org/2000/svg">
<path fill-rule="evenodd" clip-rule="evenodd" d="M34.375 14.7147C34.375 21.3709 30.3542 27.0834 25 27.0834C19.6417 27.0834 15.625 21.3709 15.625 14.7126C15.625 8.05841 19.0833 4.16675 25 4.16675C30.9167 4.16675 34.375 8.05633 34.375 14.7147ZM8.54583 41.9626C9.34791 42.9167 12.8021 45.8334 25 45.8334C37.1979 45.8334 40.65 42.9167 41.4542 41.9647C41.5287 41.8732 41.5838 41.7674 41.6161 41.6538C41.6483 41.5402 41.657 41.4213 41.6417 41.3042C41.4583 39.4667 39.8042 31.2501 25 31.2501C10.1958 31.2501 8.54166 39.4667 8.35625 41.3042C8.34116 41.4214 8.35019 41.5405 8.3828 41.654C8.4154 41.7676 8.47088 41.8712 8.54583 41.9626Z" fill="#8D4520"/>
</svg>
