<svg width="557" height="160" viewBox="0 0 557 160" fill="none" xmlns="http://www.w3.org/2000/svg">
<path d="M32.5 43.7033V103.703H113.75H120H148.75V102.453H153.75V74.9533H148.75V46.2033H120V37.6407" fill="#F6E89A"/>
<path d="M121.25 46.2032V104.578H156.25C156.25 104.172 156.25 104.203 156.25 104.203V82.4532L148.75 57.4532H121.25" fill="#F6E89A"/>
<path d="M156.25 107.234H121.25C119.781 107.234 118.594 106.047 118.594 104.578V46.2032C118.594 44.7345 119.781 43.547 121.25 43.547C122.719 43.547 123.906 44.7345 123.906 46.2032V54.797H148.75C149.938 54.797 150.969 55.5782 151.281 56.7032L158.781 81.7032C158.844 81.9533 158.906 82.2032 158.906 82.4532V104.203C158.906 104.328 158.906 104.484 158.906 104.641C158.875 106.078 157.688 107.234 156.25 107.234ZM154.344 106.078C154.594 106.359 154.938 106.578 155.312 106.703C154.938 106.547 154.625 106.328 154.344 106.078ZM153.594 104.484C153.625 104.766 153.688 105.016 153.813 105.297C153.719 105.047 153.625 104.766 153.594 104.484ZM123.906 101.922H153.594V82.8595L146.781 60.1407H123.906V101.922Z" fill="#8D4520"/>
<path opacity="0.5" d="M89.5938 138.735C122.506 138.735 149.188 132.117 149.188 123.953C149.188 115.79 122.506 109.172 89.5938 109.172C56.681 109.172 30 115.79 30 123.953C30 132.117 56.681 138.735 89.5938 138.735Z" fill="#B8CBCD"/>
<path d="M43.75 108.703H37.5C32.6875 108.703 28.75 104.766 28.75 99.9532V43.7032C28.75 41.6407 30.4375 39.9532 32.5 39.9532C34.5625 39.9532 36.25 41.6407 36.25 43.7032V99.9532C36.25 100.641 36.8125 101.203 37.5 101.203H43.75C45.8125 101.203 47.5 102.891 47.5 104.953C47.5 107.016 45.8125 108.703 43.75 108.703Z" fill="#8D4520"/>
<path d="M156.25 108.703H133.469V101.203H152.5V80.547L142.281 48.7032H121.875V41.2032H145C146.625 41.2032 148.062 42.2657 148.562 43.797L159.812 78.797C159.938 79.172 160 79.547 160 79.9532V104.953C160 107.016 158.312 108.703 156.25 108.703Z" fill="#8D4520"/>
<path d="M107.5 101.203H70V108.703H107.5V101.203Z" fill="#8D4520"/>
<path d="M22.5 74.9532H3.75C1.6875 74.9532 0 73.2657 0 71.2032C0 69.1407 1.6875 67.4532 3.75 67.4532H22.5C24.5625 67.4532 26.25 69.1407 26.25 71.2032C26.25 73.2657 24.5625 74.9532 22.5 74.9532Z" fill="#8D4520"/>
<path d="M22.5 58.7032H10.125C8.0625 58.7032 6.375 57.0157 6.375 54.9532C6.375 52.8907 8.0625 51.2032 10.125 51.2032H22.5C24.5625 51.2032 26.25 52.8907 26.25 54.9532C26.25 57.0157 24.5625 58.7032 22.5 58.7032Z" fill="#8D4520"/>
<path d="M22.5 91.2032H10.125C8.0625 91.2032 6.375 89.5157 6.375 87.4532C6.375 85.3907 8.0625 83.7032 10.125 83.7032H22.5C24.5625 83.7032 26.25 85.3907 26.25 87.4532C26.25 89.5157 24.5625 91.2032 22.5 91.2032Z" fill="#8D4520"/>
<path d="M67.1562 69.422C61.75 69.422 57.3438 65.0157 57.3438 59.6095C57.3438 54.2032 61.75 49.797 67.1562 49.797C72.5625 49.797 76.9688 54.2032 76.9688 59.6095C76.9688 65.0157 72.5625 69.422 67.1562 69.422ZM67.1562 55.1095C64.6875 55.1095 62.6563 57.1407 62.6563 59.6095C62.6563 62.0782 64.6875 64.1095 67.1562 64.1095C69.625 64.1095 71.6563 62.0782 71.6563 59.6095C71.6563 57.1407 69.625 55.1095 67.1562 55.1095Z" fill="#8D4520"/>
<path d="M86.5938 88.8595C81.1875 88.8595 76.7812 84.4532 76.7812 79.047C76.7812 73.6407 81.1875 69.2345 86.5938 69.2345C92 69.2345 96.4063 73.6407 96.4063 79.047C96.4063 84.4532 92 88.8595 86.5938 88.8595ZM86.5938 74.547C84.125 74.547 82.0938 76.5782 82.0938 79.047C82.0938 81.5157 84.125 83.547 86.5938 83.547C89.0625 83.547 91.0938 81.5157 91.0938 79.047C91.0938 76.5782 89.0625 74.547 86.5938 74.547Z" fill="#8D4520"/>
<path d="M62.0312 86.8282C61.3438 86.8282 60.6562 86.5782 60.1562 86.047C59.125 85.0157 59.125 83.3282 60.1562 82.297L89.8125 52.6407C90.8437 51.6095 92.5312 51.6095 93.5625 52.6407C94.5937 53.672 94.5937 55.3595 93.5625 56.3907L63.9062 86.047C63.4062 86.547 62.7188 86.8282 62.0312 86.8282Z" fill="#8D4520"/>
<path d="M59 118.953C66.663 118.953 72.875 112.741 72.875 105.078C72.875 97.4153 66.663 91.2032 59 91.2032C51.3371 91.2032 45.125 97.4153 45.125 105.078C45.125 112.741 51.3371 118.953 59 118.953Z" fill="white"/>
<path d="M59 121.641C49.875 121.641 42.4688 114.203 42.4688 105.109C42.4688 96.0157 49.9063 88.5782 59 88.5782C68.125 88.5782 75.5312 96.0157 75.5312 105.109C75.5312 114.203 68.125 121.641 59 121.641ZM59 93.8595C52.8125 93.8595 47.7812 98.8907 47.7812 105.078C47.7812 111.266 52.8125 116.297 59 116.297C65.1875 116.297 70.2188 111.266 70.2188 105.078C70.2188 98.8907 65.2188 93.8595 59 93.8595Z" fill="#8D4520"/>
<path d="M73.75 104.953C73.75 113.328 67.375 119.484 59.0312 119.484C50.6562 119.484 43.75 113.328 43.75 104.953" fill="white"/>
<path d="M59 123.203C48.3438 123.203 39.9688 115.172 39.9688 104.922V101.172H47.4687V104.922C47.4687 110.953 52.5312 115.703 59 115.703C65.375 115.703 69.9687 111.172 69.9687 104.922V101.172H77.4687V104.922C77.5 115.359 69.5625 123.203 59 123.203Z" fill="#8D4520"/>
<path d="M59 110.203C61.8305 110.203 64.125 107.909 64.125 105.078C64.125 102.248 61.8305 99.9532 59 99.9532C56.1695 99.9532 53.875 102.248 53.875 105.078C53.875 107.909 56.1695 110.203 59 110.203Z" fill="#8D4520"/>
<path d="M120.25 118.953C127.913 118.953 134.125 112.741 134.125 105.078C134.125 97.4153 127.913 91.2032 120.25 91.2032C112.587 91.2032 106.375 97.4153 106.375 105.078C106.375 112.741 112.587 118.953 120.25 118.953Z" fill="white"/>
<path d="M120.25 121.641C111.125 121.641 103.719 114.203 103.719 105.109C103.719 96.0157 111.156 88.5782 120.25 88.5782C129.344 88.5782 136.781 96.0157 136.781 105.109C136.781 114.203 129.375 121.641 120.25 121.641ZM120.25 93.8595C114.062 93.8595 109.031 98.8907 109.031 105.078C109.031 111.266 114.062 116.297 120.25 116.297C126.437 116.297 131.469 111.266 131.469 105.078C131.469 98.8907 126.469 93.8595 120.25 93.8595Z" fill="#8D4520"/>
<path d="M135 104.953C135 113.328 128.625 119.484 120.281 119.484C111.906 119.484 105 113.328 105 104.953" fill="white"/>
<path d="M120.25 123.203C109.594 123.203 101.219 115.172 101.219 104.922V101.172H108.719V104.922C108.719 110.953 113.781 115.703 120.25 115.703C126.625 115.703 131.219 111.172 131.219 104.922V101.172H138.719V104.922C138.75 115.359 130.812 123.203 120.25 123.203Z" fill="#8D4520"/>
<path d="M120.25 110.203C123.08 110.203 125.375 107.909 125.375 105.078C125.375 102.248 123.08 99.9532 120.25 99.9532C117.42 99.9532 115.125 102.248 115.125 105.078C115.125 107.909 117.42 110.203 120.25 110.203Z" fill="#8D4520"/>
<path d="M121.25 43.7032L115.25 27.3595C114.781 26.0782 113.25 25.0157 111.875 25.0157H42.625C41.25 25.0157 39.6875 26.047 39.1875 27.3282L32.5 43.7032" fill="#F6E89A"/>
<path d="M121.25 47.4532C119.719 47.4532 118.281 46.5157 117.719 44.9845L111.75 28.7657L111.719 28.7345H42.75C42.7188 28.7657 42.6563 28.797 42.625 28.8282L35.9688 45.1095C35.1875 47.0157 33 47.9532 31.0938 47.172C29.1875 46.3907 28.25 44.2032 29.0313 42.297L35.7188 25.922C36.8125 23.2345 39.7188 21.2657 42.625 21.2657H111.875C114.844 21.2657 117.719 23.297 118.75 26.0782L124.75 42.422C125.469 44.3595 124.469 46.5157 122.531 47.2345C122.125 47.3907 121.688 47.4532 121.25 47.4532Z" fill="#8D4520"/>
<path d="M118.75 47.6095H32.5C31.0312 47.6095 29.8438 46.422 29.8438 44.9532C29.8438 43.4845 31.0312 42.297 32.5 42.297H118.75C120.219 42.297 121.406 43.4845 121.406 44.9532C121.406 46.422 120.219 47.6095 118.75 47.6095Z" fill="#8D4520"/>
<path d="M315.975 52.2101C313.995 52.2101 312.175 51.7501 310.515 50.8301C308.875 49.9101 307.565 48.6301 306.585 46.9901C305.625 45.3301 305.145 43.4701 305.145 41.4101C305.145 39.3501 305.625 37.5001 306.585 35.8601C307.565 34.2201 308.875 32.9401 310.515 32.0201C312.175 31.1001 313.995 30.6401 315.975 30.6401C317.955 30.6401 319.765 31.1001 321.405 32.0201C323.065 32.9401 324.365 34.2201 325.305 35.8601C326.265 37.5001 326.745 39.3501 326.745 41.4101C326.745 43.4701 326.265 45.3301 325.305 46.9901C324.345 48.6301 323.045 49.9101 321.405 50.8301C319.765 51.7501 317.955 52.2101 315.975 52.2101ZM315.975 47.5301C317.655 47.5301 318.995 46.9701 319.995 45.8501C321.015 44.7301 321.525 43.2501 321.525 41.4101C321.525 39.5501 321.015 38.0701 319.995 36.9701C318.995 35.8501 317.655 35.2901 315.975 35.2901C314.275 35.2901 312.915 35.8401 311.895 36.9401C310.895 38.0401 310.395 39.5301 310.395 41.4101C310.395 43.2701 310.895 44.7601 311.895 45.8801C312.915 46.9801 314.275 47.5301 315.975 47.5301ZM334.729 37.6301C335.229 36.8501 335.919 36.2201 336.799 35.7401C337.679 35.2601 338.709 35.0201 339.889 35.0201C341.269 35.0201 342.519 35.3701 343.639 36.0701C344.759 36.7701 345.639 37.7701 346.279 39.0701C346.939 40.3701 347.269 41.8801 347.269 43.6001C347.269 45.3201 346.939 46.8401 346.279 48.1601C345.639 49.4601 344.759 50.4701 343.639 51.1901C342.519 51.8901 341.269 52.2401 339.889 52.2401C338.729 52.2401 337.699 52.0001 336.799 51.5201C335.919 51.0401 335.229 50.4201 334.729 49.6601V59.9801H329.599V35.2601H334.729V37.6301ZM342.049 43.6001C342.049 42.3201 341.689 41.3201 340.969 40.6001C340.269 39.8601 339.399 39.4901 338.359 39.4901C337.339 39.4901 336.469 39.8601 335.749 40.6001C335.049 41.3401 334.699 42.3501 334.699 43.6301C334.699 44.9101 335.049 45.9201 335.749 46.6601C336.469 47.4001 337.339 47.7701 338.359 47.7701C339.379 47.7701 340.249 47.4001 340.969 46.6601C341.689 45.9001 342.049 44.8801 342.049 43.6001ZM359.291 47.6501V52.0001H356.681C354.821 52.0001 353.371 51.5501 352.331 50.6501C351.291 49.7301 350.771 48.2401 350.771 46.1801V39.5201H348.731V35.2601H350.771V31.1801H355.901V35.2601H359.261V39.5201H355.901V46.2401C355.901 46.7401 356.021 47.1001 356.261 47.3201C356.501 47.5401 356.901 47.6501 357.461 47.6501H359.291ZM364.728 33.5201C363.828 33.5201 363.088 33.2601 362.508 32.7401C361.948 32.2001 361.668 31.5401 361.668 30.7601C361.668 29.9601 361.948 29.3001 362.508 28.7801C363.088 28.2401 363.828 27.9701 364.728 27.9701C365.608 27.9701 366.328 28.2401 366.888 28.7801C367.468 29.3001 367.758 29.9601 367.758 30.7601C367.758 31.5401 367.468 32.2001 366.888 32.7401C366.328 33.2601 365.608 33.5201 364.728 33.5201ZM367.278 35.2601V52.0001H362.148V35.2601H367.278ZM381.286 35.0801C383.206 35.0801 384.746 35.7201 385.906 37.0001C387.066 38.2601 387.646 40.0001 387.646 42.2201V52.0001H382.546V42.9101C382.546 41.7901 382.256 40.9201 381.676 40.3001C381.096 39.6801 380.316 39.3701 379.336 39.3701C378.356 39.3701 377.576 39.6801 376.996 40.3001C376.416 40.9201 376.126 41.7901 376.126 42.9101V52.0001H370.996V29.8001H376.126V37.5101C376.646 36.7701 377.356 36.1801 378.256 35.7401C379.156 35.3001 380.166 35.0801 381.286 35.0801ZM393.791 33.5201C392.891 33.5201 392.151 33.2601 391.571 32.7401C391.011 32.2001 390.731 31.5401 390.731 30.7601C390.731 29.9601 391.011 29.3001 391.571 28.7801C392.151 28.2401 392.891 27.9701 393.791 27.9701C394.671 27.9701 395.391 28.2401 395.951 28.7801C396.531 29.3001 396.821 29.9601 396.821 30.7601C396.821 31.5401 396.531 32.2001 395.951 32.7401C395.391 33.2601 394.671 33.5201 393.791 33.5201ZM396.341 35.2601V52.0001H391.211V35.2601H396.341ZM407.588 47.2001L411.218 35.2601H416.678L410.738 52.0001H404.408L398.468 35.2601H403.958L407.588 47.2001ZM434.618 43.3601C434.618 43.8401 434.588 44.3401 434.528 44.8601H422.918C422.998 45.9001 423.328 46.7001 423.908 47.2601C424.508 47.8001 425.238 48.0701 426.098 48.0701C427.378 48.0701 428.268 47.5301 428.768 46.4501H434.228C433.948 47.5501 433.438 48.5401 432.698 49.4201C431.978 50.3001 431.068 50.9901 429.968 51.4901C428.868 51.9901 427.638 52.2401 426.278 52.2401C424.638 52.2401 423.178 51.8901 421.898 51.1901C420.618 50.4901 419.618 49.4901 418.898 48.1901C418.178 46.8901 417.818 45.3701 417.818 43.6301C417.818 41.8901 418.168 40.3701 418.868 39.0701C419.588 37.7701 420.588 36.7701 421.868 36.0701C423.148 35.3701 424.618 35.0201 426.278 35.0201C427.898 35.0201 429.338 35.3601 430.598 36.0401C431.858 36.7201 432.838 37.6901 433.538 38.9501C434.258 40.2101 434.618 41.6801 434.618 43.3601ZM429.368 42.0101C429.368 41.1301 429.068 40.4301 428.468 39.9101C427.868 39.3901 427.118 39.1301 426.218 39.1301C425.358 39.1301 424.628 39.3801 424.028 39.8801C423.448 40.3801 423.088 41.0901 422.948 42.0101H429.368Z" fill="url(#paint0_diamond_10_188)"/>
<path d="M244.469 101.925C245.485 102.108 246.335 102.608 247.019 103.425C247.719 104.242 248.069 105.2 248.069 106.3C248.069 107.2 247.852 108.008 247.419 108.725C247.002 109.425 246.369 109.983 245.519 110.4C244.685 110.8 243.669 111 242.469 111H236.894V93.4501H242.369C244.119 93.4501 245.435 93.8585 246.319 94.6751C247.219 95.4751 247.669 96.5168 247.669 97.8001C247.669 98.9168 247.369 99.8251 246.769 100.525C246.169 101.208 245.402 101.675 244.469 101.925ZM238.019 101.425H242.419C243.735 101.425 244.744 101.117 245.444 100.5C246.16 99.8668 246.519 99.0001 246.519 97.9001C246.519 96.8335 246.169 95.9918 245.469 95.3751C244.769 94.7585 243.71 94.4501 242.294 94.4501H238.019V101.425ZM242.394 110.025C243.81 110.025 244.919 109.692 245.719 109.025C246.535 108.342 246.944 107.408 246.944 106.225C246.944 105.058 246.527 104.133 245.694 103.45C244.877 102.75 243.752 102.4 242.319 102.4H238.019V110.025H242.394ZM262.846 97.4251V111H261.721V108.05C261.338 109.083 260.696 109.875 259.796 110.425C258.913 110.958 257.896 111.225 256.746 111.225C255.13 111.225 253.805 110.733 252.771 109.75C251.755 108.75 251.246 107.275 251.246 105.325V97.4251H252.346V105.25C252.346 106.867 252.755 108.108 253.571 108.975C254.388 109.825 255.496 110.25 256.896 110.25C258.363 110.25 259.53 109.783 260.396 108.85C261.28 107.917 261.721 106.533 261.721 104.7V97.4251H262.846ZM266.997 110.05H274.647V111H265.747V110.05L273.197 98.3751H265.922V97.4251H274.472V98.3751L266.997 110.05ZM277.593 110.05H285.243V111H276.343V110.05L283.793 98.3751H276.518V97.4251H285.068V98.3751L277.593 110.05ZM288.714 94.4001C288.447 94.4001 288.222 94.3168 288.039 94.1501C287.856 93.9668 287.764 93.7251 287.764 93.4251C287.764 93.1418 287.856 92.9085 288.039 92.7251C288.222 92.5418 288.447 92.4501 288.714 92.4501C288.981 92.4501 289.206 92.5418 289.389 92.7251C289.572 92.9085 289.664 93.1418 289.664 93.4251C289.664 93.7251 289.572 93.9668 289.389 94.1501C289.206 94.3168 288.981 94.4001 288.714 94.4001ZM289.264 97.4251V111H288.139V97.4251H289.264ZM299.513 97.1501C301.13 97.1501 302.446 97.6501 303.463 98.6501C304.48 99.6335 304.988 101.1 304.988 103.05V111H303.888V103.125C303.888 101.508 303.48 100.275 302.663 99.4251C301.846 98.5585 300.738 98.1251 299.338 98.1251C297.871 98.1251 296.696 98.5918 295.813 99.5251C294.946 100.458 294.513 101.842 294.513 103.675V111H293.388V97.4251H294.513V100.3C294.896 99.2835 295.53 98.5085 296.413 97.9751C297.313 97.4251 298.346 97.1501 299.513 97.1501ZM314.814 97.2501C316.247 97.2501 317.464 97.6001 318.464 98.3001C319.464 98.9835 320.164 99.8668 320.564 100.95V97.4251H321.689V111.425C321.689 112.675 321.414 113.767 320.864 114.7C320.314 115.65 319.572 116.375 318.639 116.875C317.706 117.392 316.664 117.65 315.514 117.65C313.814 117.65 312.406 117.242 311.289 116.425C310.172 115.608 309.439 114.508 309.089 113.125H310.214C310.547 114.208 311.172 115.067 312.089 115.7C313.006 116.35 314.147 116.675 315.514 116.675C316.464 116.675 317.322 116.458 318.089 116.025C318.856 115.608 319.456 115 319.889 114.2C320.339 113.417 320.564 112.492 320.564 111.425V107.45C320.164 108.533 319.456 109.433 318.439 110.15C317.439 110.85 316.231 111.2 314.814 111.2C313.547 111.2 312.414 110.917 311.414 110.35C310.431 109.767 309.656 108.95 309.089 107.9C308.539 106.833 308.264 105.6 308.264 104.2C308.264 102.8 308.539 101.575 309.089 100.525C309.656 99.4751 310.431 98.6668 311.414 98.1001C312.414 97.5335 313.547 97.2501 314.814 97.2501ZM320.564 104.2C320.564 103.017 320.314 101.975 319.814 101.075C319.331 100.158 318.664 99.4585 317.814 98.9751C316.964 98.4751 316.014 98.2251 314.964 98.2251C313.864 98.2251 312.897 98.4668 312.064 98.9501C311.231 99.4168 310.581 100.1 310.114 101C309.647 101.9 309.414 102.967 309.414 104.2C309.414 105.433 309.647 106.5 310.114 107.4C310.581 108.3 311.231 108.992 312.064 109.475C312.914 109.958 313.881 110.2 314.964 110.2C316.014 110.2 316.964 109.958 317.814 109.475C318.681 108.975 319.356 108.275 319.839 107.375C320.322 106.458 320.564 105.4 320.564 104.2ZM350.591 97.4251L346.316 111H345.241L340.916 98.9751L336.566 111H335.491L331.216 97.4251H332.391L336.041 109.725L340.391 97.4251H341.466L345.791 109.675L349.441 97.4251H350.591ZM353.631 94.4001C353.364 94.4001 353.139 94.3168 352.956 94.1501C352.773 93.9668 352.681 93.7251 352.681 93.4251C352.681 93.1418 352.773 92.9085 352.956 92.7251C353.139 92.5418 353.364 92.4501 353.631 92.4501C353.898 92.4501 354.123 92.5418 354.306 92.7251C354.489 92.9085 354.581 93.1418 354.581 93.4251C354.581 93.7251 354.489 93.9668 354.306 94.1501C354.123 94.3168 353.898 94.4001 353.631 94.4001ZM354.181 97.4251V111H353.056V97.4251H354.181ZM359.98 98.4001V107.375C359.98 108.375 360.163 109.067 360.53 109.45C360.897 109.817 361.547 110 362.48 110H364.005V111H362.305C361.122 111 360.247 110.725 359.68 110.175C359.13 109.608 358.855 108.675 358.855 107.375V98.4001H356.805V97.4251H358.855V93.9751H359.98V97.4251H364.005V98.4001H359.98ZM373.122 97.1501C374.722 97.1501 376.03 97.6501 377.047 98.6501C378.064 99.6335 378.572 101.1 378.572 103.05V111H377.472V103.125C377.472 101.508 377.064 100.275 376.247 99.4251C375.43 98.5585 374.322 98.1251 372.922 98.1251C371.455 98.1251 370.28 98.5918 369.397 99.5251C368.53 100.458 368.097 101.842 368.097 103.675V111H366.972V92.5001H368.097V100.3C368.48 99.2835 369.122 98.5085 370.022 97.9751C370.922 97.4251 371.955 97.1501 373.122 97.1501ZM401.829 103.3C401.829 103.9 401.812 104.35 401.779 104.65H390.054C390.087 105.867 390.354 106.892 390.854 107.725C391.354 108.558 392.012 109.183 392.829 109.6C393.645 110.017 394.537 110.225 395.504 110.225C396.837 110.225 397.954 109.9 398.854 109.25C399.754 108.583 400.32 107.683 400.554 106.55H401.729C401.462 107.933 400.779 109.058 399.679 109.925C398.579 110.775 397.187 111.2 395.504 111.2C394.237 111.2 393.104 110.917 392.104 110.35C391.104 109.783 390.32 108.975 389.754 107.925C389.187 106.858 388.904 105.617 388.904 104.2C388.904 102.783 389.179 101.55 389.729 100.5C390.295 99.4501 391.079 98.6501 392.079 98.1001C393.079 97.5335 394.22 97.2501 395.504 97.2501C396.804 97.2501 397.929 97.5335 398.879 98.1001C399.845 98.6501 400.579 99.3918 401.079 100.325C401.579 101.242 401.829 102.233 401.829 103.3ZM400.704 103.725C400.754 102.525 400.537 101.508 400.054 100.675C399.587 99.8418 398.945 99.2251 398.129 98.8251C397.312 98.4085 396.429 98.2001 395.479 98.2001C394.529 98.2001 393.645 98.4085 392.829 98.8251C392.029 99.2251 391.37 99.8418 390.854 100.675C390.354 101.508 390.087 102.525 390.054 103.725H400.704ZM410.404 98.4251H406.879V111H405.754V98.4251H403.704V97.4251H405.754V96.4751C405.754 95.0585 406.112 94.0085 406.829 93.3251C407.545 92.6251 408.72 92.2751 410.354 92.2751V93.2751C409.054 93.2751 408.145 93.5251 407.629 94.0251C407.129 94.5251 406.879 95.3418 406.879 96.4751V97.4251H410.404V98.4251ZM418.46 98.4251H414.935V111H413.81V98.4251H411.76V97.4251H413.81V96.4751C413.81 95.0585 414.169 94.0085 414.885 93.3251C415.602 92.6251 416.777 92.2751 418.41 92.2751V93.2751C417.11 93.2751 416.202 93.5251 415.685 94.0251C415.185 94.5251 414.935 95.3418 414.935 96.4751V97.4251H418.46V98.4251ZM421.917 94.4001C421.65 94.4001 421.425 94.3168 421.242 94.1501C421.059 93.9668 420.967 93.7251 420.967 93.4251C420.967 93.1418 421.059 92.9085 421.242 92.7251C421.425 92.5418 421.65 92.4501 421.917 92.4501C422.184 92.4501 422.409 92.5418 422.592 92.7251C422.775 92.9085 422.867 93.1418 422.867 93.4251C422.867 93.7251 422.775 93.9668 422.592 94.1501C422.409 94.3168 422.184 94.4001 421.917 94.4001ZM422.467 97.4251V111H421.342V97.4251H422.467ZM425.891 104.2C425.891 102.783 426.166 101.55 426.716 100.5C427.283 99.4501 428.058 98.6501 429.041 98.1001C430.041 97.5335 431.183 97.2501 432.466 97.2501C434.166 97.2501 435.558 97.6751 436.641 98.5251C437.741 99.3751 438.424 100.517 438.691 101.95H437.516C437.299 100.783 436.733 99.8668 435.816 99.2001C434.916 98.5335 433.799 98.2001 432.466 98.2001C431.466 98.2001 430.558 98.4251 429.741 98.8751C428.924 99.3085 428.266 99.9835 427.766 100.9C427.283 101.8 427.041 102.9 427.041 104.2C427.041 105.517 427.283 106.625 427.766 107.525C428.266 108.425 428.924 109.1 429.741 109.55C430.558 110 431.466 110.225 432.466 110.225C433.799 110.225 434.916 109.892 435.816 109.225C436.733 108.558 437.299 107.642 437.516 106.475H438.691C438.424 107.892 437.741 109.033 436.641 109.9C435.541 110.767 434.149 111.2 432.466 111.2C431.183 111.2 430.041 110.917 429.041 110.35C428.058 109.783 427.283 108.975 426.716 107.925C426.166 106.858 425.891 105.617 425.891 104.2ZM442.693 94.4001C442.427 94.4001 442.202 94.3168 442.018 94.1501C441.835 93.9668 441.743 93.7251 441.743 93.4251C441.743 93.1418 441.835 92.9085 442.018 92.7251C442.202 92.5418 442.427 92.4501 442.693 92.4501C442.96 92.4501 443.185 92.5418 443.368 92.7251C443.552 92.9085 443.643 93.1418 443.643 93.4251C443.643 93.7251 443.552 93.9668 443.368 94.1501C443.185 94.3168 442.96 94.4001 442.693 94.4001ZM443.243 97.4251V111H442.118V97.4251H443.243ZM459.592 103.3C459.592 103.9 459.576 104.35 459.542 104.65H447.817C447.851 105.867 448.117 106.892 448.617 107.725C449.117 108.558 449.776 109.183 450.592 109.6C451.409 110.017 452.301 110.225 453.267 110.225C454.601 110.225 455.717 109.9 456.617 109.25C457.517 108.583 458.084 107.683 458.317 106.55H459.492C459.226 107.933 458.542 109.058 457.442 109.925C456.342 110.775 454.951 111.2 453.267 111.2C452.001 111.2 450.867 110.917 449.867 110.35C448.867 109.783 448.084 108.975 447.517 107.925C446.951 106.858 446.667 105.617 446.667 104.2C446.667 102.783 446.942 101.55 447.492 100.5C448.059 99.4501 448.842 98.6501 449.842 98.1001C450.842 97.5335 451.984 97.2501 453.267 97.2501C454.567 97.2501 455.692 97.5335 456.642 98.1001C457.609 98.6501 458.342 99.3918 458.842 100.325C459.342 101.242 459.592 102.233 459.592 103.3ZM458.467 103.725C458.517 102.525 458.301 101.508 457.817 100.675C457.351 99.8418 456.709 99.2251 455.892 98.8251C455.076 98.4085 454.192 98.2001 453.242 98.2001C452.292 98.2001 451.409 98.4085 450.592 98.8251C449.792 99.2251 449.134 99.8418 448.617 100.675C448.117 101.508 447.851 102.525 447.817 103.725H458.467ZM469.117 97.1501C470.734 97.1501 472.051 97.6501 473.067 98.6501C474.084 99.6335 474.592 101.1 474.592 103.05V111H473.492V103.125C473.492 101.508 473.084 100.275 472.267 99.4251C471.451 98.5585 470.342 98.1251 468.942 98.1251C467.476 98.1251 466.301 98.5918 465.417 99.5251C464.551 100.458 464.117 101.842 464.117 103.675V111H462.992V97.4251H464.117V100.3C464.501 99.2835 465.134 98.5085 466.017 97.9751C466.917 97.4251 467.951 97.1501 469.117 97.1501ZM477.869 104.2C477.869 102.783 478.144 101.55 478.694 100.5C479.26 99.4501 480.035 98.6501 481.019 98.1001C482.019 97.5335 483.16 97.2501 484.444 97.2501C486.144 97.2501 487.535 97.6751 488.619 98.5251C489.719 99.3751 490.402 100.517 490.669 101.95H489.494C489.277 100.783 488.71 99.8668 487.794 99.2001C486.894 98.5335 485.777 98.2001 484.444 98.2001C483.444 98.2001 482.535 98.4251 481.719 98.8751C480.902 99.3085 480.244 99.9835 479.744 100.9C479.26 101.8 479.019 102.9 479.019 104.2C479.019 105.517 479.26 106.625 479.744 107.525C480.244 108.425 480.902 109.1 481.719 109.55C482.535 110 483.444 110.225 484.444 110.225C485.777 110.225 486.894 109.892 487.794 109.225C488.71 108.558 489.277 107.642 489.494 106.475H490.669C490.402 107.892 489.719 109.033 488.619 109.9C487.519 110.767 486.127 111.2 484.444 111.2C483.16 111.2 482.019 110.917 481.019 110.35C480.035 109.783 479.26 108.975 478.694 107.925C478.144 106.858 477.869 105.617 477.869 104.2ZM504.696 97.4251L496.796 117.375H495.646L498.171 111L492.471 97.4251H493.696L498.796 109.75L503.546 97.4251H504.696Z" fill="url(#paint1_linear_10_188)"/>
<defs>
<radialGradient id="paint0_diamond_10_188" cx="0" cy="0" r="1" gradientUnits="userSpaceOnUse" gradientTransform="translate(272.68 43.4729) scale(200.135 529.899)">
<stop offset="0.0729167" stop-color="#8D4520"/>
<stop offset="0.473958" stop-color="#F6E89A"/>
<stop offset="0.994792" stop-color="#8D4520"/>
</radialGradient>
<linearGradient id="paint1_linear_10_188" x1="557" y1="106.845" x2="196.135" y2="106.845" gradientUnits="userSpaceOnUse">
<stop offset="0.0729167" stop-color="#8D4520"/>
<stop offset="0.473958" stop-color="#F6E89A"/>
<stop offset="0.994792" stop-color="#8D4520"/>
</linearGradient>
</defs>
</svg>
