<svg width="150" height="67" viewBox="0 0 150 67" fill="none" xmlns="http://www.w3.org/2000/svg">
<path d="M13.6094 18.3007V43.4257H47.6328H50.25H62.2891V42.9023H64.3828V31.3866H62.2891V19.3476H50.25V15.762" fill="white"/>
<path d="M50.7734 19.3476V43.7921H65.4297C65.4297 43.622 65.4297 43.6351 65.4297 43.6351V34.5273L62.2891 24.0585H50.7734" fill="white"/>
<path d="M65.4297 44.9044H50.7734C50.1584 44.9044 49.6611 44.4071 49.6611 43.7921V19.3475C49.6611 18.7325 50.1584 18.2352 50.7734 18.2352C51.3885 18.2352 51.8857 18.7325 51.8857 19.3475V22.9462H62.2891C62.7863 22.9462 63.2182 23.2733 63.349 23.7444L66.4896 34.2132C66.5158 34.3178 66.542 34.4225 66.542 34.5272V43.635C66.542 43.6874 66.542 43.7528 66.542 43.8182C66.5289 44.4202 66.0316 44.9044 65.4297 44.9044ZM64.6314 44.4202C64.7361 44.538 64.8801 44.6296 65.0371 44.6819C64.8801 44.6165 64.7492 44.5249 64.6314 44.4202ZM64.3174 43.7528C64.3305 43.8706 64.3566 43.9753 64.409 44.093C64.3697 43.9884 64.3305 43.8706 64.3174 43.7528ZM51.8857 42.6798H64.3174V34.6973L61.4647 25.1839H51.8857V42.6798Z" fill="#666141"/>
<path opacity="0.5" d="M37.5174 58.095C51.2996 58.095 62.4723 55.3238 62.4723 51.9053C62.4723 48.4869 51.2996 45.7157 37.5174 45.7157C23.7352 45.7157 12.5625 48.4869 12.5625 51.9053C12.5625 55.3238 23.7352 58.095 37.5174 58.095Z" fill="#B8CBCD"/>
<path d="M18.3203 45.5194H15.7031C13.6879 45.5194 12.0391 43.8706 12.0391 41.8553V18.3007C12.0391 17.437 12.7457 16.7303 13.6094 16.7303C14.473 16.7303 15.1797 17.437 15.1797 18.3007V41.8553C15.1797 42.1432 15.4152 42.3788 15.7031 42.3788H18.3203C19.184 42.3788 19.8906 43.0854 19.8906 43.9491C19.8906 44.8128 19.184 45.5194 18.3203 45.5194Z" fill="#666141"/>
<path d="M65.4297 45.5194H55.89V42.3788H63.8594V33.729L59.5803 20.3944H51.0352V17.2538H60.7188C61.3992 17.2538 62.0012 17.6987 62.2105 18.3399L66.9215 32.9962C66.9738 33.1532 67 33.3102 67 33.4803V43.9491C67 44.8128 66.2934 45.5194 65.4297 45.5194Z" fill="#666141"/>
<path d="M45.0156 42.3788H29.3125V45.5194H45.0156V42.3788Z" fill="#666141"/>
<path d="M9.42188 31.3866H1.57031C0.706641 31.3866 0 30.68 0 29.8163C0 28.9526 0.706641 28.246 1.57031 28.246H9.42188C10.2855 28.246 10.9922 28.9526 10.9922 29.8163C10.9922 30.68 10.2855 31.3866 9.42188 31.3866Z" fill="#666141"/>
<path d="M9.4219 24.5819H4.23987C3.3762 24.5819 2.66956 23.8753 2.66956 23.0116C2.66956 22.1479 3.3762 21.4413 4.23987 21.4413H9.4219C10.2856 21.4413 10.9922 22.1479 10.9922 23.0116C10.9922 23.8753 10.2856 24.5819 9.4219 24.5819Z" fill="#666141"/>
<path d="M9.4219 38.1913H4.23987C3.3762 38.1913 2.66956 37.4846 2.66956 36.621C2.66956 35.7573 3.3762 35.0507 4.23987 35.0507H9.4219C10.2856 35.0507 10.9922 35.7573 10.9922 36.621C10.9922 37.4846 10.2856 38.1913 9.4219 38.1913Z" fill="#666141"/>
<path d="M28.1217 29.0704C25.8578 29.0704 24.0127 27.2253 24.0127 24.9614C24.0127 22.6975 25.8578 20.8524 28.1217 20.8524C30.3855 20.8524 32.2307 22.6975 32.2307 24.9614C32.2307 27.2253 30.3855 29.0704 28.1217 29.0704ZM28.1217 23.077C27.0879 23.077 26.2373 23.9276 26.2373 24.9614C26.2373 25.9952 27.0879 26.8458 28.1217 26.8458C29.1555 26.8458 30.0061 25.9952 30.0061 24.9614C30.0061 23.9276 29.1555 23.077 28.1217 23.077Z" fill="#666141"/>
<path d="M36.2611 37.2099C33.9972 37.2099 32.1521 35.3647 32.1521 33.1009C32.1521 30.837 33.9972 28.9919 36.2611 28.9919C38.525 28.9919 40.3701 30.837 40.3701 33.1009C40.3701 35.3647 38.525 37.2099 36.2611 37.2099ZM36.2611 31.2165C35.2273 31.2165 34.3767 32.0671 34.3767 33.1009C34.3767 34.1347 35.2273 34.9852 36.2611 34.9852C37.2949 34.9852 38.1455 34.1347 38.1455 33.1009C38.1455 32.0671 37.2949 31.2165 36.2611 31.2165Z" fill="#666141"/>
<path d="M25.9756 36.3593C25.6877 36.3593 25.3998 36.2546 25.1905 36.0321C24.7586 35.6003 24.7586 34.8936 25.1905 34.4618L37.609 22.0432C38.0408 21.6114 38.7475 21.6114 39.1793 22.0432C39.6112 22.4751 39.6112 23.1817 39.1793 23.6135L26.7608 36.0321C26.5514 36.2415 26.2635 36.3593 25.9756 36.3593Z" fill="#666141"/>
<path d="M24.7063 49.8116C27.9151 49.8116 30.5164 47.2103 30.5164 44.0014C30.5164 40.7926 27.9151 38.1913 24.7063 38.1913C21.4974 38.1913 18.8961 40.7926 18.8961 44.0014C18.8961 47.2103 21.4974 49.8116 24.7063 49.8116Z" fill="#B8CBCD"/>
<path d="M24.7063 50.937C20.8852 50.937 17.7838 47.8226 17.7838 44.0146C17.7838 40.2066 20.8983 37.0921 24.7063 37.0921C28.5274 37.0921 31.6287 40.2066 31.6287 44.0146C31.6287 47.8226 28.5274 50.937 24.7063 50.937ZM24.7063 39.3036C22.1153 39.3036 20.0084 41.4105 20.0084 44.0015C20.0084 46.5925 22.1153 48.6993 24.7063 48.6993C27.2973 48.6993 29.4041 46.5925 29.4041 44.0015C29.4041 41.4105 27.3104 39.3036 24.7063 39.3036Z" fill="#666141"/>
<path d="M30.8828 43.9491C30.8828 47.4561 28.2133 50.0341 24.7193 50.0341C21.2123 50.0341 18.3203 47.4561 18.3203 43.9491" fill="#B8CBCD"/>
<path d="M24.7063 51.5913C20.244 51.5913 16.7369 48.2282 16.7369 43.936V42.3657H19.8776V43.936C19.8776 46.4616 21.9975 48.4507 24.7063 48.4507C27.3758 48.4507 29.2994 46.5532 29.2994 43.936V42.3657H32.4401V43.936C32.4531 48.3067 29.1293 51.5913 24.7063 51.5913Z" fill="#666141"/>
<path d="M24.7063 46.1475C25.8915 46.1475 26.8524 45.1867 26.8524 44.0014C26.8524 42.8162 25.8915 41.8553 24.7063 41.8553C23.521 41.8553 22.5602 42.8162 22.5602 44.0014C22.5602 45.1867 23.521 46.1475 24.7063 46.1475Z" fill="#666141"/>
<path d="M50.3547 49.8116C53.5636 49.8116 56.1649 47.2103 56.1649 44.0014C56.1649 40.7926 53.5636 38.1913 50.3547 38.1913C47.1459 38.1913 44.5446 40.7926 44.5446 44.0014C44.5446 47.2103 47.1459 49.8116 50.3547 49.8116Z" fill="#B8CBCD"/>
<path d="M50.3547 50.937C46.5336 50.937 43.4323 47.8226 43.4323 44.0146C43.4323 40.2066 46.5467 37.0921 50.3547 37.0921C54.1627 37.0921 57.2772 40.2066 57.2772 44.0146C57.2772 47.8226 54.1758 50.937 50.3547 50.937ZM50.3547 39.3036C47.7637 39.3036 45.6569 41.4105 45.6569 44.0015C45.6569 46.5925 47.7637 48.6993 50.3547 48.6993C52.9457 48.6993 55.0526 46.5925 55.0526 44.0015C55.0526 41.4105 52.9588 39.3036 50.3547 39.3036Z" fill="#666141"/>
<path d="M56.5312 43.9491C56.5312 47.4561 53.8617 50.0341 50.3678 50.0341C46.8607 50.0341 43.9688 47.4561 43.9688 43.9491" fill="#B8CBCD"/>
<path d="M50.3547 51.5913C45.8924 51.5913 42.3854 48.2282 42.3854 43.936V42.3657H45.526V43.936C45.526 46.4616 47.6459 48.4507 50.3547 48.4507C53.0242 48.4507 54.9479 46.5532 54.9479 43.936V42.3657H58.0885V43.936C58.1016 48.3067 54.7778 51.5913 50.3547 51.5913Z" fill="#666141"/>
<path d="M50.3547 46.1475C51.54 46.1475 52.5008 45.1867 52.5008 44.0014C52.5008 42.8162 51.54 41.8553 50.3547 41.8553C49.1695 41.8553 48.2086 42.8162 48.2086 44.0014C48.2086 45.1867 49.1695 46.1475 50.3547 46.1475Z" fill="#666141"/>
<path d="M50.7734 18.3007L48.2609 11.4567C48.0646 10.9202 47.4234 10.4753 46.8477 10.4753H17.8492C17.2734 10.4753 16.6191 10.9071 16.4098 11.4436L13.6094 18.3007" fill="white"/>
<path d="M50.7734 19.871C50.1322 19.871 49.5302 19.4784 49.2947 18.8372L46.7953 12.0456L46.7822 12.0325H17.9015C17.8884 12.0456 17.8622 12.0587 17.8492 12.0718L15.0619 18.8895C14.7347 19.6878 13.8187 20.0804 13.0205 19.7532C12.2222 19.4261 11.8296 18.51 12.1568 17.7118L14.9572 10.8548C15.4152 9.72938 16.6322 8.90497 17.8492 8.90497H46.8476C48.0908 8.90497 49.2947 9.75555 49.7265 10.9202L52.239 17.7641C52.54 18.5755 52.1212 19.4784 51.3099 19.7794C51.1398 19.8448 50.9566 19.871 50.7734 19.871Z" fill="#666141"/>
<path d="M49.7266 19.9364H13.6094C12.9943 19.9364 12.4971 19.4391 12.4971 18.8241C12.4971 18.2091 12.9943 17.7118 13.6094 17.7118H49.7266C50.3416 17.7118 50.8389 18.2091 50.8389 18.8241C50.8389 19.4391 50.3416 19.9364 49.7266 19.9364Z" fill="#666141"/>
<path d="M90.0829 38.105C89.0929 38.105 88.1829 37.875 87.3529 37.415C86.5329 36.955 85.8779 36.315 85.3879 35.495C84.9079 34.665 84.6679 33.735 84.6679 32.705C84.6679 31.675 84.9079 30.75 85.3879 29.93C85.8779 29.11 86.5329 28.47 87.3529 28.01C88.1829 27.55 89.0929 27.32 90.0829 27.32C91.0729 27.32 91.9779 27.55 92.7979 28.01C93.6279 28.47 94.2779 29.11 94.7479 29.93C95.2279 30.75 95.4679 31.675 95.4679 32.705C95.4679 33.735 95.2279 34.665 94.7479 35.495C94.2679 36.315 93.6179 36.955 92.7979 37.415C91.9779 37.875 91.0729 38.105 90.0829 38.105ZM90.0829 35.765C90.9229 35.765 91.5929 35.485 92.0929 34.925C92.6029 34.365 92.8579 33.625 92.8579 32.705C92.8579 31.775 92.6029 31.035 92.0929 30.485C91.5929 29.925 90.9229 29.645 90.0829 29.645C89.2329 29.645 88.5529 29.92 88.0429 30.47C87.5429 31.02 87.2929 31.765 87.2929 32.705C87.2929 33.635 87.5429 34.38 88.0429 34.94C88.5529 35.49 89.2329 35.765 90.0829 35.765ZM99.4598 30.815C99.7098 30.425 100.055 30.11 100.495 29.87C100.935 29.63 101.45 29.51 102.04 29.51C102.73 29.51 103.355 29.685 103.915 30.035C104.475 30.385 104.915 30.885 105.235 31.535C105.565 32.185 105.73 32.94 105.73 33.8C105.73 34.66 105.565 35.42 105.235 36.08C104.915 36.73 104.475 37.235 103.915 37.595C103.355 37.945 102.73 38.12 102.04 38.12C101.46 38.12 100.945 38 100.495 37.76C100.055 37.52 99.7098 37.21 99.4598 36.83V41.99H96.8948V29.63H99.4598V30.815ZM103.12 33.8C103.12 33.16 102.94 32.66 102.58 32.3C102.23 31.93 101.795 31.745 101.275 31.745C100.765 31.745 100.33 31.93 99.9698 32.3C99.6198 32.67 99.4448 33.175 99.4448 33.815C99.4448 34.455 99.6198 34.96 99.9698 35.33C100.33 35.7 100.765 35.885 101.275 35.885C101.785 35.885 102.22 35.7 102.58 35.33C102.94 34.95 103.12 34.44 103.12 33.8ZM111.741 35.825V38H110.436C109.506 38 108.781 37.775 108.261 37.325C107.741 36.865 107.481 36.12 107.481 35.09V31.76H106.461V29.63H107.481V27.59H110.046V29.63H111.726V31.76H110.046V35.12C110.046 35.37 110.106 35.55 110.226 35.66C110.346 35.77 110.546 35.825 110.826 35.825H111.741ZM114.459 28.76C114.009 28.76 113.639 28.63 113.349 28.37C113.069 28.1 112.929 27.77 112.929 27.38C112.929 26.98 113.069 26.65 113.349 26.39C113.639 26.12 114.009 25.985 114.459 25.985C114.899 25.985 115.259 26.12 115.539 26.39C115.829 26.65 115.974 26.98 115.974 27.38C115.974 27.77 115.829 28.1 115.539 28.37C115.259 28.63 114.899 28.76 114.459 28.76ZM115.734 29.63V38H113.169V29.63H115.734ZM122.738 29.54C123.698 29.54 124.468 29.86 125.048 30.5C125.628 31.13 125.918 32 125.918 33.11V38H123.368V33.455C123.368 32.895 123.223 32.46 122.933 32.15C122.643 31.84 122.253 31.685 121.763 31.685C121.273 31.685 120.883 31.84 120.593 32.15C120.303 32.46 120.158 32.895 120.158 33.455V38H117.593V26.9H120.158V30.755C120.418 30.385 120.773 30.09 121.223 29.87C121.673 29.65 122.178 29.54 122.738 29.54ZM128.991 28.76C128.541 28.76 128.171 28.63 127.881 28.37C127.601 28.1 127.461 27.77 127.461 27.38C127.461 26.98 127.601 26.65 127.881 26.39C128.171 26.12 128.541 25.985 128.991 25.985C129.431 25.985 129.791 26.12 130.071 26.39C130.361 26.65 130.506 26.98 130.506 27.38C130.506 27.77 130.361 28.1 130.071 28.37C129.791 28.63 129.431 28.76 128.991 28.76ZM130.266 29.63V38H127.701V29.63H130.266ZM135.889 35.6L137.704 29.63H140.434L137.464 38H134.299L131.329 29.63H134.074L135.889 35.6ZM149.404 33.68C149.404 33.92 149.389 34.17 149.359 34.43H143.554C143.594 34.95 143.759 35.35 144.049 35.63C144.349 35.9 144.714 36.035 145.144 36.035C145.784 36.035 146.229 35.765 146.479 35.225H149.209C149.069 35.775 148.814 36.27 148.444 36.71C148.084 37.15 147.629 37.495 147.079 37.745C146.529 37.995 145.914 38.12 145.234 38.12C144.414 38.12 143.684 37.945 143.044 37.595C142.404 37.245 141.904 36.745 141.544 36.095C141.184 35.445 141.004 34.685 141.004 33.815C141.004 32.945 141.179 32.185 141.529 31.535C141.889 30.885 142.389 30.385 143.029 30.035C143.669 29.685 144.404 29.51 145.234 29.51C146.044 29.51 146.764 29.68 147.394 30.02C148.024 30.36 148.514 30.845 148.864 31.475C149.224 32.105 149.404 32.84 149.404 33.68ZM146.779 33.005C146.779 32.565 146.629 32.215 146.329 31.955C146.029 31.695 145.654 31.565 145.204 31.565C144.774 31.565 144.409 31.69 144.109 31.94C143.819 32.19 143.639 32.545 143.569 33.005H146.779Z" fill="white"/>
</svg>
