<svg width="225" height="225" viewBox="0 0 225 225" fill="none" xmlns="http://www.w3.org/2000/svg">
<path d="M45.7031 61.4575V145.833H159.961H168.75H209.18V144.075H216.211V105.403H209.18V64.9731H168.75V52.9321" fill="#F6E89A"/>
<path d="M170.508 64.9731V147.063H219.727C219.727 146.492 219.727 146.536 219.727 146.536V115.95L209.18 80.7935H170.508" fill="#F6E89A"/>
<path d="M219.727 150.798H170.508C168.442 150.798 166.772 149.128 166.772 147.063V64.9731C166.772 62.9077 168.442 61.2378 170.508 61.2378C172.573 61.2378 174.243 62.9077 174.243 64.9731V77.0581H209.18C210.85 77.0581 212.3 78.1567 212.739 79.7388L223.286 114.895C223.374 115.247 223.462 115.598 223.462 115.95V146.536C223.462 146.711 223.462 146.931 223.462 147.151C223.418 149.172 221.748 150.798 219.727 150.798ZM217.046 149.172C217.397 149.568 217.881 149.875 218.408 150.051C217.881 149.832 217.441 149.524 217.046 149.172ZM215.991 146.931C216.035 147.327 216.123 147.678 216.299 148.074C216.167 147.722 216.035 147.327 215.991 146.931ZM174.243 143.328H215.991V116.521L206.411 84.5728H174.243V143.328Z" fill="#8D4520"/>
<path opacity="0.5" d="M125.991 195.095C172.275 195.095 209.795 185.789 209.795 174.309C209.795 162.829 172.275 153.523 125.991 153.523C79.7077 153.523 42.1875 162.829 42.1875 174.309C42.1875 185.789 79.7077 195.095 125.991 195.095Z" fill="#B8CBCD"/>
<path d="M61.5234 152.864H52.7344C45.9668 152.864 40.4297 147.327 40.4297 140.559V61.4575C40.4297 58.5571 42.8027 56.1841 45.7031 56.1841C48.6035 56.1841 50.9766 58.5571 50.9766 61.4575V140.559C50.9766 141.526 51.7676 142.317 52.7344 142.317H61.5234C64.4238 142.317 66.7969 144.69 66.7969 147.59C66.7969 150.491 64.4238 152.864 61.5234 152.864Z" fill="#8D4520"/>
<path d="M219.727 152.864H187.69V142.317H214.453V113.269L200.083 68.4888H171.387V57.9419H203.906C206.191 57.9419 208.213 59.436 208.916 61.5894L224.736 110.808C224.912 111.335 225 111.863 225 112.434V147.59C225 150.491 222.627 152.864 219.727 152.864Z" fill="#8D4520"/>
<path d="M151.172 142.317H98.4375V152.864H151.172V142.317Z" fill="#8D4520"/>
<path d="M31.6406 105.403H5.27344C2.37305 105.403 0 103.03 0 100.129C0 97.229 2.37305 94.856 5.27344 94.856H31.6406C34.541 94.856 36.9141 97.229 36.9141 100.129C36.9141 103.03 34.541 105.403 31.6406 105.403Z" fill="#8D4520"/>
<path d="M31.6406 82.5513H14.2383C11.3379 82.5513 8.96484 80.1782 8.96484 77.2778C8.96484 74.3774 11.3379 72.0044 14.2383 72.0044H31.6406C34.541 72.0044 36.9141 74.3774 36.9141 77.2778C36.9141 80.1782 34.541 82.5513 31.6406 82.5513Z" fill="#8D4520"/>
<path d="M31.6406 128.254H14.2383C11.3379 128.254 8.96484 125.881 8.96484 122.981C8.96484 120.081 11.3379 117.708 14.2383 117.708H31.6406C34.541 117.708 36.9141 120.081 36.9141 122.981C36.9141 125.881 34.541 128.254 31.6406 128.254Z" fill="#8D4520"/>
<path d="M94.4385 97.6245C86.8359 97.6245 80.6396 91.4282 80.6396 83.8257C80.6396 76.2231 86.8359 70.0269 94.4385 70.0269C102.041 70.0269 108.237 76.2231 108.237 83.8257C108.237 91.4282 102.041 97.6245 94.4385 97.6245ZM94.4385 77.4976C90.9668 77.4976 88.1104 80.354 88.1104 83.8257C88.1104 87.2974 90.9668 90.1538 94.4385 90.1538C97.9102 90.1538 100.767 87.2974 100.767 83.8257C100.767 80.354 97.9102 77.4976 94.4385 77.4976Z" fill="#8D4520"/>
<path d="M121.772 124.958C114.17 124.958 107.974 118.762 107.974 111.16C107.974 103.557 114.17 97.3608 121.772 97.3608C129.375 97.3608 135.571 103.557 135.571 111.16C135.571 118.762 129.375 124.958 121.772 124.958ZM121.772 104.832C118.301 104.832 115.444 107.688 115.444 111.16C115.444 114.631 118.301 117.488 121.772 117.488C125.244 117.488 128.101 114.631 128.101 111.16C128.101 107.688 125.244 104.832 121.772 104.832Z" fill="#8D4520"/>
<path d="M87.2312 122.102C86.2644 122.102 85.2976 121.75 84.5945 121.003C83.1443 119.553 83.1443 117.18 84.5945 115.73L126.299 74.0259C127.749 72.5757 130.122 72.5757 131.572 74.0259C133.022 75.4761 133.022 77.8491 131.572 79.2993L89.8679 121.003C89.1648 121.707 88.198 122.102 87.2312 122.102Z" fill="#8D4520"/>
<path d="M82.9688 167.278C93.7448 167.278 102.48 158.542 102.48 147.766C102.48 136.99 93.7448 128.254 82.9688 128.254C72.1927 128.254 63.457 136.99 63.457 147.766C63.457 158.542 72.1927 167.278 82.9688 167.278Z" fill="white"/>
<path d="M82.9688 171.057C70.1367 171.057 59.7217 160.598 59.7217 147.81C59.7217 135.022 70.1807 124.563 82.9688 124.563C95.8008 124.563 106.216 135.022 106.216 147.81C106.216 160.598 95.8008 171.057 82.9688 171.057ZM82.9688 131.99C74.2676 131.99 67.1924 139.065 67.1924 147.766C67.1924 156.467 74.2676 163.542 82.9688 163.542C91.6699 163.542 98.7451 156.467 98.7451 147.766C98.7451 139.065 91.7139 131.99 82.9688 131.99Z" fill="#8D4520"/>
<path d="M103.711 147.59C103.711 159.368 94.7461 168.025 83.0127 168.025C71.2353 168.025 61.5234 159.368 61.5234 147.59" fill="white"/>
<path d="M82.9688 173.254C67.9834 173.254 56.2061 161.96 56.2061 147.546V142.273H66.7529V147.546C66.7529 156.028 73.8721 162.708 82.9688 162.708C91.9336 162.708 98.3936 156.335 98.3936 147.546V142.273H108.94V147.546C108.984 162.224 97.8223 173.254 82.9688 173.254Z" fill="#8D4520"/>
<path d="M82.9688 154.973C86.9491 154.973 90.1758 151.746 90.1758 147.766C90.1758 143.786 86.9491 140.559 82.9688 140.559C78.9884 140.559 75.7617 143.786 75.7617 147.766C75.7617 151.746 78.9884 154.973 82.9688 154.973Z" fill="#8D4520"/>
<path d="M169.102 167.278C179.878 167.278 188.613 158.542 188.613 147.766C188.613 136.99 179.878 128.254 169.102 128.254C158.326 128.254 149.59 136.99 149.59 147.766C149.59 158.542 158.326 167.278 169.102 167.278Z" fill="white"/>
<path d="M169.102 171.057C156.27 171.057 145.854 160.598 145.854 147.81C145.854 135.022 156.313 124.563 169.102 124.563C181.89 124.563 192.349 135.022 192.349 147.81C192.349 160.598 181.934 171.057 169.102 171.057ZM169.102 131.99C160.4 131.99 153.325 139.065 153.325 147.766C153.325 156.467 160.4 163.542 169.102 163.542C177.803 163.542 184.878 156.467 184.878 147.766C184.878 139.065 177.847 131.99 169.102 131.99Z" fill="#8D4520"/>
<path d="M189.844 147.59C189.844 159.368 180.879 168.025 169.146 168.025C157.368 168.025 147.656 159.368 147.656 147.59" fill="white"/>
<path d="M169.102 173.254C154.116 173.254 142.339 161.96 142.339 147.546V142.273H152.886V147.546C152.886 156.028 160.005 162.708 169.102 162.708C178.066 162.708 184.526 156.335 184.526 147.546V142.273H195.073V147.546C195.117 162.224 183.955 173.254 169.102 173.254Z" fill="#8D4520"/>
<path d="M169.102 154.973C173.082 154.973 176.309 151.746 176.309 147.766C176.309 143.786 173.082 140.559 169.102 140.559C165.121 140.559 161.895 143.786 161.895 147.766C161.895 151.746 165.121 154.973 169.102 154.973Z" fill="#8D4520"/>
<path d="M170.508 61.4575L162.07 38.4741C161.411 36.6724 159.258 35.1782 157.324 35.1782H59.9414C58.0078 35.1782 55.8105 36.6284 55.1074 38.4302L45.7031 61.4575" fill="#F6E89A"/>
<path d="M170.508 66.731C168.355 66.731 166.333 65.4126 165.542 63.2593L157.149 40.4517L157.105 40.4077H60.1174C60.0735 40.4517 59.9856 40.4956 59.9416 40.5395L50.5813 63.4351C49.4827 66.1157 46.4065 67.4341 43.7258 66.3354C41.0452 65.2368 39.7268 62.1606 40.8254 59.48L50.2297 36.4526C51.7678 32.6733 55.8547 29.9048 59.9416 29.9048H157.324C161.499 29.9048 165.542 32.7612 166.992 36.6724L175.43 59.6558C176.441 62.3804 175.034 65.4126 172.31 66.4233C171.739 66.6431 171.123 66.731 170.508 66.731Z" fill="#8D4520"/>
<path d="M166.992 66.9507H45.7031C43.6377 66.9507 41.9678 65.2808 41.9678 63.2153C41.9678 61.1499 43.6377 59.48 45.7031 59.48H166.992C169.058 59.48 170.728 61.1499 170.728 63.2153C170.728 65.2808 169.058 66.9507 166.992 66.9507Z" fill="#8D4520"/>
</svg>
