<svg width="135" height="59" viewBox="0 0 135 59" fill="none" xmlns="http://www.w3.org/2000/svg">
<path d="M23.1522 9.01392C22.6135 9.01397 22.097 9.22982 21.7162 9.614C21.3353 9.99818 21.1213 10.5192 21.1213 11.0625V21.3056C21.1213 21.8489 21.3352 22.37 21.7161 22.7542C22.097 23.1384 22.6135 23.3542 23.1522 23.3542C23.6908 23.3542 24.2073 23.1384 24.5882 22.7542C24.9691 22.37 25.183 21.8489 25.183 21.3056V13.1111H41.4301V45.8889H25.183V37.6945C25.183 37.1511 24.9691 36.6301 24.5882 36.2459C24.2073 35.8617 23.6908 35.6459 23.1522 35.6459C22.6135 35.6459 22.097 35.8617 21.7161 36.2459C21.3352 36.6301 21.1213 37.1511 21.1213 37.6945V47.9375C21.1213 48.4808 21.3353 49.0019 21.7162 49.3861C22.097 49.7702 22.6135 49.9861 23.1522 49.9861H43.461C43.9996 49.9861 44.5162 49.7702 44.897 49.3861C45.2779 49.0019 45.4919 48.4808 45.4919 47.9375V11.0625C45.4919 10.5192 45.2779 9.99818 44.897 9.614C44.5162 9.22982 43.9996 9.01397 43.461 9.01392H23.1522ZM19.1499 23.3542C18.8732 23.3462 18.5979 23.3953 18.3407 23.4985C18.0836 23.6017 17.85 23.7568 17.6545 23.9544L13.6324 28.0116L13.5927 28.0516C13.586 28.0582 13.5794 28.0649 13.5729 28.0716C13.5399 28.1065 13.5081 28.1425 13.4777 28.1796C13.4414 28.2235 13.407 28.2689 13.3745 28.3157C13.3466 28.356 13.3202 28.3974 13.2952 28.4397C13.283 28.4582 13.2711 28.4769 13.2595 28.4957C13.2385 28.5338 13.2186 28.5725 13.2 28.6118C13.1769 28.6603 13.1558 28.7096 13.1365 28.7598C13.1339 28.7678 13.1312 28.7758 13.1286 28.7838C13.1113 28.8273 13.0954 28.8713 13.081 28.9159C13.0753 28.9398 13.07 28.9638 13.0651 28.9879C13.058 29.0157 13.0513 29.0438 13.0453 29.0719C13.0395 29.0971 13.0343 29.1225 13.0294 29.1479C13.0235 29.1771 13.0182 29.2065 13.0136 29.2359C13.0078 29.2851 13.0039 29.3345 13.0017 29.384C12.9997 29.4146 12.9984 29.4453 12.9977 29.476C12.9977 29.484 12.9977 29.492 12.9977 29.5C12.9987 29.5201 13.0001 29.5401 13.0017 29.56C13.0025 29.5854 13.0039 29.6108 13.0056 29.6361C13.0074 29.6708 13.0101 29.7055 13.0136 29.7401C13.0159 29.7601 13.0186 29.7802 13.0215 29.8001C13.0288 29.8525 13.038 29.9045 13.0493 29.9562C13.0587 29.9965 13.0692 30.0365 13.081 30.0762C13.0896 30.1057 13.0989 30.1351 13.1088 30.1642C13.1114 30.1736 13.114 30.1829 13.1167 30.1922C13.1347 30.241 13.1546 30.289 13.1762 30.3363C13.197 30.3825 13.2195 30.4278 13.2436 30.4723C13.2526 30.4911 13.2619 30.5098 13.2714 30.5283C13.2904 30.5595 13.3103 30.5902 13.3309 30.6204C13.34 30.6352 13.3492 30.6498 13.3587 30.6644C13.3741 30.6874 13.39 30.71 13.4063 30.7324C13.418 30.7472 13.4299 30.7619 13.442 30.7764C13.4724 30.8149 13.5041 30.8523 13.5372 30.8884C13.5502 30.9033 13.5634 30.918 13.5768 30.9325C13.5821 30.9378 13.5874 30.9432 13.5927 30.9485C13.6197 30.9759 13.6475 31.0026 13.676 31.0285L17.6545 35.0457C18.0353 35.4298 18.5518 35.6455 19.0904 35.6455C19.6289 35.6455 20.1454 35.4298 20.5263 35.0457C20.907 34.6615 21.121 34.1405 21.121 33.5972C21.121 33.054 20.907 32.533 20.5263 32.1488L19.9313 31.5486H33.3066C33.8452 31.5486 34.3618 31.3328 34.7426 30.9486C35.1235 30.5644 35.3375 30.0434 35.3375 29.5C35.3375 28.9567 35.1235 28.4356 34.7426 28.0514C34.3618 27.6673 33.8452 27.4514 33.3066 27.4514H19.9313L20.5263 26.8512C20.907 26.4671 21.121 25.9461 21.121 25.4028C21.121 24.8596 20.907 24.3385 20.5263 23.9544C20.1602 23.5845 19.6678 23.3698 19.1499 23.3542Z" fill="#645244"/>
<path d="M64.505 32.9458V18.4003H66.2664V31.3833H73.0277V32.9458H64.505ZM79.9596 33.1731C78.9747 33.1731 78.1106 32.9387 77.3672 32.4699C76.6286 32.0012 76.0509 31.3454 75.6343 30.5026C75.2223 29.6598 75.0164 28.675 75.0164 27.5481C75.0164 26.4117 75.2223 25.4198 75.6343 24.5722C76.0509 23.7247 76.6286 23.0665 77.3672 22.5978C78.1106 22.129 78.9747 21.8947 79.9596 21.8947C80.9444 21.8947 81.8062 22.129 82.5448 22.5978C83.2882 23.0665 83.8658 23.7247 84.2777 24.5722C84.6944 25.4198 84.9027 26.4117 84.9027 27.5481C84.9027 28.675 84.6944 29.6598 84.2777 30.5026C83.8658 31.3454 83.2882 32.0012 82.5448 32.4699C81.8062 32.9387 80.9444 33.1731 79.9596 33.1731ZM79.9596 31.6674C80.7077 31.6674 81.3232 31.4756 81.8062 31.0921C82.2891 30.7086 82.6466 30.2043 82.8786 29.5793C83.1106 28.9543 83.2266 28.2772 83.2266 27.5481C83.2266 26.8189 83.1106 26.1395 82.8786 25.5097C82.6466 24.88 82.2891 24.371 81.8062 23.9827C81.3232 23.5945 80.7077 23.4003 79.9596 23.4003C79.2115 23.4003 78.5959 23.5945 78.113 23.9827C77.63 24.371 77.2725 24.88 77.0405 25.5097C76.8085 26.1395 76.6925 26.8189 76.6925 27.5481C76.6925 28.2772 76.8085 28.9543 77.0405 29.5793C77.2725 30.2043 77.63 30.7086 78.113 31.0921C78.5959 31.4756 79.2115 31.6674 79.9596 31.6674ZM91.8647 37.264C91.0551 37.264 90.3591 37.1598 89.7767 36.9515C89.1943 36.7479 88.709 36.478 88.3207 36.1418C87.9372 35.8104 87.6318 35.4553 87.4045 35.0765L88.7397 34.139C88.8913 34.3378 89.083 34.5651 89.315 34.8208C89.547 35.0812 89.8643 35.3061 90.2667 35.4955C90.6739 35.6896 91.2066 35.7867 91.8647 35.7867C92.7454 35.7867 93.4722 35.5736 94.0451 35.1475C94.6181 34.7214 94.9045 34.0538 94.9045 33.1447V30.9288H94.7625C94.6394 31.1276 94.4642 31.3738 94.2369 31.6674C94.0144 31.9562 93.6924 32.2143 93.271 32.4415C92.8543 32.6641 92.2909 32.7753 91.5807 32.7753C90.7 32.7753 89.9093 32.567 89.2085 32.1503C88.5125 31.7337 87.9609 31.1276 87.5537 30.3322C87.1512 29.5367 86.95 28.5708 86.95 27.4344C86.95 26.317 87.1465 25.344 87.5395 24.5154C87.9325 23.6821 88.4793 23.0381 89.1801 22.5836C89.8808 22.1243 90.6905 21.8947 91.6091 21.8947C92.3193 21.8947 92.8827 22.013 93.2994 22.2498C93.7208 22.4818 94.0428 22.7469 94.2653 23.0452C94.4926 23.3388 94.6678 23.5803 94.7909 23.7697H94.9613V22.0367H96.5807V33.2583C96.5807 34.1958 96.3676 34.9581 95.9415 35.5452C95.52 36.1371 94.9519 36.5703 94.2369 36.8449C93.5267 37.1243 92.736 37.264 91.8647 37.264ZM91.8079 31.2697C92.4803 31.2697 93.0485 31.1158 93.5125 30.808C93.9765 30.5003 94.3292 30.0575 94.5707 29.4799C94.8122 28.9022 94.9329 28.211 94.9329 27.406C94.9329 26.62 94.8146 25.9264 94.5778 25.3251C94.3411 24.7237 93.9907 24.2526 93.5267 23.9117C93.0627 23.5708 92.4897 23.4003 91.8079 23.4003C91.0977 23.4003 90.5058 23.5803 90.0324 23.9401C89.5636 24.3 89.2109 24.7829 88.9741 25.389C88.7421 25.995 88.6261 26.6674 88.6261 27.406C88.6261 28.1636 88.7445 28.8336 88.9812 29.416C89.2227 29.9936 89.5778 30.4482 90.0466 30.7796C90.52 31.1063 91.1072 31.2697 91.8079 31.2697ZM109.706 33.1731C108.721 33.1731 107.857 32.9387 107.113 32.4699C106.375 32.0012 105.797 31.3454 105.38 30.5026C104.968 29.6598 104.762 28.675 104.762 27.5481C104.762 26.4117 104.968 25.4198 105.38 24.5722C105.797 23.7247 106.375 23.0665 107.113 22.5978C107.857 22.129 108.721 21.8947 109.706 21.8947C110.691 21.8947 111.552 22.129 112.291 22.5978C113.034 23.0665 113.612 23.7247 114.024 24.5722C114.441 25.4198 114.649 26.4117 114.649 27.5481C114.649 28.675 114.441 29.6598 114.024 30.5026C113.612 31.3454 113.034 32.0012 112.291 32.4699C111.552 32.9387 110.691 33.1731 109.706 33.1731ZM109.706 31.6674C110.454 31.6674 111.069 31.4756 111.552 31.0921C112.035 30.7086 112.393 30.2043 112.625 29.5793C112.857 28.9543 112.973 28.2772 112.973 27.5481C112.973 26.8189 112.857 26.1395 112.625 25.5097C112.393 24.88 112.035 24.371 111.552 23.9827C111.069 23.5945 110.454 23.4003 109.706 23.4003C108.958 23.4003 108.342 23.5945 107.859 23.9827C107.376 24.371 107.019 24.88 106.787 25.5097C106.555 26.1395 106.439 26.8189 106.439 27.5481C106.439 28.2772 106.555 28.9543 106.787 29.5793C107.019 30.2043 107.376 30.7086 107.859 31.0921C108.342 31.4756 108.958 31.6674 109.706 31.6674ZM124.082 28.4856V22.0367H125.759V32.9458H124.082V31.0992H123.969C123.713 31.6532 123.315 32.1243 122.776 32.5126C122.236 32.8961 121.554 33.0878 120.73 33.0878C120.048 33.0878 119.442 32.9387 118.912 32.6404C118.382 32.3374 117.965 31.8828 117.662 31.2768C117.359 30.666 117.207 29.8966 117.207 28.9685V22.0367H118.884V28.8549C118.884 29.6503 119.106 30.2848 119.551 30.7583C120.001 31.2318 120.574 31.4685 121.27 31.4685C121.687 31.4685 122.11 31.362 122.541 31.1489C122.977 30.9359 123.341 30.6092 123.635 30.1688C123.933 29.7285 124.082 29.1674 124.082 28.4856ZM133.573 22.0367V23.4572H127.919V22.0367H133.573ZM129.567 19.4231H131.243V29.8208C131.243 30.2943 131.312 30.6494 131.449 30.8861C131.591 31.1181 131.771 31.2744 131.989 31.3549C132.212 31.4306 132.446 31.4685 132.692 31.4685C132.877 31.4685 133.028 31.4591 133.147 31.4401C133.265 31.4164 133.36 31.3975 133.431 31.3833L133.772 32.889C133.658 32.9316 133.499 32.9742 133.296 33.0168C133.092 33.0642 132.834 33.0878 132.522 33.0878C132.048 33.0878 131.584 32.986 131.13 32.7824C130.68 32.5789 130.306 32.2687 130.008 31.8521C129.714 31.4354 129.567 30.9098 129.567 30.2753V19.4231Z" fill="#645244"/>
</svg>
