<svg width="24" height="25" viewBox="0 0 24 25" fill="none" xmlns="http://www.w3.org/2000/svg">
<path d="M11.9388 23.8776C10.2183 23.8776 8.81911 22.4919 8.81911 20.7886V15.5584H3.58899C1.88565 15.5584 0.5 14.1593 0.5 12.4388C0.5 10.7183 1.88565 9.31911 3.58899 9.31911H8.81911V4.08899C8.81911 2.38565 10.2183 1 11.9388 1C13.6593 1 15.0584 2.38565 15.0584 4.08899V9.31911H20.2886C21.9919 9.31911 23.3776 10.7183 23.3776 12.4388C23.3776 14.1593 21.9919 15.5584 20.2886 15.5584H15.0584V20.7886C15.0584 22.4919 13.6593 23.8776 11.9388 23.8776ZM3.58899 10.359C2.47839 10.359 1.53989 11.3115 1.53989 12.4388C1.53989 13.566 2.47839 14.5186 3.58899 14.5186H9.859V20.7886C9.859 21.8992 10.8115 22.8377 11.9388 22.8377C13.066 22.8377 14.0186 21.8992 14.0186 20.7886V14.5186H20.2886C21.3992 14.5186 22.3377 13.566 22.3377 12.4388C22.3377 11.3115 21.3992 10.359 20.2886 10.359H14.0186V4.08899C14.0186 2.97839 13.066 2.03989 11.9388 2.03989C10.8115 2.03989 9.859 2.97839 9.859 4.08899V10.359H3.58899Z" stroke="black"/>
</svg>
