<svg width="15" height="15" viewBox="0 0 15 15" fill="none" xmlns="http://www.w3.org/2000/svg">
<g clip-path="url(#clip0_370_310)">
<path d="M7.32647 14.6122C6.28282 14.6122 5.43408 13.7716 5.43408 12.7384V9.56579H2.26148C1.22823 9.56579 0.387695 8.71705 0.387695 7.6734C0.387695 6.62974 1.22823 5.781 2.26148 5.781H5.43408V2.6084C5.43408 1.57516 6.28282 0.734619 7.32647 0.734619C8.37013 0.734619 9.21886 1.57516 9.21886 2.6084V5.781H12.3915C13.4247 5.781 14.2652 6.62974 14.2652 7.6734C14.2652 8.71705 13.4247 9.56579 12.3915 9.56579H9.21886V12.7384C9.21886 13.7716 8.37013 14.6122 7.32647 14.6122ZM2.26148 6.4118C1.58779 6.4118 1.01849 6.98961 1.01849 7.6734C1.01849 8.35718 1.58779 8.93499 2.26148 8.93499H6.06488V12.7384C6.06488 13.4121 6.64269 13.9814 7.32647 13.9814C8.01026 13.9814 8.58807 13.4121 8.58807 12.7384V8.93499H12.3915C13.0652 8.93499 13.6344 8.35718 13.6344 7.6734C13.6344 6.98961 13.0652 6.4118 12.3915 6.4118H8.58807V2.6084C8.58807 1.93471 8.01026 1.36542 7.32647 1.36542C6.64269 1.36542 6.06488 1.93471 6.06488 2.6084V6.4118H2.26148Z" fill="black"/>
</g>
<defs>
<clipPath id="clip0_370_310">
<rect width="13.8776" height="13.8776" fill="white" transform="translate(0.387695 0.734619)"/>
</clipPath>
</defs>
</svg>
