<svg width="48" height="60" viewBox="0 0 48 60" fill="none" xmlns="http://www.w3.org/2000/svg">
<path d="M46.1983 16.4366C46.1942 15.5729 45.8631 14.7428 45.2715 14.1136C44.6799 13.4843 43.8718 13.1026 43.01 13.0453C43.9216 12.8677 44.7405 12.3721 45.3206 11.6468C45.9007 10.9215 46.2043 10.0138 46.1773 9.08543C46.1502 8.15708 45.7942 7.26856 45.1729 6.57832C44.5515 5.88807 43.7051 5.441 42.7847 5.31686H42.1297V4.66843C42.1297 2.82409 39.937 1.31509 38.0926 1.31509C37.167 1.30441 36.2716 1.64411 35.586 2.26605C34.9004 2.88799 34.4754 3.74617 34.3961 4.66843C34.3549 3.76262 33.965 2.90786 33.308 2.28288C32.6511 1.6579 31.7779 1.31111 30.8711 1.31509C29.9735 1.31447 29.1113 1.6649 28.4685 2.29148C27.8258 2.91805 27.4536 3.7711 27.4314 4.66843C27.4314 3.77038 27.0746 2.90914 26.4396 2.27413C25.8046 1.63911 24.9433 1.28235 24.0453 1.28235C23.1472 1.28235 22.2859 1.63911 21.6509 2.27413C21.0159 2.90914 20.6592 3.77038 20.6592 4.66843C20.6592 3.77664 20.3049 2.92139 19.6743 2.2908C19.0437 1.6602 18.1884 1.30593 17.2967 1.30593C16.4049 1.30593 15.5496 1.6602 14.919 2.2908C14.2884 2.92139 13.9341 3.77664 13.9341 4.66843C13.8715 3.7601 13.4665 2.90939 12.8009 2.28812C12.1353 1.66685 11.2588 1.32132 10.3483 1.32132C9.43779 1.32132 8.56124 1.66685 7.89565 2.28812C7.23007 2.90939 6.82505 3.7601 6.76242 4.66843V5.31686H5.20364C4.25533 5.4258 3.38119 5.88279 2.75055 6.59934C2.11991 7.31589 1.77763 8.24101 1.79003 9.19548C1.78703 10.0847 2.1097 10.9441 2.6971 11.6116C3.28451 12.2792 4.096 12.7085 4.97834 12.8187C4.10602 12.902 3.29609 13.3075 2.70658 13.9559C2.11707 14.6042 1.79029 15.449 1.79003 16.3253C1.79181 17.1953 2.12064 18.0329 2.71126 18.6718C3.30187 19.3107 4.11109 19.7042 4.97834 19.7742C4.11482 19.8353 3.30654 20.2213 2.71639 20.8547C2.12624 21.488 1.79811 22.3215 1.79811 23.1872C1.79811 24.0528 2.12624 24.8863 2.71639 25.5197C3.30654 26.153 4.11482 26.5391 4.97834 26.6001C4.1223 26.6653 3.32246 27.0513 2.7389 27.681C2.15533 28.3107 1.83111 29.1375 1.83111 29.996C1.83111 30.8545 2.15533 31.6814 2.7389 32.3111C3.32246 32.9407 4.1223 33.3268 4.97834 33.3919C4.1133 33.443 3.30044 33.8226 2.70602 34.4531C2.11159 35.0836 1.78052 35.9174 1.78052 36.7839C1.78052 37.6505 2.11159 38.4843 2.70602 39.1148C3.30044 39.7453 4.1133 40.1249 4.97834 40.1759C4.11533 40.2296 3.30525 40.6102 2.71311 41.2404C2.12098 41.8705 1.79133 42.7026 1.79133 43.5673C1.79133 44.4319 2.12098 45.2641 2.71311 45.8942C3.30525 46.5243 4.11533 46.9049 4.97834 46.9586C3.20604 47.0778 1.79003 49.2142 1.79003 51.0193C1.79003 52.8977 3.32524 55.0983 5.20364 55.0983H6.76242V55.3459C6.81704 56.2572 7.21891 57.113 7.88534 57.737C8.55176 58.361 9.43204 58.7059 10.345 58.7005C11.2459 58.7024 12.1121 58.353 12.7597 57.7267C13.4073 57.1004 13.7853 56.2464 13.8136 55.3459C13.8136 56.2471 14.1716 57.1113 14.8088 57.7485C15.4461 58.3858 16.3103 58.7438 17.2115 58.7438C18.1127 58.7438 18.9769 58.3858 19.6142 57.7485C20.2514 57.1113 20.6094 56.2471 20.6094 55.3459C20.6094 56.2384 20.9639 57.0943 21.595 57.7254C22.2261 58.3565 23.082 58.711 23.9745 58.711C24.867 58.711 25.7229 58.3565 26.354 57.7254C26.9851 57.0943 27.3397 56.2384 27.3397 55.3459C27.357 56.2246 27.7183 57.0615 28.3459 57.6768C28.9735 58.2922 29.8174 58.6368 30.6963 58.6368C31.5752 58.6368 32.4191 58.2922 33.0467 57.6768C33.6743 57.0615 34.0355 56.2246 34.0529 55.3459C34.0529 57.1915 36.2457 58.7005 38.0913 58.7005C39.937 58.7005 42.1297 57.1915 42.1297 55.3459V55.0983H42.7847C44.6618 55.0983 46.1983 52.8977 46.1983 51.0193C46.2038 50.119 45.8844 49.2469 45.2987 48.563C44.7131 47.8792 43.9004 47.4295 43.01 47.2965C43.8866 47.2015 44.697 46.7858 45.2856 46.1293C45.8742 45.4728 46.1992 44.6218 46.1983 43.7401C46.197 42.8673 45.8691 42.0265 45.279 41.3834C44.689 40.7402 43.8795 40.3413 43.01 40.265C43.8741 40.2017 44.6823 39.8137 45.2722 39.179C45.8621 38.5444 46.19 37.71 46.19 36.8435C46.19 35.9771 45.8621 35.1427 45.2722 34.508C44.6823 33.8733 43.8741 33.4854 43.01 33.4221C43.8731 33.3659 44.6825 32.9833 45.2739 32.3522C45.8652 31.721 46.1943 30.8885 46.1943 30.0235C46.1943 29.1586 45.8652 28.3261 45.2739 27.6949C44.6825 27.0637 43.8731 26.6812 43.01 26.625C43.8598 26.5522 44.6513 26.1631 45.2281 25.5348C45.8048 24.9065 46.1249 24.0846 46.1249 23.2317C46.1249 22.3788 45.8048 21.5569 45.2281 20.9286C44.6513 20.3003 43.8598 19.9113 43.01 19.8384C43.8735 19.7807 44.6829 19.3974 45.2747 18.7659C45.8665 18.1345 46.1966 17.302 46.1983 16.4366Z" stroke="black" stroke-width="2.79445" stroke-linecap="round" stroke-linejoin="round"/>
<path d="M16.6338 21.7968C17.6893 21.7968 18.5449 20.9411 18.5449 19.8856C18.5449 18.8301 17.6893 17.9745 16.6338 17.9745C15.5783 17.9745 14.7227 18.8301 14.7227 19.8856C14.7227 20.9411 15.5783 21.7968 16.6338 21.7968Z" fill="white" stroke="black" stroke-width="1.39723"/>
<path d="M31.3572 21.7968C32.4127 21.7968 33.2683 20.9411 33.2683 19.8856C33.2683 18.8301 32.4127 17.9745 31.3572 17.9745C30.3017 17.9745 29.446 18.8301 29.446 19.8856C29.446 20.9411 30.3017 21.7968 31.3572 21.7968Z" fill="white" stroke="black" stroke-width="1.39723"/>
<path d="M16.6338 31.976C17.6893 31.976 18.5449 31.1203 18.5449 30.0648C18.5449 29.0093 17.6893 28.1537 16.6338 28.1537C15.5783 28.1537 14.7227 29.0093 14.7227 30.0648C14.7227 31.1203 15.5783 31.976 16.6338 31.976Z" fill="white" stroke="black" stroke-width="1.39723"/>
<path d="M31.3572 31.976C32.4127 31.976 33.2683 31.1203 33.2683 30.0648C33.2683 29.0093 32.4127 28.1537 31.3572 28.1537C30.3017 28.1537 29.446 29.0093 29.446 30.0648C29.446 31.1203 30.3017 31.976 31.3572 31.976Z" fill="white" stroke="black" stroke-width="1.39723"/>
<path d="M16.6338 42.1552C17.6893 42.1552 18.5449 41.2995 18.5449 40.244C18.5449 39.1885 17.6893 38.3329 16.6338 38.3329C15.5783 38.3329 14.7227 39.1885 14.7227 40.244C14.7227 41.2995 15.5783 42.1552 16.6338 42.1552Z" fill="white" stroke="black" stroke-width="1.39723"/>
<path d="M31.3572 42.1552C32.4127 42.1552 33.2683 41.2995 33.2683 40.244C33.2683 39.1885 32.4127 38.3329 31.3572 38.3329C30.3017 38.3329 29.446 39.1885 29.446 40.244C29.446 41.2995 30.3017 42.1552 31.3572 42.1552Z" fill="white" stroke="black" stroke-width="1.39723"/>
</svg>
