<svg width="56" height="56" viewBox="0 0 56 56" fill="none" xmlns="http://www.w3.org/2000/svg">
<path d="M46 0.456299C42.6813 0.456299 39.1891 1.86255 36.6204 3.20317C35.3735 3.0063 33.0016 2.85161 30.461 3.43286C29.0829 3.74692 27.7 4.28599 26.5985 5.26567C25.5016 6.24536 24.7516 7.72661 24.7516 9.5313V10.6938C24.5688 10.6797 24.3157 10.5813 24.1422 10.5813C22.3235 10.5813 19.7407 10.6985 17.4625 11.8938C15.1844 13.0844 13.3375 15.5407 13.3375 19.4454V20.2375C12.9532 20.2422 12.5454 20.186 12.1797 20.275C10.5532 20.6735 8.56099 21.3297 6.9438 22.8625C5.3313 24.4 4.19692 26.8094 4.19692 30.2688V31.4875C4.15942 31.5297 4.12661 31.5157 4.0938 31.5672C2.74849 33.7141 0.456299 39.161 0.456299 44.8329C0.456299 48.4516 1.26255 51.1235 2.72505 52.9235C4.18755 54.7282 6.29692 55.5438 8.44849 55.5438C12.8407 55.5438 17.2797 53.4157 21.9954 49.9797C26.7063 46.5438 31.7266 41.7579 37.2579 36.1938C48.0813 25.3141 55.5438 16.4313 55.5438 7.60005C55.5438 4.93755 54.0813 2.97817 52.2016 1.90005C50.3172 0.817236 48.0485 0.456299 46 0.456299ZM46 2.7438C47.7625 2.7438 49.6938 3.10474 51.0625 3.88755C52.4266 4.66567 53.2563 5.7063 53.2563 7.60005C53.2563 15.0907 46.3797 23.7813 35.6313 34.5813C30.1282 40.1172 25.1641 44.8329 20.6454 48.1282C16.1266 51.4235 12.086 53.2563 8.44849 53.2563C6.84067 53.2563 5.52349 52.736 4.5063 51.4797C3.48442 50.2282 2.7438 48.1094 2.7438 44.8329C2.7438 40.0891 4.75005 35.1907 5.8188 33.3016C6.10005 33.3344 6.43286 33.386 6.89692 33.475C8.02661 33.686 9.56411 34.0188 11.1625 34.3C12.7657 34.5813 14.425 34.8204 15.8875 34.8438C17.35 34.8672 18.7235 34.825 19.6704 33.7282C20.1532 33.1657 20.1391 32.2188 19.8485 31.675C19.5579 31.1313 19.136 30.761 18.6344 30.3954C17.6313 29.6641 16.2391 29.0266 14.6407 28.5438C12.2125 27.8125 9.29692 27.4188 6.82192 28.2297C7.14067 26.5938 7.68911 25.3188 8.52349 24.5266C9.68599 23.4204 11.2563 22.8579 12.7235 22.5016C13.2297 22.3797 14.5704 22.5157 16.1407 22.9329C17.711 23.3454 19.5532 23.9641 21.3766 24.5313C23.1954 25.0938 24.9954 25.6047 26.6032 25.7829C27.4047 25.8719 28.1688 25.886 28.8954 25.7266C29.6172 25.5672 30.3391 25.2063 30.8266 24.5688C31.3282 23.9172 31.3657 22.975 31.0891 22.2907C30.8125 21.6063 30.3391 21.0625 29.7485 20.5375C28.5766 19.4969 26.8985 18.5641 25.0047 17.8516C23.1157 17.1391 21.0157 16.6657 19.0094 16.675C18.025 16.6844 17.0547 16.8204 16.15 17.1204C16.6329 15.6157 17.3875 14.5188 18.5266 13.9188C20.2 13.0422 22.4454 12.8688 24.1422 12.8688C24.7516 12.8688 26.1016 13.1547 27.6157 13.5672C29.1297 13.9844 30.8547 14.5188 32.5 14.9594C34.1407 15.4 35.6735 15.761 36.9813 15.7938C37.6329 15.8079 38.2469 15.7657 38.8563 15.4422C39.4657 15.1188 39.9485 14.3313 39.9485 13.6C39.9485 12.25 39.1422 11.1297 38.1063 10.3141C37.0657 9.4938 35.7438 8.8938 34.2954 8.46724C32.0219 7.79692 29.5469 7.73599 27.3063 8.16255C27.4891 7.69849 27.7563 7.30474 28.1266 6.97192C28.8063 6.36724 29.8329 5.92661 30.9719 5.66411C33.25 5.13911 36.0063 5.36411 36.6063 5.4813L37 5.5563L37.361 5.3688C39.7469 4.09849 43.2579 2.7438 46 2.7438ZM29.7204 10.0844C31.0188 10.1032 32.411 10.3 33.6485 10.661C34.886 11.0266 35.9782 11.5563 36.686 12.1141C37.3188 12.611 37.5063 13.0469 37.5579 13.4454C37.4407 13.4735 37.3469 13.511 37.0375 13.5016C36.1422 13.4782 34.675 13.1735 33.0907 12.7469C31.5063 12.3204 29.7907 11.7907 28.225 11.3594C27.236 11.0875 26.4766 11.0079 25.6516 10.8672L26.3313 10.5907C27.2079 10.2344 28.4172 10.0657 29.7204 10.0844ZM19.0235 18.9672C20.6454 18.9579 22.5204 19.3657 24.2032 19.9938C25.886 20.6266 27.3766 21.4938 28.225 22.2485C28.6516 22.6282 28.8954 22.9844 28.961 23.1438C28.9844 23.1954 28.9891 23.1813 28.9938 23.186C28.9 23.3079 28.7547 23.411 28.4079 23.486C28.0469 23.5657 27.5079 23.5797 26.8563 23.5047C25.5532 23.3641 23.8375 22.8907 22.0516 22.3375C20.2657 21.7891 18.4094 21.161 16.7219 20.7157C16.1735 20.5704 15.6813 20.486 15.175 20.3875L15.311 20.2375C16.1125 19.3938 17.4063 18.9766 19.0235 18.9672ZM9.6063 30.1235C11.0266 30.0813 12.5782 30.3157 13.975 30.7375C15.3766 31.1594 16.6047 31.7547 17.2891 32.2516C17.336 32.2844 17.3219 32.2891 17.3641 32.3219C17.0641 32.4204 16.8063 32.5657 15.925 32.5563C14.6922 32.5375 13.1079 32.3172 11.561 32.0454C10.0188 31.7688 8.50005 31.4454 7.3188 31.225C6.91567 31.1454 6.6063 31.1032 6.27817 31.0563C7.12661 30.475 8.28911 30.1657 9.6063 30.1235Z" fill="black"/>
</svg>
