<svg width="260" height="120" viewBox="0 0 260 120" fill="none" xmlns="http://www.w3.org/2000/svg">
<rect width="260" height="120" rx="20" fill="url(#paint0_linear_478_501)"/>
<g filter="url(#filter0_b_478_501)">
<rect width="260" height="120" rx="20" fill="white" fill-opacity="0.03"/>
</g>
<path d="M229.39 15.3275L225.462 24.6975H222.9L220.968 17.2188C220.85 16.7588 220.749 16.59 220.391 16.3963C219.809 16.08 218.846 15.7838 218 15.5988L218.058 15.3275H222.182C222.452 15.3273 222.713 15.4234 222.918 15.5985C223.123 15.7736 223.258 16.0162 223.3 16.2825L224.321 21.705L226.844 15.3275H229.39ZM239.431 21.6388C239.441 19.165 236.011 19.0288 236.035 17.9238C236.043 17.5875 236.362 17.23 237.062 17.1388C237.883 17.0609 238.709 17.206 239.454 17.5588L239.879 15.5713C239.154 15.2987 238.386 15.1578 237.611 15.155C235.215 15.155 233.529 16.43 233.514 18.2538C233.499 19.6025 234.718 20.3538 235.636 20.8038C236.581 21.2625 236.899 21.5575 236.894 21.9675C236.887 22.5975 236.141 22.8738 235.444 22.885C234.225 22.9038 233.519 22.5563 232.954 22.2938L232.515 24.3463C233.081 24.6063 234.126 24.8338 235.21 24.8438C237.756 24.8438 239.423 23.5863 239.431 21.6388ZM245.757 24.6975H248L246.044 15.3275H243.974C243.753 15.3255 243.536 15.3899 243.352 15.5125C243.168 15.6351 243.025 15.8102 242.941 16.015L239.305 24.6975H241.85L242.356 23.2975H245.466L245.757 24.6975ZM243.054 21.3775L244.329 17.8588L245.064 21.3775H243.054ZM232.854 15.3275L230.85 24.6975H228.425L230.431 15.3275H232.854Z" fill="white" fill-opacity="0.6"/>
<path fill-rule="evenodd" clip-rule="evenodd" d="M164.157 118C168.944 106.073 171.578 93.0495 171.578 79.4108C171.578 47.5312 157.186 19.0132 134.544 0H20C8.9543 0 0 8.95431 0 20V98C0 109.046 8.95429 118 20 118H164.157Z" fill="white" fill-opacity="0.06"/>
<path fill-rule="evenodd" clip-rule="evenodd" d="M152.848 118C156.716 107.134 158.822 95.4317 158.822 83.2379C158.822 49.1411 142.357 18.8897 116.945 0H20C8.9543 0 0 8.95431 0 20V98C0 109.046 8.95429 118 20 118H152.848Z" fill="white" fill-opacity="0.06"/>
<defs>
<filter id="filter0_b_478_501" x="-80" y="-80" width="420" height="280" filterUnits="userSpaceOnUse" color-interpolation-filters="sRGB">
<feFlood flood-opacity="0" result="BackgroundImageFix"/>
<feGaussianBlur in="BackgroundImageFix" stdDeviation="40"/>
<feComposite in2="SourceAlpha" operator="in" result="effect1_backgroundBlur_478_501"/>
<feBlend mode="normal" in="SourceGraphic" in2="effect1_backgroundBlur_478_501" result="shape"/>
</filter>
<linearGradient id="paint0_linear_478_501" x1="-65.9701" y1="-24.973" x2="265.769" y2="182.418" gradientUnits="userSpaceOnUse">
<stop offset="0.0364583"/>
<stop offset="0.878935" stop-color="#0FB8B8"/>
</linearGradient>
</defs>
</svg>
