<svg xmlns="http://www.w3.org/2000/svg" width="35" height="35" viewBox="0 0 35 35" fill="none">
  <g clip-path="url(#clip0_376_2091)">
    <path d="M34.5052 8.00374C33.9886 7.26211 33.1405 6.81944 32.2372 6.81944H25.4921C26.4395 7.01726 27.2459 7.65445 27.6266 8.57408C27.7023 8.7572 27.7521 8.94561 27.7893 9.135H32.2371C32.3841 9.135 32.522 9.20736 32.6045 9.32533C32.6883 9.44637 32.7075 9.60063 32.6566 9.73813L29.4494 18.371C29.3849 18.5457 29.2165 18.6634 29.0298 18.6634H11.0445L8.1786 6.43794C7.82147 4.92061 6.48405 3.86084 4.92588 3.86084H1.73653C0.777841 3.86084 0 4.63811 0 5.59737C0 6.55662 0.777841 7.33397 1.73653 7.33397H4.82209L8.68071 23.7946C9.031 25.2818 10.3244 26.3236 11.8428 26.3638C10.9495 27.0127 10.3627 28.0578 10.3627 29.2462C10.3627 31.218 11.9615 32.8159 13.9333 32.8159C15.9051 32.8159 17.5026 31.218 17.5026 29.2462C17.5026 28.0625 16.9202 27.0213 16.0325 26.3716H22.6918C21.8041 27.0213 21.221 28.0625 21.221 29.2462C21.221 31.218 22.8197 32.8159 24.791 32.8159C26.7617 32.8159 28.3603 31.218 28.3603 29.2462C28.3603 28.0625 27.7767 27.0213 26.8895 26.3716H28.5086C29.4672 26.3716 30.2451 25.5946 30.2451 24.6351C30.2451 23.6758 29.4672 22.8986 28.5086 22.8986H12.0372L11.5872 20.9788H29.0297C30.1783 20.9788 31.2183 20.2558 31.62 19.1785L34.8273 10.5448C35.1416 9.69786 35.0217 8.74879 34.5052 8.00374Z" fill="#032FA8" stroke="black" stroke-width="0.000639995"/>
    <path d="M19.6529 14.9432C19.7795 15.0704 19.9458 15.1337 20.1117 15.1337C20.2781 15.1337 20.4444 15.0704 20.5698 14.9432L25.3463 10.1681C25.5331 9.98217 25.5884 9.70302 25.4878 9.45995C25.4221 9.30163 25.2037 9.05791 24.8875 9.05791C24.4262 9.05791 23.0423 9.05791 23.0423 9.05791V6.81941V2.8354C23.0411 2.47649 22.7504 2.18408 22.3909 2.18408H17.8313C17.4718 2.18408 17.1812 2.47649 17.1812 2.83418V6.81948V9.05862C17.1812 9.05862 15.7978 9.05862 15.3366 9.05862C15.0412 9.05862 14.8039 9.29614 14.7361 9.45938C14.6356 9.70245 14.6908 9.98217 14.8759 10.1681L19.6529 14.9432Z" fill="#032FA8" stroke="black" stroke-width="0.000639995"/>
  </g>
  <defs>
    <clipPath id="clip0_376_2091">
      <rect width="35" height="35" fill="white"/>
    </clipPath>
  </defs>
</svg>