<svg width="60" height="50" viewBox="0 0 60 50" fill="none" xmlns="http://www.w3.org/2000/svg">
<path d="M21.0703 49.9537C20.8799 49.9537 20.6893 49.8811 20.5442 49.7359L0.218014 29.4098C0.0782767 29.2702 0 29.0809 0 28.8836C0 28.6863 0.0782767 28.497 0.218014 28.3574L27.4384 1.13703C27.5811 0.994317 27.7728 0.912916 27.9774 0.919315C28.1792 0.922737 28.371 1.00816 28.5085 1.15578L28.5517 1.20206C28.6438 1.30102 28.7357 1.40014 28.8322 1.49657C29.3069 1.97129 29.8199 2.41193 30.3571 2.80659C30.3672 2.81328 30.3775 2.82028 30.3874 2.82772C32.0326 4.0288 33.9718 4.83791 35.9955 5.16769C36.0199 5.1717 36.0439 5.17691 36.0673 5.18316C37.9023 5.47157 39.7987 5.3671 41.5858 4.87988C41.6078 4.8714 41.6304 4.86395 41.6533 4.85756C43.5733 4.32301 45.306 3.38131 46.8029 2.05879C46.8196 2.04406 46.8367 2.03022 46.8543 2.01727C47.0421 1.84985 47.2272 1.67485 47.4053 1.49657C47.7623 1.13941 48.1002 0.757701 48.4378 0.329709C48.5695 0.162887 48.7661 0.060205 48.9783 0.0477046C49.1904 0.0350553 49.3978 0.113927 49.5481 0.264379L59.7821 10.4982C59.9217 10.6378 60.0002 10.827 60.0002 11.0245C60.0002 11.2219 59.9219 11.4111 59.7821 11.5507L21.5963 49.7359C21.4511 49.8811 21.2606 49.9537 21.0703 49.9537ZM1.79635 28.8836L21.0703 48.1575L58.2035 11.0243L49.0719 1.89271C48.8701 2.12219 48.6648 2.34154 48.4575 2.54869C48.4281 2.57816 48.3985 2.60762 48.3685 2.63679L49.9051 4.1736C50.1958 4.46424 50.1958 4.93539 49.9051 5.22587L45.705 9.42618C45.5654 9.56577 45.3762 9.64404 45.1789 9.64404C44.9816 9.64404 44.7923 9.56562 44.6529 9.42618L41.6316 6.40493C41.1855 6.51491 40.7346 6.60375 40.2802 6.67131L43.832 10.2232C44.1226 10.5139 44.1226 10.985 43.832 11.2755L39.6317 15.4758C39.4921 15.6154 39.303 15.6937 39.1056 15.6937C38.9083 15.6937 38.719 15.6152 38.5796 15.4758L34.3793 11.2755C34.0886 10.9849 34.0886 10.5137 34.3793 10.2232L37.7754 6.82697C37.2267 6.81403 36.677 6.77028 36.1335 6.69631L33.4929 9.33689C33.2026 9.62738 32.7311 9.62738 32.4408 9.33689L28.2403 5.13658C28.1007 4.997 28.0223 4.80785 28.0223 4.61037C28.0223 4.41305 28.1006 4.22375 28.2403 4.08416L28.8258 3.49873C28.5265 3.25184 28.2363 2.99246 27.957 2.72251L1.79635 28.8836ZM35.9577 10.7494L39.1056 13.8975L42.2535 10.7494L39.1056 7.60156L35.9577 10.7494ZM43.2404 5.90938L45.1788 7.8477L48.3267 4.69966L47.2544 3.6273C46.0383 4.60472 44.6939 5.36874 43.2404 5.90938ZM29.8188 4.61067L32.9669 7.75856L34.3791 6.34615C32.8362 5.93765 31.3608 5.27617 30.034 4.39549L29.8188 4.61067ZM20.9985 46.0786C20.8082 46.0786 20.6176 46.006 20.4725 45.8607L16.2722 41.6604C15.9815 41.3698 15.9815 40.8986 16.2722 40.6081L20.4725 36.4078C20.6121 36.2682 20.8012 36.19 20.9985 36.19C21.1959 36.19 21.3852 36.2684 21.5246 36.4078L25.7251 40.6081C25.8647 40.7477 25.9431 40.9369 25.9431 41.1343C25.9431 41.3318 25.8648 41.521 25.7251 41.6606L21.5246 45.8609C21.3795 46.006 21.189 46.0786 20.9985 46.0786ZM17.8507 41.1342L20.9985 44.2822L24.1466 41.1342L20.9985 37.9862L17.8507 41.1342ZM27.0601 40.017C26.8698 40.017 26.6791 39.9444 26.534 39.7992L22.3337 35.5989C22.0431 35.3082 22.0431 34.8371 22.3337 34.5466L26.534 30.3463C26.8244 30.0558 27.2958 30.0558 27.5861 30.3463L31.7866 34.5466C31.9262 34.6862 32.0046 34.8753 32.0046 35.0728C32.0046 35.2703 31.9263 35.4594 31.7866 35.599L27.5861 39.7993C27.4409 39.9444 27.2504 40.017 27.0601 40.017ZM23.9122 35.0727L27.0601 38.2207L30.2081 35.0727L27.0601 31.9248L23.9122 35.0727ZM14.8598 39.9397C14.6625 39.9397 14.4732 39.8612 14.3337 39.7218L10.1333 35.5215C9.99368 35.3819 9.91525 35.1928 9.91525 34.9953C9.91525 34.7978 9.99353 34.6087 10.1333 34.4691L14.3337 30.2688C14.6241 29.9783 15.0955 29.9783 15.3858 30.2688L19.5861 34.4691C19.8768 34.7597 19.8768 35.2309 19.5861 35.5213L15.3858 39.7216C15.2464 39.8614 15.0573 39.9397 14.8598 39.9397ZM11.7117 34.9953L14.8598 38.1433L18.0077 34.9953L14.8598 31.8474L11.7117 34.9953ZM33.1216 33.9557C32.9243 33.9557 32.735 33.8772 32.5956 33.7378L28.3951 29.5375C28.2555 29.3979 28.1771 29.2088 28.1771 29.0113C28.1771 28.8138 28.2554 28.6247 28.3951 28.4851L32.5956 24.2848C32.8859 23.9943 33.3573 23.9943 33.6477 24.2848L37.848 28.4851C38.1386 28.7757 38.1386 29.2469 37.848 29.5373L33.6477 33.7376C33.5082 33.8772 33.3191 33.9557 33.1216 33.9557ZM29.9736 29.0113L33.1216 32.1593L36.2695 29.0113L33.1216 25.8634L29.9736 29.0113ZM20.9213 33.8783C20.724 33.8783 20.5347 33.7999 20.3953 33.6604L16.1949 29.4601C15.9043 29.1695 15.9043 28.6983 16.1949 28.4078L20.3953 24.2075C20.5348 24.0679 20.724 23.9897 20.9213 23.9897C21.1186 23.9897 21.3079 24.0681 21.4474 24.2075L25.6477 28.4078C25.9383 28.6985 25.9383 29.1696 25.6477 29.4601L21.4474 33.6604C21.3079 33.7999 21.1186 33.8783 20.9213 33.8783ZM17.7734 28.9339L20.9213 32.0819L24.0692 28.9339L20.9213 25.786L17.7734 28.9339ZM8.72101 33.8007C8.53067 33.8007 8.34004 33.7281 8.19495 33.5829L3.99464 29.3826C3.70401 29.0919 3.70401 28.6208 3.99464 28.3303L8.19495 24.13C8.48529 23.8395 8.95673 23.8395 9.24707 24.13L13.4474 28.3303C13.738 28.6209 13.738 29.0921 13.4474 29.3826L9.24707 33.5829C9.10183 33.7281 8.91134 33.8007 8.72101 33.8007ZM5.57298 28.8565L8.72086 32.0044L11.8687 28.8565L8.72086 25.7086L5.57298 28.8565ZM39.1832 27.8941C38.9928 27.8941 38.8022 27.8215 38.6571 27.6763L34.4568 23.476C34.1662 23.1853 34.1662 22.7142 34.4568 22.4237L38.6571 18.2234C38.7967 18.0838 38.9858 18.0055 39.1832 18.0055C39.3805 18.0055 39.5698 18.0839 39.7092 18.2234L43.9095 22.4237C44.2002 22.7143 44.2002 23.1855 43.9095 23.476L39.7092 27.6763C39.564 27.8215 39.3735 27.8941 39.1832 27.8941ZM36.0351 22.9497L39.183 26.0976L42.3309 22.9497L39.183 19.8017L36.0351 22.9497ZM26.9827 27.8167C26.7854 27.8167 26.5961 27.7383 26.4566 27.5989L22.2563 23.3986C21.9657 23.1079 21.9657 22.6368 22.2563 22.3463L26.4566 18.146C26.5962 18.0064 26.7854 17.9281 26.9827 17.9281C27.18 17.9281 27.3693 18.0066 27.5088 18.146L31.7091 22.3463C31.9997 22.6369 31.9997 23.1081 31.7091 23.3986L27.5088 27.5989C27.3693 27.7383 27.1802 27.8167 26.9827 27.8167ZM23.8348 22.8724L26.9827 26.0202L30.1306 22.8724L26.9827 19.7243L23.8348 22.8724ZM14.7824 27.7394C14.5921 27.7394 14.4014 27.6667 14.2563 27.5215L10.056 23.3212C9.76539 23.0306 9.76539 22.5594 10.056 22.2689L14.2563 18.0686C14.3959 17.929 14.5851 17.8507 14.7824 17.8507C14.9797 17.8507 15.169 17.9292 15.3085 18.0686L19.5088 22.2689C19.7994 22.5596 19.7994 23.0307 19.5088 23.3212L15.3085 27.5215C15.1634 27.6667 14.9727 27.7394 14.7824 27.7394ZM11.6345 22.795L14.7824 25.9429L17.9303 22.795L14.7824 19.6469L11.6345 22.795ZM45.2445 21.8327C45.0542 21.8327 44.8636 21.7601 44.7185 21.6149L40.5182 17.4146C40.2275 17.1239 40.2275 16.6528 40.5182 16.3623L44.7185 12.162C44.8581 12.0224 45.0472 11.9441 45.2445 11.9441C45.4419 11.9441 45.6312 12.0226 45.7706 12.162L49.9709 16.3623C50.2615 16.6529 50.2615 17.1241 49.9709 17.4146L45.7706 21.6149C45.6255 21.76 45.435 21.8327 45.2445 21.8327ZM42.0967 16.8884L45.2445 20.0362L48.3924 16.8884L45.2445 13.7403L42.0967 16.8884ZM33.0442 21.7554C32.8469 21.7554 32.6576 21.6769 32.5182 21.5375L28.3179 17.3372C28.0272 17.0466 28.0272 16.5754 28.3179 16.2849L32.5182 12.0846C32.6578 11.945 32.8469 11.8667 33.0442 11.8667C33.2416 11.8667 33.4309 11.9452 33.5703 12.0846L37.7706 16.2849C38.0612 16.5756 38.0612 17.0467 37.7706 17.3372L33.5703 21.5375C33.4307 21.6769 33.2416 21.7554 33.0442 21.7554ZM29.8964 16.811L33.0442 19.959L36.1921 16.811L33.0442 13.6631L29.8964 16.811ZM20.8438 21.678C20.6465 21.678 20.4572 21.5995 20.3177 21.4601L16.1174 17.2598C15.8268 16.9692 15.8268 16.498 16.1174 16.2075L20.3177 12.0072C20.6081 11.7167 21.0795 11.7167 21.3698 12.0072L25.5701 16.2075C25.8608 16.4982 25.8608 16.9693 25.5701 17.2598L21.3698 21.4601C21.2304 21.5995 21.0413 21.678 20.8438 21.678ZM17.6959 16.7334L20.8438 19.8815L23.9917 16.7334L20.8438 13.5856L17.6959 16.7334ZM51.3061 15.7712C51.1087 15.7712 50.9195 15.6928 50.78 15.5533L46.5797 11.353C46.2891 11.0624 46.2891 10.5913 46.5797 10.3008L50.78 6.10046C51.0704 5.80997 51.5418 5.80997 51.8321 6.10046L56.0324 10.3008C56.3231 10.5914 56.3231 11.0625 56.0324 11.353L51.8321 15.5533C51.6926 15.6928 51.5034 15.7712 51.3061 15.7712ZM48.158 10.8268L51.3059 13.9749L54.4538 10.8268L51.3059 7.67894L48.158 10.8268ZM26.9053 15.6164C26.715 15.6164 26.5243 15.5438 26.3793 15.3986L22.179 11.1983C21.8883 10.9076 21.8883 10.4365 22.179 10.146L26.3793 5.94569C26.6696 5.6552 27.141 5.6552 27.4314 5.94569L31.6318 10.146C31.7714 10.2856 31.8498 10.4747 31.8498 10.6722C31.8498 10.8697 31.7716 11.0588 31.6318 11.1984L27.4314 15.3987C27.2861 15.5438 27.0957 15.6164 26.9053 15.6164ZM23.7574 10.6721L26.9053 13.8201L30.0534 10.6721L26.9053 7.52402L23.7574 10.6721Z" fill="black"/>
</svg>
