<svg width="44" height="60" viewBox="0 0 44 60" fill="none" xmlns="http://www.w3.org/2000/svg">
<path d="M32.9062 6.97451C30.2766 6.68317 28.7739 6.22705 27.1838 5.74529C25.246 5.15812 23.2279 4.55467 19.1799 4.22794V2.43797H19.1488C19.1566 2.38655 19.1799 2.34308 19.1799 2.28923C19.1799 -0.762913 9.89925 -0.762913 9.89925 2.28923C9.89925 2.3754 9.93067 2.44964 9.94657 2.53107V4.32783C6.94739 5.3488 7.09011 8.60239 7.21449 10.8398C7.26835 11.7584 7.31503 12.625 7.19295 13.2429C6.75607 15.4557 2.09143 26.0844 0.331345 29.9926L0.25415 47.4413C0.25415 52.1662 3.6352 59.9999 7.23167 59.9999H34.1331C41.3422 59.9999 43.7456 49.5921 43.7456 46.798V21.6634C43.745 8.7496 33.0469 6.99489 32.9062 6.97451ZM14.5997 1.29762C14.7035 1.29762 14.805 1.29877 14.9068 1.30416C16.2381 1.3684 17.2099 1.79464 17.7099 2.17933C17.172 2.59557 16.0878 3.06476 14.5997 3.06476C13.1101 3.06476 12.0284 2.59557 11.4869 2.17933C12.0284 1.76617 13.11 1.29762 14.5997 1.29762ZM41.9777 46.798C41.9777 49.5551 39.6198 58.2328 34.1331 58.2328H7.23103C5.29899 58.2328 2.02142 52.0998 2.02142 47.4419V30.5455C2.78747 28.8396 8.39049 16.3099 8.92855 13.5845C9.09345 12.7494 9.03959 11.7735 8.98189 10.7397C8.84725 8.36439 8.91816 6.94219 9.929 6.2527C10.0724 7.67759 12.3049 8.32464 14.5404 8.32464C16.7679 8.32464 18.9912 7.68131 19.1494 6.2686H19.1806V6.00432C22.9454 6.31515 24.8473 6.88526 26.6702 7.43665C28.2681 7.91995 29.9187 8.42082 32.6777 8.72665C33.0571 8.78281 41.9782 10.2523 41.9782 21.6626V46.7978H41.9777V46.798ZM34.7268 12.5092C31.7465 10.1235 29.5838 10.056 28.7936 11.7755C28.0479 13.3967 28.9253 16.0996 30.2366 17.6293C30.9684 18.4234 33.9177 23.2605 35.7873 26.4123C36.5677 27.4151 37.2678 27.8813 37.9836 27.8813C38.402 27.8813 38.7849 27.7152 39.089 27.4013C39.8304 26.6386 39.8975 25.1727 39.8723 24.3961C39.8712 17.4667 34.9901 12.756 34.7268 12.5092ZM37.8898 26.0531C37.7646 25.9741 37.5456 25.7976 37.2453 25.4194C36.7754 24.624 32.6299 17.617 31.5586 16.4551C30.5352 15.2609 30.06 13.256 30.4023 12.5139C30.4603 12.3829 30.5189 12.3277 30.7183 12.3277C31.0043 12.3277 31.8601 12.4798 33.5645 13.8401C33.6112 13.8832 38.1039 18.2181 38.1039 24.4242C38.132 25.2731 37.9973 25.8171 37.8898 26.0531ZM22.464 24.531C22.3207 24.4359 22.1511 24.3856 21.9793 24.3856H13.5832C13.313 24.3856 13.0559 24.5101 12.8869 24.7247L8.02619 30.9106C7.90412 31.0668 7.83615 31.2584 7.83615 31.4565V50.9017C7.83615 51.3889 8.232 51.7845 8.71979 51.7845H28.3125C28.8013 51.7845 29.1959 51.3889 29.1959 50.9017V31.4565C29.1959 31.1596 29.0487 30.882 28.7996 30.7174L22.464 24.531ZM27.4291 50.0177H9.60278V31.7622L14.0126 26.1537H21.7143L27.4286 31.9327V50.0176H27.4291V50.0177ZM32.9315 27.5221C33.1541 27.9572 32.9769 28.4892 32.5424 28.7098C32.4144 28.7735 32.2774 28.8047 32.145 28.8047C31.8214 28.8047 31.5102 28.6263 31.3551 28.3193C31.3037 28.2159 25.9952 17.9364 17.2613 16.4171C16.7789 16.334 16.4567 15.8768 16.5411 15.395C16.6258 14.9132 17.089 14.5769 17.5627 14.6768C27.1814 16.3465 32.7004 27.0667 32.9315 27.5221ZM33.0271 44.7996H39.8748V45.2665H33.0271V44.7996ZM33.0271 39.3849H39.8748V39.8511H33.0271V39.3849ZM33.0271 43.927H39.8748V44.1604H33.0271V43.927ZM33.0271 38.9586H39.8748V39.1914H33.0271V38.9586ZM33.0271 40.3556H39.8748V40.5878H33.0271V40.3556ZM33.0271 41.4998H39.8748V41.7344H33.0271V41.4998ZM33.0271 42.8809H39.8748V43.3454H33.0271V42.8809ZM33.0271 40.8414H39.8748V41.3065H33.0271V40.8414ZM33.0271 42.4907H39.8748V42.7241H33.0271V42.4907ZM33.0271 38.3376H39.8748V38.5685H33.0271V38.3376ZM33.0271 37.2902H39.8748V37.7534H33.0271V37.2902ZM33.0271 36.9012H39.8748V37.1345H33.0271V36.9012ZM19.188 36.6557C19.188 37.7534 18.8815 38.9216 18.2747 40.1597C17.6664 41.3979 16.9058 42.416 15.9934 43.2125C15.0814 44.0073 14.2205 44.4047 13.4153 44.4047C12.7884 44.4047 12.2716 44.1407 11.8653 43.6106C11.4584 43.0834 11.2536 42.4029 11.2536 41.5686C11.2536 40.6836 11.4302 39.7852 11.7851 38.8773C12.1419 37.9694 12.6039 37.1597 13.1732 36.4465C13.7442 35.7354 14.1966 35.2884 14.5312 35.1058C14.8663 34.9233 15.3562 34.8311 16.0013 34.8311V34.9358C14.9968 35.8928 14.2682 36.9131 13.8131 37.9951C13.3583 39.0783 13.1309 40.1208 13.1309 41.1251C13.1309 41.7689 13.2577 42.2764 13.5144 42.65C13.7712 43.0221 14.1165 43.2088 14.5516 43.2088C15.4247 43.2088 16.3347 42.444 17.2779 40.918C18.2246 39.3907 18.6971 37.9729 18.6971 36.6694C18.6971 36.2818 18.6361 35.9729 18.5093 35.7425C18.3836 35.5151 18.2181 35.3988 18.0111 35.3988C17.6292 35.3988 17.2744 35.6891 16.9458 36.2654C16.6193 36.8436 16.4563 37.3565 16.4563 37.807C16.4563 38.1278 16.6044 38.3098 16.9049 38.3493C17.0287 38.3613 17.0913 38.4217 17.0913 38.5271C17.0913 38.7204 16.9914 38.9119 16.7915 39.0986C16.5929 39.2865 16.3846 39.3798 16.1683 39.3798C15.9022 39.3798 15.6805 39.2612 15.5021 39.0195C15.322 38.7795 15.2331 38.479 15.2331 38.1182C15.2331 37.3552 15.5213 36.6161 16.0946 35.9016C16.6703 35.1888 17.2565 34.8315 17.8579 34.8315C18.2678 34.8315 18.5901 34.9944 18.8279 35.318C19.0677 35.6408 19.188 36.0886 19.188 36.6557ZM21.2411 36.3194C21.4787 36.3194 21.7148 36.2327 21.9482 36.0609C21.9482 37.1189 21.5577 37.648 20.7777 37.648C20.3998 37.648 20.0754 37.5331 19.8063 37.3033C20.0612 36.9173 20.26 36.4804 20.3998 35.9951C20.7477 36.21 21.0277 36.3194 21.2411 36.3194ZM21.3378 42.3826C21.3378 42.513 21.3692 42.6152 21.3832 42.7379C21.3428 42.7703 21.2914 42.8241 21.2564 42.8486C21.0827 42.9749 20.9108 43.0366 20.7383 43.0366C20.6417 43.0366 20.5599 42.9917 20.4957 42.9013C20.4313 42.8103 20.399 42.6924 20.399 42.5482C20.399 42.1814 20.5381 41.5703 20.8101 40.7158L21.472 38.6462H21.3922L19.7119 38.9968C19.077 40.6593 18.7589 41.9593 18.7589 42.8989C18.7589 43.3351 18.8577 43.6984 19.0518 43.9863C19.2454 44.274 19.4851 44.4189 19.7652 44.4189C20.1781 44.4189 20.7646 44.0496 21.5129 43.3488C21.5815 43.5319 21.6563 43.7115 21.7697 43.8562C22.0589 44.2225 22.4388 44.4057 22.9094 44.4057C23.3193 44.4057 23.7513 44.2747 24.2008 44.0126C24.6533 43.7498 25.1812 43.3428 25.7784 42.7922V42.0327C25.2297 42.5745 24.818 42.9323 24.5492 43.1046C24.2798 43.2757 24.0273 43.3619 23.7903 43.3619C23.5533 43.3619 23.3678 43.25 23.2266 43.0256C23.0849 42.7992 23.0159 42.4953 23.0159 42.1123C23.0159 41.94 23.0327 41.6264 23.0674 41.1667C23.9494 40.2098 24.597 39.3102 25.0111 38.4678C25.4264 37.6275 25.633 36.756 25.633 35.8584C25.633 35.54 25.594 35.288 25.5127 35.1002C25.4296 34.914 25.3266 34.8188 25.1985 34.8188C25.1692 34.8188 25.1328 34.8291 25.0777 34.8458L23.4002 35.467C22.8269 36.5598 22.3403 37.7544 21.9393 39.0506C21.5376 40.3454 21.3378 41.4567 21.3378 42.3826ZM24.1628 36.797C24.4728 35.9843 24.7122 35.5786 24.8731 35.5786C24.9498 35.5786 25.0113 35.629 25.0593 35.727C25.1065 35.8252 25.1329 35.958 25.1329 36.1232C25.1329 36.6785 24.9563 37.3416 24.6092 38.1149C24.2621 38.8863 23.8084 39.5835 23.2483 40.2071C23.5481 38.7443 23.8516 37.6092 24.1628 36.797Z" fill="black"/>
</svg>
