<svg width="32" height="54" viewBox="0 0 32 54" fill="none" xmlns="http://www.w3.org/2000/svg">
<path d="M27.3527 25.1617V22.7273H28.5192V14.2825H27.1947C26.4651 10.2406 23.2432 7.05612 19.1817 6.38414V0.00195312H9.3376V6.38414C5.27615 7.05602 2.05417 10.2406 1.32448 14.2826H0V22.7274H1.16646V44.8885H0V53.3333H28.5193V44.8885H27.3528V42.4542V25.1617H27.3527ZM12.8158 3.48018H15.7033V6.25102H12.8158V3.48018ZM10.9371 9.72925H17.5821C20.4486 9.72925 22.8736 11.6561 23.63 14.2825H4.88906C5.64552 11.6561 8.07052 9.72925 10.9371 9.72925ZM25.041 49.8551H3.47823V48.3668H25.041V49.8551ZM23.8745 25.1617H12.5204V42.4542H23.8745V44.8885H4.64469V22.7273H23.8745V25.1617ZM23.8745 28.64V38.9758H15.9986V28.64H23.8745ZM25.041 19.249H3.47823V17.7608H25.041V19.249Z" fill="black"/>
<path d="M24.0671 5.01754C24.5906 5.01754 25.015 4.59314 25.015 4.06962C25.015 3.5461 24.5906 3.1217 24.0671 3.1217C23.5435 3.1217 23.1191 3.5461 23.1191 4.06962C23.1191 4.59314 23.5435 5.01754 24.0671 5.01754Z" fill="black"/>
<path d="M30.3095 1.89583C30.833 1.89583 31.2574 1.47144 31.2574 0.947917C31.2574 0.424397 30.833 0 30.3095 0C29.786 0 29.3616 0.424397 29.3616 0.947917C29.3616 1.47144 29.786 1.89583 30.3095 1.89583Z" fill="black"/>
<path d="M30.3095 8.13863C30.833 8.13863 31.2574 7.71423 31.2574 7.19071C31.2574 6.66719 30.833 6.2428 30.3095 6.2428C29.786 6.2428 29.3616 6.66719 29.3616 7.19071C29.3616 7.71423 29.786 8.13863 30.3095 8.13863Z" fill="black"/>
<path d="M30.3095 5.01754C30.833 5.01754 31.2574 4.59314 31.2574 4.06962C31.2574 3.5461 30.833 3.1217 30.3095 3.1217C29.786 3.1217 29.3616 3.5461 29.3616 4.06962C29.3616 4.59314 29.786 5.01754 30.3095 5.01754Z" fill="black"/>
<path d="M27.1881 6.57821C27.7117 6.57821 28.1361 6.15381 28.1361 5.63029C28.1361 5.10677 27.7117 4.68237 27.1881 4.68237C26.6646 4.68237 26.2402 5.10677 26.2402 5.63029C26.2402 6.15381 26.6646 6.57821 27.1881 6.57821Z" fill="black"/>
<path d="M27.1881 3.45662C27.7117 3.45662 28.1361 3.03223 28.1361 2.50871C28.1361 1.98519 27.7117 1.56079 27.1881 1.56079C26.6646 1.56079 26.2402 1.98519 26.2402 2.50871C26.2402 3.03223 26.6646 3.45662 27.1881 3.45662Z" fill="black"/>
</svg>
