<svg width="28" height="28" viewBox="0 0 28 28" fill="none" xmlns="http://www.w3.org/2000/svg">
<path fill-rule="evenodd" clip-rule="evenodd" d="M24.6416 3.15818C23.2747 1.79135 21.0587 1.79134 19.6919 3.15818L17.7321 5.11795L8.50841 14.3416C8.35889 14.4911 8.25283 14.6785 8.20154 14.8836L7.03488 19.5503C6.93548 19.9479 7.05197 20.3684 7.34175 20.6581C7.63152 20.9479 8.05209 21.0645 8.44967 20.9651L13.1163 19.7984C13.3215 19.7471 13.5088 19.641 13.6583 19.4915L22.8149 10.335L24.8418 8.3081C26.2086 6.94127 26.2086 4.72518 24.8418 3.35835L24.6416 3.15818ZM21.3418 4.8081C21.7973 4.35249 22.5361 4.35249 22.9917 4.8081L23.1919 5.00826C23.6474 5.46388 23.6474 6.20258 23.1919 6.65818L22.0059 7.84413L20.1913 5.95857L21.3418 4.8081ZM18.5411 7.60879L20.3557 9.49434L12.237 17.6131L9.77014 18.2298L10.3868 15.763L18.5411 7.60879ZM4.66671 9.33322C4.66671 8.6889 5.18905 8.16656 5.83337 8.16656H11.6667C12.3111 8.16656 12.8334 7.64423 12.8334 6.99989C12.8334 6.35556 12.3111 5.83322 11.6667 5.83322H5.83337C3.90038 5.83322 2.33337 7.40023 2.33337 9.33322V22.1665C2.33337 24.0996 3.90038 25.6665 5.83337 25.6665H18.6667C20.5998 25.6665 22.1667 24.0996 22.1667 22.1665V16.3332C22.1667 15.6889 21.6444 15.1665 21 15.1665C20.3557 15.1665 19.8334 15.6889 19.8334 16.3332V22.1665C19.8334 22.8109 19.3111 23.3332 18.6667 23.3332H5.83337C5.18905 23.3332 4.66671 22.8109 4.66671 22.1665V9.33322Z" fill="black"/>
</svg>
