<svg width="38" height="68" viewBox="0 0 38 68" fill="none" xmlns="http://www.w3.org/2000/svg">
<path d="M32.3656 18.3251H30.6144V9.75739L30.5219 9.66482C30.5112 9.69214 30.4885 9.71035 30.4748 9.73615C30.1926 9.21261 29.4778 8.79682 28.5051 8.48422V2.17453L28.3716 2.04099C27.672 1.08346 24.2425 1 23.1074 1C21.9724 1 18.5429 1.08498 17.8433 2.04099L17.7098 2.17605V2.95148H14.0799L13.6505 3.38245V6.37189L14.0799 6.80285H17.7098V8.48271C17.0026 8.70881 16.4351 8.99106 16.0663 9.32946H16.0299L15.6005 9.76042V18.3281H14.2408C11.6854 18.3281 9.60641 20.4071 9.60641 22.9625V28.4604C6.55475 29.7335 3.68367 32.7913 2.1237 36.8687C0.674504 40.6594 0.624427 44.6822 1.98864 47.6322C2.85209 49.5018 4.21631 50.8114 5.92803 51.4153C6.61697 51.6596 7.33322 51.775 8.05857 51.775C8.56997 51.775 9.08743 51.7158 9.60641 51.6035V59.156C9.60641 63.8101 13.8402 67.5962 19.0451 67.5962H27.5613C32.7662 67.5962 37 63.8086 37 59.156V29.0188V28.1933V22.958C37 20.404 34.9211 18.3251 32.3656 18.3251ZM17.7082 5.94092H14.5094V3.81189H17.7082V5.94092ZM23.1074 1.86041C25.4626 1.86041 26.9634 2.17453 27.4899 2.40519C26.9634 2.63736 25.4626 2.94996 23.1074 2.94996C20.7523 2.94996 19.2515 2.63585 18.725 2.40519C19.2515 2.17301 20.7523 1.86041 23.1074 1.86041ZM18.5671 6.37189V3.38245V3.25498C19.8464 3.75878 22.203 3.81189 23.1059 3.81189C24.0088 3.81189 26.3655 3.75727 27.6447 3.25498V8.81503C27.2714 9.01382 25.7251 9.32794 23.1059 9.32794C20.4868 9.32794 18.942 9.01382 18.5671 8.81503V6.37189ZM17.8888 9.33249C18.602 10.0654 21.3608 10.1884 23.1074 10.1884C24.8556 10.1884 27.6235 10.0639 28.3306 9.32794C29.2472 9.64358 29.7555 9.99563 29.7555 10.2445C29.7555 10.7999 27.408 11.8788 23.1074 11.8788C18.8069 11.8788 16.4594 10.7999 16.4594 10.2445C16.4594 9.99715 16.9692 9.64661 17.8888 9.33249ZM16.4594 11.4646C17.7841 12.3037 20.4534 12.7408 23.1074 12.7408C25.7615 12.7408 28.4308 12.3052 29.7555 11.4646V17.19C29.1743 17.4783 27.103 17.8183 24.0331 17.8714C24.0316 17.8592 24.0407 17.8471 24.0377 17.8349C24.3108 17.5178 24.5566 16.8896 24.7585 16.3797C24.8268 16.2067 24.8875 16.0504 24.9375 15.9366C25.2759 15.1824 25.2668 14.4601 24.9148 13.9532C24.6978 13.6406 24.37 13.4767 24.0619 13.542C23.8844 13.5799 23.7539 13.6907 23.672 13.7681C23.3123 14.1065 23.1833 14.9062 23.153 15.6847C22.8146 14.7954 22.4519 14.0625 21.8601 14.1414C21.2637 14.2355 21.0179 14.5466 20.9162 14.7894C20.6734 15.3766 21.0331 16.0777 21.1362 16.2203C21.5035 16.7272 22.4868 17.4495 23.1848 17.882C19.2788 17.8774 16.7811 17.407 16.5595 17.1354C16.5595 17.0504 16.5185 16.9821 16.4594 16.9305V11.4646ZM23.8465 18.4586C23.8571 18.4541 23.8586 18.4435 23.8677 18.4374C25.3488 18.4161 28.3807 18.3039 29.754 17.7727V24.0824C29.7131 24.436 27.6053 25.3677 23.1059 25.3677C22.3654 25.3677 21.7129 25.3359 21.0998 25.2919C20.64 22.612 19.7341 20.1051 23.8465 18.4586ZM23.5384 17.4465L23.6659 17.404C23.6431 17.4359 23.6234 17.4632 23.6006 17.4844C23.5794 17.4723 23.5597 17.4601 23.5384 17.4465ZM24.0574 14.1748C24.1105 14.1232 24.153 14.0944 24.1833 14.0883C24.1879 14.0868 24.194 14.0868 24.2 14.0868C24.2638 14.0868 24.373 14.152 24.4565 14.2719C24.7934 14.7575 24.5491 15.4388 24.4277 15.7074C24.3745 15.8273 24.3093 15.9927 24.2365 16.1763C24.1105 16.498 23.9375 16.9412 23.7691 17.2386C23.6371 16.187 23.6947 14.5147 24.0574 14.1748ZM23.0968 17.1612C22.4944 16.7515 21.8358 16.2279 21.5915 15.8926C21.5232 15.7985 21.3047 15.319 21.4352 15.0048C21.461 14.9441 21.5369 14.759 21.9511 14.6938C21.9542 14.6938 21.9572 14.6938 21.9618 14.6938C22.1317 14.6938 22.4398 15.322 22.8783 16.5603C22.9557 16.7818 23.0285 16.9867 23.0968 17.1612ZM16.4594 17.6589C17.6597 18.2811 20.9481 18.4116 22.549 18.4359C21.206 19.1172 20.1332 20.0505 19.9253 21.744C19.7826 22.9124 20.1559 24.0323 20.3836 25.1583C20.3881 25.1826 20.3927 25.2069 20.3972 25.2327C17.7644 24.9641 16.4912 24.3541 16.4594 24.0809V17.6589ZM14.2408 19.615H15.6005V24.0809C15.6005 25.304 18.1529 25.8761 20.552 26.1022C20.7736 27.5468 20.7341 28.9338 19.5535 30.1341C19.159 30.5363 18.6946 30.814 18.1999 31.0052C17.3471 29.644 16.1984 28.6546 14.7962 28.1599C13.5519 27.7213 12.2225 27.7077 10.8978 28.0339V22.9595H10.8963C10.8963 21.1157 12.3971 19.615 14.2408 19.615ZM6.21635 50.6019C4.7277 50.0754 3.53496 48.9236 2.77015 47.268C1.50153 44.5244 1.5592 40.7504 2.92797 37.1722C4.8749 32.0811 8.93871 28.6561 12.6368 28.6561C13.2757 28.6561 13.9039 28.7578 14.5064 28.9718C15.6505 29.3754 16.6141 30.1569 17.3486 31.2449C16.772 31.3405 16.1741 31.3239 15.5898 31.2222C15.5853 31.0659 15.5519 30.9111 15.4806 30.7639C15.2014 30.1888 14.4927 29.9323 13.8872 30.1964C13.5913 30.3269 13.3667 30.5636 13.2575 30.861C13.1528 31.1493 13.1664 31.4619 13.3015 31.7412C13.5063 32.163 13.9449 32.4119 14.3986 32.4119C14.564 32.4119 14.734 32.3785 14.8933 32.3087C15.1422 32.1994 15.3197 32.0067 15.4426 31.7776C16.1892 31.9187 16.9343 31.9081 17.64 31.7594C17.7431 31.943 17.8615 32.1099 17.9526 32.3087C19.2212 35.0523 19.162 38.8263 17.7947 42.403C15.5124 48.3712 10.3151 52.0511 6.21635 50.6019ZM14.5989 31.556C14.737 31.6015 14.8766 31.6273 15.0162 31.6638C14.9404 31.767 14.8478 31.858 14.7234 31.9126C14.3303 32.0841 13.8705 31.9233 13.6915 31.5515C13.6065 31.38 13.5974 31.1873 13.6626 31.0082C13.7309 30.8216 13.8736 30.6729 14.0617 30.5894C14.168 30.5423 14.2787 30.5211 14.388 30.5211C14.6809 30.5211 14.9631 30.6804 15.0936 30.9505C15.1209 31.0052 15.127 31.0644 15.1391 31.1235C15.0086 31.0902 14.8766 31.0598 14.7476 31.0173C14.4047 30.9035 14.2575 31.4437 14.5989 31.556ZM13.6505 49.6323V64.4702C11.9737 63.1591 10.8963 61.2729 10.8963 59.153V51.1922C11.9722 50.7749 13.0283 50.1482 14.0162 49.3182C13.8918 49.4198 13.781 49.5382 13.6505 49.6323ZM32.2973 64.9482C30.9589 65.7935 29.3306 66.3033 27.5613 66.3033H19.0451C17.3668 66.3033 15.8068 65.8542 14.5094 65.0878V48.8963C14.3956 49.0207 14.2575 49.1118 14.1315 49.2195C15.9738 47.6353 17.5717 45.3939 18.599 42.708C19.7857 39.6048 20.0179 36.3528 19.3198 33.6547H32.2973V64.9482ZM35.7101 59.153C35.7101 61.1909 34.7207 63.021 33.1562 64.3245V33.5743C34.1532 33.4013 35.0394 32.9142 35.7101 32.2116V59.153ZM35.7101 28.2631V29.0188C35.7101 30.8625 34.2094 32.3633 32.3656 32.3633H18.8964C18.8403 32.2252 18.7963 32.0796 18.7356 31.946C18.6612 31.7852 18.5626 31.6516 18.4806 31.4999C19.3198 31.1509 20.0619 30.5606 20.6006 29.6728C21.2986 28.5195 21.3548 27.3314 21.2243 26.1599C21.9086 26.2069 22.5596 26.2281 23.1074 26.2281C25.7039 26.2281 30.6144 25.7805 30.6144 24.0824V19.6165H32.3656C34.2094 19.6165 35.7101 21.1157 35.7101 22.961V28.2631Z" fill="black" stroke="black" stroke-width="0.6"/>
</svg>
