<svg width="317" height="100" viewBox="0 0 317 100" fill="none" xmlns="http://www.w3.org/2000/svg">
<path d="M13.79 62.245C11.48 62.245 9.35667 61.7083 7.42 60.635C5.48333 59.5383 3.94333 58.0333 2.8 56.12C1.68 54.1833 1.12 52.0017 1.12 49.575C1.12 47.1483 1.68 44.9783 2.8 43.065C3.94333 41.1283 5.48333 39.6233 7.42 38.55C9.35667 37.4767 11.48 36.94 13.79 36.94C16.1233 36.94 18.2467 37.4767 20.16 38.55C22.0967 39.6233 23.625 41.1283 24.745 43.065C25.865 44.9783 26.425 47.1483 26.425 49.575C26.425 52.0017 25.865 54.1833 24.745 56.12C23.625 58.0333 22.0967 59.5383 20.16 60.635C18.2233 61.7083 16.1 62.245 13.79 62.245ZM13.79 55.875C15.54 55.875 16.9167 55.3033 17.92 54.16C18.9467 53.0167 19.46 51.4883 19.46 49.575C19.46 47.615 18.9467 46.075 17.92 44.955C16.9167 43.8117 15.54 43.24 13.79 43.24C12.0167 43.24 10.6283 43.8117 9.625 44.955C8.62167 46.075 8.12 47.615 8.12 49.575C8.12 51.5117 8.62167 53.0517 9.625 54.195C10.6283 55.315 12.0167 55.875 13.79 55.875ZM36.3688 45.095C36.9055 44.185 37.6638 43.4617 38.6438 42.925C39.6238 42.3883 40.7788 42.12 42.1088 42.12C43.6722 42.12 45.0838 42.5283 46.3438 43.345C47.6272 44.1617 48.6305 45.3283 49.3538 46.845C50.1005 48.3617 50.4738 50.135 50.4738 52.165C50.4738 54.195 50.1005 55.98 49.3538 57.52C48.6305 59.0367 47.6272 60.2033 46.3438 61.02C45.0838 61.8367 43.6722 62.245 42.1088 62.245C40.7788 62.245 39.6238 61.9767 38.6438 61.44C37.6872 60.9033 36.9288 60.18 36.3688 59.27V71.38H29.5088V42.365H36.3688V45.095ZM43.5088 52.165C43.5088 50.8817 43.1588 49.89 42.4588 49.19C41.7822 48.4667 40.9422 48.105 39.9388 48.105C38.9355 48.105 38.0838 48.4667 37.3838 49.19C36.7072 49.9133 36.3688 50.905 36.3688 52.165C36.3688 53.4483 36.7072 54.4517 37.3838 55.175C38.0838 55.8983 38.9355 56.26 39.9388 56.26C40.9422 56.26 41.7822 55.8983 42.4588 55.175C43.1588 54.4283 43.5088 53.425 43.5088 52.165ZM64.8829 56.155V62H61.9079C56.8912 62 54.3829 59.515 54.3829 54.545V48.07H51.9679V42.365H54.3829V37.605H61.2779V42.365H64.8479V48.07H61.2779V54.65C61.2779 55.1867 61.3946 55.5717 61.6279 55.805C61.8846 56.0383 62.3046 56.155 62.8879 56.155H64.8829ZM71.4943 40.545C70.281 40.545 69.301 40.2183 68.5543 39.565C67.831 38.8883 67.4693 38.0483 67.4693 37.045C67.4693 36.0183 67.831 35.1667 68.5543 34.49C69.301 33.8133 70.281 33.475 71.4943 33.475C72.6843 33.475 73.641 33.8133 74.3643 34.49C75.111 35.1667 75.4843 36.0183 75.4843 37.045C75.4843 38.0483 75.111 38.8883 74.3643 39.565C73.641 40.2183 72.6843 40.545 71.4943 40.545ZM74.8893 42.365V62H68.0293V42.365H74.8893ZM93.9509 47.02V52.725H78.0959V47.02H93.9509ZM108.34 62.245C105.47 62.245 103.114 61.5683 101.27 60.215C99.427 58.8383 98.4353 56.8783 98.2953 54.335H105.61C105.68 55.1983 105.937 55.8283 106.38 56.225C106.824 56.6217 107.395 56.82 108.095 56.82C108.725 56.82 109.239 56.6683 109.635 56.365C110.055 56.0383 110.265 55.595 110.265 55.035C110.265 54.3117 109.927 53.7517 109.25 53.355C108.574 52.9583 107.477 52.515 105.96 52.025C104.35 51.4883 103.044 50.975 102.04 50.485C101.06 49.9717 100.197 49.2367 99.4503 48.28C98.727 47.3 98.3653 46.0283 98.3653 44.465C98.3653 42.8783 98.762 41.525 99.5553 40.405C100.349 39.2617 101.445 38.3983 102.845 37.815C104.245 37.2317 105.832 36.94 107.605 36.94C110.475 36.94 112.762 37.6167 114.465 38.97C116.192 40.3 117.114 42.1783 117.23 44.605H109.775C109.752 43.8583 109.519 43.2983 109.075 42.925C108.655 42.5517 108.107 42.365 107.43 42.365C106.917 42.365 106.497 42.5167 106.17 42.82C105.844 43.1233 105.68 43.555 105.68 44.115C105.68 44.5817 105.855 44.99 106.205 45.34C106.579 45.6667 107.034 45.9583 107.57 46.215C108.107 46.4483 108.9 46.7517 109.95 47.125C111.514 47.6617 112.797 48.1983 113.8 48.735C114.827 49.2483 115.702 49.9833 116.425 50.94C117.172 51.8733 117.545 53.0633 117.545 54.51C117.545 55.98 117.172 57.2983 116.425 58.465C115.702 59.6317 114.64 60.5533 113.24 61.23C111.864 61.9067 110.23 62.245 108.34 62.245ZM132.319 56.155V62H129.344C124.328 62 121.819 59.515 121.819 54.545V48.07H119.404V42.365H121.819V37.605H128.714V42.365H132.284V48.07H128.714V54.65C128.714 55.1867 128.831 55.5717 129.064 55.805C129.321 56.0383 129.741 56.155 130.324 56.155H132.319ZM144.601 62.245C142.641 62.245 140.879 61.8367 139.316 61.02C137.776 60.2033 136.563 59.0367 135.676 57.52C134.789 56.0033 134.346 54.2183 134.346 52.165C134.346 50.135 134.789 48.3617 135.676 46.845C136.586 45.3283 137.811 44.1617 139.351 43.345C140.914 42.5283 142.676 42.12 144.636 42.12C146.596 42.12 148.346 42.5283 149.886 43.345C151.449 44.1617 152.674 45.3283 153.561 46.845C154.471 48.3617 154.926 50.135 154.926 52.165C154.926 54.195 154.471 55.98 153.561 57.52C152.674 59.0367 151.449 60.2033 149.886 61.02C148.323 61.8367 146.561 62.245 144.601 62.245ZM144.601 56.295C145.558 56.295 146.351 55.945 146.981 55.245C147.634 54.5217 147.961 53.495 147.961 52.165C147.961 50.835 147.634 49.82 146.981 49.12C146.351 48.42 145.569 48.07 144.636 48.07C143.703 48.07 142.921 48.42 142.291 49.12C141.661 49.82 141.346 50.835 141.346 52.165C141.346 53.5183 141.649 54.545 142.256 55.245C142.863 55.945 143.644 56.295 144.601 56.295ZM164.577 45.83C165.347 44.71 166.28 43.8233 167.377 43.17C168.474 42.5167 169.652 42.19 170.912 42.19V49.505H168.987C167.494 49.505 166.385 49.7967 165.662 50.38C164.939 50.9633 164.577 51.9783 164.577 53.425V62H157.717V42.365H164.577V45.83ZM192.131 51.955C192.131 52.4917 192.096 53.0283 192.026 53.565H179.041C179.111 54.6383 179.403 55.4433 179.916 55.98C180.453 56.4933 181.129 56.75 181.946 56.75C183.089 56.75 183.906 56.2367 184.396 55.21H191.711C191.408 56.5633 190.813 57.7767 189.926 58.85C189.063 59.9 187.966 60.7283 186.636 61.335C185.306 61.9417 183.836 62.245 182.226 62.245C180.289 62.245 178.563 61.8367 177.046 61.02C175.553 60.2033 174.374 59.0367 173.511 57.52C172.671 56.0033 172.251 54.2183 172.251 52.165C172.251 50.1117 172.671 48.3383 173.511 46.845C174.351 45.3283 175.518 44.1617 177.011 43.345C178.528 42.5283 180.266 42.12 182.226 42.12C184.163 42.12 185.878 42.5167 187.371 43.31C188.864 44.1033 190.031 45.2467 190.871 46.74C191.711 48.21 192.131 49.9483 192.131 51.955ZM185.131 50.24C185.131 49.4 184.851 48.7467 184.291 48.28C183.731 47.79 183.031 47.545 182.191 47.545C181.351 47.545 180.663 47.7783 180.126 48.245C179.589 48.6883 179.239 49.3533 179.076 50.24H185.131Z" fill="#032FA8"/>
<g clip-path="url(#clip0_453_531)">
<path d="M237.165 27.3145V64.8145H287.577H291.455H309.293V64.0332H312.395V46.8457H309.293V28.877H291.455V23.5254" fill="#75BBA7"/>
<path d="M292.23 28.877V65.3613H313.946C313.946 65.1074 313.946 65.127 313.946 65.127V51.5332L309.293 35.9082H292.23" fill="#75BBA7"/>
<path d="M313.947 67.0215H292.231C291.319 67.0215 290.583 66.2793 290.583 65.3613V28.877C290.583 27.959 291.319 27.2168 292.231 27.2168C293.142 27.2168 293.879 27.959 293.879 28.877V34.248H309.293C310.03 34.248 310.67 34.7363 310.864 35.4395L315.517 51.0645C315.556 51.2207 315.595 51.377 315.595 51.5332V65.127C315.595 65.2051 315.595 65.3027 315.595 65.4004C315.575 66.2988 314.839 67.0215 313.947 67.0215ZM312.764 66.2988C312.919 66.4746 313.132 66.6113 313.365 66.6895C313.132 66.5918 312.938 66.4551 312.764 66.2988ZM312.299 65.3027C312.318 65.4785 312.357 65.6348 312.434 65.8105C312.376 65.6543 312.318 65.4785 312.299 65.3027ZM293.879 63.7012H312.299V51.7871L308.072 37.5879H293.879V63.7012Z" fill="#032FA8"/>
<path opacity="0.5" d="M272.589 86.709C293.01 86.709 309.565 82.5729 309.565 77.4707C309.565 72.3685 293.01 68.2324 272.589 68.2324C252.168 68.2324 235.614 72.3685 235.614 77.4707C235.614 82.5729 252.168 86.709 272.589 86.709Z" fill="#B8CBCD"/>
<path d="M244.145 67.9395H240.267C237.281 67.9395 234.838 65.4785 234.838 62.4707V27.3145C234.838 26.0254 235.885 24.9707 237.165 24.9707C238.445 24.9707 239.492 26.0254 239.492 27.3145V62.4707C239.492 62.9004 239.841 63.252 240.267 63.252H244.145C245.425 63.252 246.472 64.3066 246.472 65.5957C246.472 66.8848 245.425 67.9395 244.145 67.9395Z" fill="#032FA8"/>
<path d="M313.947 67.9395H299.812V63.252H311.62V50.3418L305.28 30.4395H292.618V25.752H306.966C307.975 25.752 308.867 26.416 309.177 27.373L316.157 49.248C316.235 49.4824 316.273 49.7168 316.273 49.9707V65.5957C316.273 66.8848 315.226 67.9395 313.947 67.9395Z" fill="#032FA8"/>
<path d="M283.699 63.252H260.432V67.9395H283.699V63.252Z" fill="#032FA8"/>
<path d="M230.96 46.8457H219.327C218.047 46.8457 217 45.791 217 44.502C217 43.2129 218.047 42.1582 219.327 42.1582H230.96C232.24 42.1582 233.287 43.2129 233.287 44.502C233.287 45.791 232.24 46.8457 230.96 46.8457Z" fill="#032FA8"/>
<path d="M230.96 36.6895H223.282C222.002 36.6895 220.955 35.6348 220.955 34.3457C220.955 33.0566 222.002 32.002 223.282 32.002H230.96C232.24 32.002 233.287 33.0566 233.287 34.3457C233.287 35.6348 232.24 36.6895 230.96 36.6895Z" fill="#032FA8"/>
<path d="M230.96 57.002H223.282C222.002 57.002 220.955 55.9473 220.955 54.6582C220.955 53.3691 222.002 52.3145 223.282 52.3145H230.96C232.24 52.3145 233.287 53.3691 233.287 54.6582C233.287 55.9473 232.24 57.002 230.96 57.002Z" fill="#032FA8"/>
<path d="M258.668 43.3887C255.313 43.3887 252.579 40.6348 252.579 37.2559C252.579 33.877 255.313 31.123 258.668 31.123C262.022 31.123 264.756 33.877 264.756 37.2559C264.756 40.6348 262.022 43.3887 258.668 43.3887ZM258.668 34.4434C257.136 34.4434 255.876 35.7129 255.876 37.2559C255.876 38.7988 257.136 40.0684 258.668 40.0684C260.199 40.0684 261.46 38.7988 261.46 37.2559C261.46 35.7129 260.199 34.4434 258.668 34.4434Z" fill="#645244"/>
<path d="M270.728 55.5371C267.374 55.5371 264.64 52.7832 264.64 49.4043C264.64 46.0254 267.374 43.2715 270.728 43.2715C274.082 43.2715 276.816 46.0254 276.816 49.4043C276.816 52.7832 274.082 55.5371 270.728 55.5371ZM270.728 46.5918C269.196 46.5918 267.936 47.8613 267.936 49.4043C267.936 50.9473 269.196 52.2168 270.728 52.2168C272.26 52.2168 273.52 50.9473 273.52 49.4043C273.52 47.8613 272.26 46.5918 270.728 46.5918Z" fill="#645244"/>
<path d="M255.488 54.2676C255.061 54.2676 254.635 54.1113 254.324 53.7793C253.685 53.1348 253.685 52.0801 254.324 51.4355L272.725 32.9004C273.365 32.2559 274.412 32.2559 275.052 32.9004C275.691 33.5449 275.691 34.5996 275.052 35.2441L256.651 53.7793C256.341 54.0918 255.914 54.2676 255.488 54.2676Z" fill="#645244"/>
<path d="M253.607 74.3457C258.361 74.3457 262.216 70.4632 262.216 65.6738C262.216 60.8845 258.361 57.002 253.607 57.002C248.852 57.002 244.998 60.8845 244.998 65.6738C244.998 70.4632 248.852 74.3457 253.607 74.3457Z" fill="white"/>
<path d="M253.607 76.0254C247.945 76.0254 243.35 71.377 243.35 65.6934C243.35 60.0098 247.965 55.3613 253.607 55.3613C259.269 55.3613 263.864 60.0098 263.864 65.6934C263.864 71.377 259.269 76.0254 253.607 76.0254ZM253.607 58.6621C249.768 58.6621 246.646 61.8066 246.646 65.6738C246.646 69.541 249.768 72.6855 253.607 72.6855C257.446 72.6855 260.568 69.541 260.568 65.6738C260.568 61.8066 257.466 58.6621 253.607 58.6621Z" fill="#032FA8"/>
<path d="M262.759 65.5957C262.759 70.8301 258.803 74.6777 253.626 74.6777C248.43 74.6777 244.145 70.8301 244.145 65.5957" fill="white"/>
<path d="M253.607 77.002C246.995 77.002 241.799 71.9824 241.799 65.5762V63.2324H246.452V65.5762C246.452 69.3457 249.593 72.3145 253.607 72.3145C257.562 72.3145 260.413 69.4824 260.413 65.5762V63.2324H265.066V65.5762C265.085 72.0996 260.161 77.002 253.607 77.002Z" fill="#032FA8"/>
<path d="M253.607 68.877C255.363 68.877 256.787 67.4429 256.787 65.6738C256.787 63.9048 255.363 62.4707 253.607 62.4707C251.851 62.4707 250.427 63.9048 250.427 65.6738C250.427 67.4429 251.851 68.877 253.607 68.877Z" fill="#032FA8"/>
<path d="M291.61 74.3457C296.365 74.3457 300.219 70.4632 300.219 65.6738C300.219 60.8845 296.365 57.002 291.61 57.002C286.856 57.002 283.001 60.8845 283.001 65.6738C283.001 70.4632 286.856 74.3457 291.61 74.3457Z" fill="white"/>
<path d="M291.61 76.0254C285.948 76.0254 281.353 71.377 281.353 65.6934C281.353 60.0098 285.968 55.3613 291.61 55.3613C297.252 55.3613 301.867 60.0098 301.867 65.6934C301.867 71.377 297.272 76.0254 291.61 76.0254ZM291.61 58.6621C287.771 58.6621 284.649 61.8066 284.649 65.6738C284.649 69.541 287.771 72.6855 291.61 72.6855C295.449 72.6855 298.571 69.541 298.571 65.6738C298.571 61.8066 295.468 58.6621 291.61 58.6621Z" fill="#032FA8"/>
<path d="M300.762 65.5957C300.762 70.8301 296.807 74.6777 291.63 74.6777C286.433 74.6777 282.148 70.8301 282.148 65.5957" fill="white"/>
<path d="M291.61 77.002C284.998 77.002 279.802 71.9824 279.802 65.5762V63.2324H284.455V65.5762C284.455 69.3457 287.597 72.3145 291.61 72.3145C295.566 72.3145 298.416 69.4824 298.416 65.5762V63.2324H303.069V65.5762C303.089 72.0996 298.164 77.002 291.61 77.002Z" fill="#032FA8"/>
<path d="M291.61 68.877C293.366 68.877 294.79 67.4429 294.79 65.6738C294.79 63.9048 293.366 62.4707 291.61 62.4707C289.854 62.4707 288.43 63.9048 288.43 65.6738C288.43 67.4429 289.854 68.877 291.61 68.877Z" fill="#032FA8"/>
<path d="M292.23 27.3145L288.508 17.0996C288.217 16.2988 287.267 15.6348 286.414 15.6348H243.447C242.594 15.6348 241.624 16.2793 241.314 17.0801L237.165 27.3145" fill="#75BBA7"/>
<path d="M292.231 29.6582C291.28 29.6582 290.389 29.0723 290.04 28.1152L286.336 17.9785L286.317 17.959H243.525C243.505 17.9785 243.466 17.998 243.447 18.0176L239.317 28.1934C238.832 29.3848 237.475 29.9707 236.292 29.4824C235.11 28.9941 234.528 27.627 235.013 26.4355L239.162 16.2012C239.841 14.5215 241.644 13.291 243.447 13.291H286.414C288.256 13.291 290.04 14.5605 290.679 16.2988L294.402 26.5137C294.848 27.7246 294.228 29.0723 293.026 29.5215C292.773 29.6191 292.502 29.6582 292.231 29.6582Z" fill="#032FA8"/>
<path d="M290.679 29.7559H237.165C236.254 29.7559 235.517 29.0137 235.517 28.0957C235.517 27.1777 236.254 26.4355 237.165 26.4355H290.679C291.591 26.4355 292.328 27.1777 292.328 28.0957C292.328 29.0137 291.591 29.7559 290.679 29.7559Z" fill="#032FA8"/>
</g>
<defs>
<clipPath id="clip0_453_531">
<rect width="99.2733" height="100" fill="white" transform="translate(217)"/>
</clipPath>
</defs>
</svg>
