<svg width="42" height="54" viewBox="0 0 42 54" fill="none" xmlns="http://www.w3.org/2000/svg">
<path d="M40.7162 44.7581C40.3328 44.4239 40.1125 43.9331 40.1125 43.4119V18.8466C40.1125 18.8278 40.1167 18.8086 40.1171 18.7898C40.1495 18.7261 40.172 18.6572 40.172 18.5808C40.172 18.5372 40.1584 18.4978 40.1471 18.458C40.2137 18.0773 40.3768 17.6855 40.6426 17.2697C41.0364 16.6542 41.2445 15.9408 41.2445 15.2058V14.2847C41.2445 11.5163 39.0939 9.24516 36.376 9.04219C36.294 8.57531 36.2406 8.11453 36.219 7.66453C37.6314 7.52766 38.739 6.33469 38.739 4.88766V3.54094C38.739 2.00203 37.487 0.75 35.9481 0.75H6.05214C4.51323 0.75 3.2612 2.00203 3.2612 3.54094V4.88766C3.2612 6.33516 4.36886 7.52812 5.7812 7.66453C5.76011 8.11266 5.70714 8.57156 5.62558 9.03656C2.85526 9.18469 0.645108 11.4783 0.645108 14.2852V15.2063C0.645108 16.0411 0.905732 16.8338 1.39933 17.498C1.80339 18.0422 1.88823 18.713 1.88823 19.1803V43.4119C1.88823 43.9331 1.66792 44.4234 1.28448 44.7577C0.525577 45.4186 0.0905762 46.3692 0.0905762 47.3653V49.388C0.0905762 51.517 1.82308 53.2495 3.95214 53.2495H38.0485C40.1776 53.2495 41.9101 51.517 41.9101 49.388V47.3653C41.9101 46.3692 41.4746 45.4186 40.7162 44.7581ZM2.81683 19.05H39.175V41.4197H2.82573V19.1803C2.82573 19.1353 2.81776 19.0941 2.81683 19.05ZM4.1987 4.88766V3.54094C4.1987 2.51906 5.03026 1.6875 6.05214 1.6875H35.9476C36.9695 1.6875 37.801 2.51906 37.801 3.54094V4.88766C37.801 5.90953 36.9695 6.74109 35.9476 6.74109H35.761C35.7526 6.74063 35.7456 6.73641 35.7371 6.73641C35.7287 6.73641 35.7217 6.74063 35.7132 6.74109H6.28651C6.27808 6.74063 6.27105 6.73641 6.26261 6.73641C6.25417 6.73641 6.24714 6.74063 6.2387 6.74109H6.05214C5.03026 6.74063 4.1987 5.90953 4.1987 4.88766ZM1.58261 15.2058V14.2847C1.58261 11.8997 3.52323 9.95953 5.90823 9.95953H6.01933C6.07886 9.95953 6.13604 9.94641 6.18948 9.92531C6.20823 9.91781 6.22323 9.90609 6.24105 9.89672C6.27339 9.87891 6.30433 9.86016 6.33151 9.83578C6.34839 9.82078 6.36151 9.80344 6.37558 9.78562C6.39714 9.75937 6.41636 9.73266 6.4323 9.70172C6.44355 9.67969 6.45151 9.65766 6.45901 9.63422C6.46464 9.61781 6.47448 9.60375 6.47823 9.58641C6.6123 8.94047 6.69151 8.30109 6.71917 7.67859H35.282C35.3096 8.30109 35.3884 8.94 35.5229 9.58641C35.5267 9.60375 35.5365 9.61781 35.5421 9.63422C35.5496 9.65766 35.5581 9.67969 35.5689 9.70172C35.5848 9.73266 35.6035 9.75937 35.6256 9.78562C35.6401 9.80297 35.6532 9.82031 35.6696 9.83578C35.6973 9.86062 35.7278 9.87938 35.7601 9.89672C35.7775 9.90609 35.7929 9.91828 35.8117 9.92531C35.8651 9.94641 35.9218 9.95953 35.9814 9.95953C38.3664 9.95953 40.3075 11.8997 40.3075 14.2847V15.2058C40.3075 15.7613 40.1504 16.3003 39.8532 16.7648C39.564 17.2172 39.377 17.6677 39.2725 18.112H2.68839C2.57683 17.6742 2.40151 17.2748 2.15214 16.9387C1.77948 16.4372 1.58261 15.8381 1.58261 15.2058ZM40.9726 49.3884C40.9726 51.0009 39.661 52.3125 38.0485 52.3125H3.95167C2.33917 52.3125 1.02761 51.0009 1.02761 49.3884V47.3658C1.02761 46.6406 1.34542 45.9478 1.89995 45.465C2.48823 44.9527 2.82573 44.2045 2.82573 43.4123V42.3577H39.175V43.4123C39.175 44.2045 39.5125 44.9531 40.1007 45.4655C40.6553 45.9478 40.9731 46.6406 40.9731 47.3662L40.9726 49.3884Z" fill="black"/>
<path d="M18.4146 35.0606C18.9696 35.0606 19.5199 35.0063 20.0496 34.8989C20.7101 34.7658 21.3274 34.8609 21.7873 35.1675C22.7023 35.7783 23.869 36.1149 25.0727 36.1149C27.9316 36.1149 30.258 34.237 30.258 31.9284C30.258 29.6259 27.9321 27.7533 25.0727 27.7533C24.9096 27.7533 24.7633 27.7584 24.6298 27.7683C23.6416 25.7138 21.1976 24.3577 18.4141 24.3577C14.7349 24.3577 11.7419 26.7586 11.7419 29.7094C11.7419 32.6602 14.7354 35.0606 18.4146 35.0606ZM18.4146 25.2952C20.9248 25.2952 23.1818 26.5913 23.9037 28.4475C23.9857 28.658 24.2041 28.7784 24.4277 28.7381C24.5974 28.7063 24.8027 28.6908 25.0727 28.6908C27.4151 28.6908 29.3205 30.1434 29.3205 31.9284C29.3205 33.72 27.4151 35.1774 25.0727 35.1774C24.0523 35.1774 23.0702 34.897 22.3076 34.388C21.8276 34.0678 21.2449 33.9028 20.6196 33.9028C20.373 33.9028 20.1199 33.9286 19.8635 33.9806C19.3948 34.0753 18.9073 34.1236 18.4146 34.1236C15.2524 34.1236 12.6799 32.1436 12.6799 29.7094C12.6799 27.2752 15.2524 25.2952 18.4146 25.2952Z" fill="black"/>
<path d="M21.0002 39.7936C28.4486 39.7936 34.5081 35.5065 34.5081 30.2363C34.5081 24.9661 28.4486 20.679 21.0002 20.679C13.5517 20.679 7.49219 24.9661 7.49219 30.2363C7.49219 35.5065 13.5517 39.7936 21.0002 39.7936ZM21.0002 21.6165C27.9316 21.6165 33.5706 25.4836 33.5706 30.2363C33.5706 34.989 27.9316 38.8561 21.0002 38.8561C14.0688 38.8561 8.42969 34.989 8.42969 30.2363C8.42969 25.4836 14.0688 21.6165 21.0002 21.6165Z" fill="black"/>
<path d="M14.5547 29.5111C14.6279 29.5528 14.708 29.573 14.7868 29.573C14.9494 29.573 15.1079 29.4881 15.1941 29.3367C15.2494 29.2402 16.5736 26.9827 18.9915 28.0669C19.2277 28.1733 19.5052 28.0674 19.6111 27.8311C19.7171 27.5949 19.6111 27.3174 19.3754 27.2114C16.8282 26.07 14.994 27.7978 14.3808 28.8717C14.2519 29.0967 14.3297 29.3827 14.5547 29.5111Z" fill="black"/>
<path d="M23.7076 33.3923C24.0522 33.5686 24.5706 33.7242 25.1505 33.7242C26.0355 33.7242 27.0634 33.3619 27.8331 32.1562C27.9723 31.9383 27.9086 31.6486 27.6901 31.5089C27.4722 31.3697 27.1825 31.4339 27.0428 31.6519C25.9337 33.389 24.3142 32.6475 24.1328 32.557C23.9017 32.4403 23.6209 32.5317 23.5037 32.7619C23.3861 32.992 23.4775 33.2747 23.7076 33.3923Z" fill="black"/>
<path d="M3.64641 15.007C3.67501 15.0122 3.70313 15.0145 3.73079 15.0145C3.95297 15.0145 4.15032 14.8561 4.19157 14.6297C4.49719 12.9455 6.02719 12.675 6.09282 12.6642C6.34735 12.6239 6.52172 12.3853 6.48282 12.1303C6.44391 11.8744 6.20579 11.6995 5.94844 11.738C5.17126 11.8566 3.61125 12.5789 3.26954 14.4623C3.22266 14.7169 3.39141 14.9606 3.64641 15.007Z" fill="black"/>
<path d="M4.38161 46.531C4.54005 46.328 4.50583 46.035 4.3038 45.8752C4.10083 45.7144 3.80599 45.7486 3.64521 45.9511C3.58568 46.0266 2.20099 47.8219 3.59786 50.4666C3.68177 50.626 3.84443 50.7164 4.01271 50.7164C4.0863 50.7164 4.1613 50.6991 4.23114 50.6621C4.46036 50.5411 4.54755 50.2575 4.42661 50.0288C3.32739 47.9461 4.33614 46.59 4.38161 46.531Z" fill="black"/>
</svg>
