<svg width="60" height="60" viewBox="0 0 60 60" fill="none" xmlns="http://www.w3.org/2000/svg">
<path d="M56.9482 0.331751L42.2897 9.89519L42.0279 9.63339C40.4919 8.09718 38.0049 8.09671 36.4686 9.63339L33.4524 12.6494C31.305 11.6215 28.5893 11.9536 26.7402 13.8028L1.72415 38.8189C-0.574717 41.1178 -0.574717 44.8587 1.72415 47.1575L12.8424 58.2758C15.1412 60.5744 18.8822 60.5747 21.1811 58.2758L46.197 33.2597C48.0459 31.4109 48.3785 28.6952 47.3504 26.5473L50.3665 23.5312C51.9028 21.9949 51.9029 19.5083 50.3665 17.972L50.1045 17.7101L59.6681 3.05167C60.8258 1.27769 58.7206 -0.825007 56.9482 0.331751ZM25.3504 48.5474L19.7914 42.9881L30.9097 31.8698L36.4688 37.4291L25.3504 48.5474ZM43.4176 30.4801L39.2482 34.6495L32.2993 27.7007C31.5318 26.9331 30.2873 26.9331 29.5197 27.7007L15.622 41.5983C14.8544 42.3659 14.8544 43.6103 15.622 44.3778L22.5709 51.3267L18.4015 55.4961C17.635 56.2625 16.3882 56.2625 15.6218 55.4961L4.50349 44.3778C3.7372 43.6114 3.7372 42.3646 4.50349 41.5983L29.5196 16.5821C30.2879 15.8139 31.5309 15.8139 32.2991 16.5821L43.4175 27.7005C44.1859 28.4688 44.1859 29.7118 43.4176 30.4801ZM44.8074 23.5312C43.9252 22.6492 37.3522 16.0761 36.4687 15.1925L39.2484 12.413L47.5871 20.7517L44.8074 23.5312ZM47.2643 14.8698L45.1302 12.7356L51.2702 8.72964L47.2643 14.8698Z" fill="black" stroke="black" stroke-width="0.125"/>
</svg>
