<svg width="28" height="60" viewBox="0 0 28 60" fill="none" xmlns="http://www.w3.org/2000/svg">
<path fill-rule="evenodd" clip-rule="evenodd" d="M6.66113 0H21.3291C21.9541 0 22.5254 0.253906 22.9404 0.668945C23.3506 1.0791 23.6094 1.65039 23.6094 2.28027V5.69336C23.6094 6.31836 23.3555 6.88965 22.9404 7.2998C22.5303 7.70996 21.959 7.96875 21.3291 7.96875H21.0508C22.9111 11.1475 24.3711 14.4238 25.4209 17.793C26.5879 21.5186 27.2617 25.3613 27.4521 29.3262C27.4521 29.3408 27.4521 29.3506 27.4521 29.3652V53.2666C27.4521 53.3008 27.4521 53.335 27.4473 53.3691C27.3643 55.1562 26.9248 56.6504 26.0459 57.7881C25.1328 58.9697 23.7852 59.7314 21.9248 59.9951C21.8857 60 21.8467 60.0049 21.8027 60.0049H6.34863C6.31445 60.0049 6.28027 60.0049 6.24609 60C4.53711 59.9268 3.24805 59.3457 2.30078 58.3447C1.37305 57.3584 0.816406 55.9961 0.547852 54.3262C0.542969 54.2822 0.538086 54.2383 0.538086 54.1943H0.533203V29.4385C0.533203 29.3994 0.533203 29.3652 0.538086 29.3311C0.875 25.0586 1.6123 21.0986 2.68164 17.4658C3.70703 13.9893 5.03516 10.8154 6.60742 7.96875C6.00195 7.9541 5.45508 7.70019 5.05469 7.2998C4.64453 6.88965 4.38574 6.31836 4.38574 5.68848V2.27539C4.38574 1.65039 4.63965 1.0791 5.05469 0.664062C5.46484 0.253906 6.03613 0 6.66113 0ZM2.2373 33.4863H25.7578V29.3604C25.5723 25.5615 24.9229 21.875 23.7998 18.2959C22.7207 14.8486 21.207 11.5039 19.2539 8.27148L8.3457 8.34961C6.71973 11.2109 5.34766 14.4189 4.30762 17.9492C3.27246 21.4648 2.55469 25.3076 2.23242 29.4531V33.4863H2.2373ZM25.7578 43.6572H2.2373V54.1309C2.45703 55.4248 2.87207 56.46 3.53613 57.168C4.17578 57.8467 5.0791 58.2422 6.30957 58.291C6.31934 58.291 6.33398 58.291 6.34375 58.291H21.7588C23.1162 58.0859 24.0781 57.5488 24.708 56.7383C25.3574 55.8935 25.6895 54.7266 25.7529 53.2861V53.2568V43.6572H25.7578ZM21.3291 1.7041H6.66113C6.50488 1.7041 6.36328 1.76758 6.25586 1.875C6.15332 1.97754 6.08496 2.12402 6.08496 2.28027V5.69336C6.08496 5.84961 6.14844 5.99121 6.25586 6.09863C6.3584 6.20117 6.50488 6.26953 6.66113 6.26953H21.3291C21.4854 6.26953 21.627 6.20605 21.7344 6.09863C21.8369 5.99609 21.9053 5.84961 21.9053 5.69336V2.27539C21.9053 2.11914 21.8418 1.97754 21.7344 1.87012C21.6318 1.76758 21.4854 1.7041 21.3291 1.7041ZM11.1973 35.4541V41.6894H9.69824L9.69336 37.4805L9.09766 41.6894H8.04785L7.41797 37.5732L7.41309 41.6894H5.91406V35.4541H8.13086C8.19434 35.8301 8.2627 36.2744 8.33594 36.7822L8.58008 38.3643L8.9707 35.4541H11.1973ZM13.751 35.4541V41.6894H12.0322V35.4541H13.751ZM16.2998 35.4541V40.4443H17.335V41.6894H14.5859V35.4541H16.2998ZM21.9932 35.4541L21.0117 38.2715L22.0811 41.6894H20.3135L19.6152 39.0186V41.6894H17.8965V35.4541H19.6152V37.876L20.3867 35.4541H21.9932Z" fill="black"/>
</svg>
