<svg width="15" height="15" viewBox="0 0 15 15" fill="none" xmlns="http://www.w3.org/2000/svg">
<g clip-path="url(#clip0_370_302)">
<path d="M12.7385 9.56579H2.60853C1.57528 9.56579 0.734741 8.71705 0.734741 7.6734C0.734741 6.62974 1.57528 5.78101 2.60853 5.78101H12.7382C13.7718 5.78101 14.6123 6.62974 14.6123 7.6734C14.6123 8.71705 13.7718 9.56579 12.7385 9.56579ZM2.60853 6.4118C1.93483 6.4118 1.36554 6.98961 1.36554 7.6734C1.36554 8.35718 1.93483 8.93499 2.60853 8.93499H12.7382C13.4122 8.93499 13.9815 8.35718 13.9815 7.6734C13.9815 6.98961 13.4122 6.4118 12.7385 6.4118H2.60853Z" fill="black"/>
</g>
<defs>
<clipPath id="clip0_370_302">
<rect width="13.8776" height="13.8776" fill="white" transform="translate(0.734741 0.734619)"/>
</clipPath>
</defs>
</svg>
