<svg width="60" height="56" viewBox="0 0 60 56" fill="none" xmlns="http://www.w3.org/2000/svg">
<path d="M36.3295 26.5202C35.8694 26.5202 35.4092 26.3456 35.0568 25.9962C34.3482 25.2932 34.3435 24.149 35.0461 23.4402L56.9096 1.39599C57.6126 0.687237 58.7569 0.682901 59.4655 1.38532C60.1742 2.08833 60.1789 3.23255 59.4762 3.9413L37.6128 25.9857C37.2595 26.3417 36.7945 26.5202 36.3295 26.5202Z" fill="black" stroke="black" stroke-width="0.00064"/>
<path d="M25.4859 26.5202C25.026 26.5202 24.5659 26.3456 24.2133 25.9962C23.5046 25.2932 23.4999 24.1489 24.2028 23.4402L46.0661 1.39599C46.7692 0.687237 47.9135 0.682901 48.6221 1.38532C49.3308 2.08833 49.3354 3.23255 48.6328 3.9413L26.7691 25.9857C26.4158 26.3417 25.951 26.5202 25.4859 26.5202Z" fill="black" stroke="black" stroke-width="0.00064"/>
<path d="M50.566 24.3468V27.6925C50.566 40.8213 39.8244 47.9479 26.6958 47.9479C13.5671 47.9479 2.82568 40.821 2.82568 27.6925V24.3468H50.566Z" fill="black" stroke="black" stroke-width="0.00064"/>
<path d="M26.6957 49.7551C19.6614 49.7551 13.2761 47.7684 8.716 44.1608C3.67998 40.1766 1.01807 34.4819 1.01807 27.6924V24.3467C1.01807 23.3487 1.82713 22.5394 2.82533 22.5394H50.5659C51.5638 22.5394 52.3731 23.3487 52.3731 24.3467V27.6924C52.3731 34.4819 49.7112 40.1766 44.6752 44.1606C40.1153 47.7683 33.73 49.7551 26.6957 49.7551ZM4.63271 26.1538V27.6924C4.63271 41.309 16.518 46.1405 26.6958 46.1405C36.8737 46.1405 48.759 41.309 48.759 27.6924V26.1538H4.63271Z" fill="black" stroke="black" stroke-width="0.00064"/>
<path d="M1.80727 19.0669C0.809063 19.0669 0 18.2576 0 17.2596C0 11.732 4.49695 7.23479 10.0246 7.23479C10.538 7.23479 11.0469 7.2737 11.5493 7.35069C12.0622 5.66366 13.0164 4.13179 14.3359 2.91151C16.1923 1.19425 18.6084 0.248779 21.1388 0.248779C23.1336 0.248779 25.0596 0.837764 26.6958 1.92983C28.3321 0.837764 30.2578 0.248779 32.2528 0.248779C34.7831 0.248779 37.1991 1.19437 39.0557 2.91151C40.9007 4.61811 42.0316 6.93339 42.24 9.43077C42.3231 10.4255 41.5841 11.2991 40.5894 11.3821C39.5921 11.4681 38.7211 10.726 38.638 9.73147C38.3633 6.44061 35.5587 3.86296 32.2528 3.86296C30.6432 3.86296 29.1039 4.46261 27.9185 5.55187C27.2272 6.1869 26.1646 6.1869 25.4733 5.55187C24.2877 4.46284 22.7486 3.86296 21.139 3.86296C17.8331 3.86296 15.0284 6.44085 14.7537 9.73147C14.7063 10.2975 14.3958 10.8084 13.915 11.1109C13.434 11.4132 12.8389 11.4719 12.3083 11.2696C11.5777 10.9907 10.8094 10.8493 10.0249 10.8493C6.4902 10.8493 3.61441 13.725 3.61441 17.2595C3.61453 18.2578 2.80535 19.0669 1.80727 19.0669Z" fill="black" stroke="black" stroke-width="0.00064"/>
<path d="M51.5841 19.0669C50.5861 19.0669 49.7768 18.2576 49.7768 17.2596C49.7768 15.8202 49.3111 14.4607 48.4301 13.328C47.8172 12.5403 47.9594 11.4046 48.7471 10.7919C49.5347 10.1793 50.6704 10.3212 51.2832 11.1089C52.6622 12.8822 53.3914 15.0089 53.3914 17.2596C53.3914 18.2578 52.5821 19.0669 51.5841 19.0669Z" fill="black" stroke="black" stroke-width="0.00064"/>
<path d="M35.732 55.7511H17.6596C16.6615 55.7511 15.8523 54.9418 15.8523 53.9439C15.8523 52.9459 16.6614 52.1366 17.6596 52.1366H35.732C36.7299 52.1366 37.5392 52.9459 37.5392 53.9439C37.5391 54.9418 36.7299 55.7511 35.732 55.7511Z" fill="black" stroke="black" stroke-width="0.00064"/>
</svg>
