<svg width="32" height="60" viewBox="0 0 32 60" fill="none" xmlns="http://www.w3.org/2000/svg">
<path d="M10.3677 13.1688V17.6621H21.6315V13.1688C21.6315 12.6067 21.1747 12.1509 20.6127 12.1509H11.3865C10.8234 12.1509 10.3677 12.6067 10.3677 13.1688Z" fill="black"/>
<path d="M18.456 8.5553H13.5435V11.4311H18.456V8.5553Z" fill="black"/>
<path d="M6.71662 6.30434C7.13943 5.9359 7.67896 5.73105 8.23912 5.72637L10.3677 5.70562V7.83621H21.6315V2.3966C21.6315 1.07238 20.5583 0 19.2351 0H12.7643C11.441 0 10.3678 1.07238 10.3678 2.3966V3.30914L8.2165 3.32977H8.21568C7.08225 3.34008 5.98924 3.75645 5.13588 4.50258L3.22607 6.16992L4.80318 7.97531L6.71662 6.30434Z" fill="black"/>
<path d="M31.0364 24.706C30.7187 23.9213 30.2403 23.2285 29.7139 22.5773C28.9217 21.6075 28.0045 20.7465 27.2752 20.1084C26.5459 19.473 26.0054 19.068 25.9857 19.0521L25.6004 18.7635H25.1192H6.39886L6.01355 19.0521C5.98261 19.0775 4.74769 20.0003 3.46858 21.2785C2.82851 21.9205 2.17437 22.6469 1.64433 23.4411C1.37937 23.8386 1.14347 24.255 0.962998 24.7051C0.784522 25.1544 0.655733 25.643 0.654795 26.1843C0.653858 26.5434 0.716905 26.9259 0.863389 27.2914C0.928311 27.4503 1.05604 27.8234 1.20651 28.3215C2.28534 31.8467 4.69132 41.9104 4.67995 49.6761C4.68183 51.8387 4.49386 53.8178 4.08042 55.3827L4.08323 55.3836C3.89433 55.9737 3.78253 56.5161 3.78148 57.048C3.7769 57.6495 3.93944 58.2753 4.30038 58.7669C4.5664 59.1353 4.91503 59.4014 5.25148 59.5723C5.76183 59.8299 6.243 59.9125 6.67249 59.9586C7.1028 60.0018 7.49292 59.999 7.8153 59.9998C9.21851 59.9998 15.7652 59.9998 15.7652 59.9998H16.2332C16.237 59.9998 17.8705 59.9998 19.6824 59.9998C21.4944 59.9998 23.4821 59.9998 24.1841 59.9998C24.4698 59.9998 24.811 60.0008 25.1841 59.9716C25.4651 59.9491 25.7659 59.9096 26.0854 59.8241C26.5572 59.6982 27.1146 59.4528 27.5591 58.9426C27.778 58.6917 27.9537 58.3843 28.0618 58.0573C28.1709 57.7312 28.2178 57.3901 28.2178 57.048C28.2159 56.516 28.1041 55.9737 27.9152 55.3836L27.918 55.3827C27.5055 53.8188 27.3166 51.8395 27.3185 49.6778C27.3166 45.2438 28.0928 40.0486 28.9678 35.762C29.4048 33.6181 29.8662 31.6973 30.262 30.2067C30.4592 29.4614 30.6406 28.8233 30.7928 28.3223C30.9442 27.8241 31.072 27.451 31.1369 27.2913C31.2835 26.9248 31.3455 26.5433 31.3455 26.1852C31.3436 25.6439 31.2148 25.1552 31.0364 24.706ZM28.4555 26.2191L28.4565 26.2201C28.3334 26.5284 28.1971 26.9362 28.0307 27.4823C26.8889 31.2642 24.4426 41.3568 24.4313 49.678C24.4331 52.0032 24.6221 54.1948 25.1267 56.1177L25.1381 56.1627L25.1531 56.206C25.2921 56.6195 25.3287 56.8995 25.3298 57.0368C25.2639 57.0547 25.169 57.0744 25.0488 57.0856C24.8166 57.11 24.5102 57.1137 24.1841 57.1128C23.482 57.1128 21.4944 57.1128 19.6824 57.1128C18.7764 57.1128 17.9136 57.1128 17.2784 57.1128C16.6421 57.1128 16.2343 57.1128 16.2334 57.1128H15.7653C15.7653 57.1128 9.21851 57.1128 7.81542 57.1128C7.53066 57.1128 7.26276 57.1119 7.04374 57.0941C6.88401 57.0808 6.75335 57.0593 6.66968 57.0366C6.66874 56.9004 6.70636 56.6193 6.84546 56.2059L6.86058 56.1625L6.87183 56.1175C7.37644 54.1946 7.5664 52.002 7.56722 49.676C7.56534 44.9177 6.7571 39.5918 5.8605 35.1849C5.4112 32.9819 4.93847 31.013 4.52878 29.4662C4.32394 28.6927 4.13409 28.0253 3.96862 27.4822C3.80222 26.937 3.66687 26.5283 3.54382 26.219V26.2181L3.54194 26.1842C3.54019 26.1278 3.56081 25.9812 3.64448 25.7773C3.78452 25.4173 4.10679 24.9089 4.52409 24.4004C5.14823 23.6335 5.96854 22.8535 6.62269 22.284C6.92339 22.0217 7.1819 21.8094 7.38019 21.6506H24.6203C25.0639 22.0078 25.844 22.6619 26.5939 23.425C27.1297 23.9682 27.6438 24.565 27.9868 25.0941C28.1598 25.3573 28.2884 25.6025 28.3637 25.7971C28.4408 25.9917 28.4595 26.1298 28.4586 26.1853L28.4555 26.2191Z" fill="black"/>
<path d="M16.0001 29.3496C13.2765 29.3496 11.0679 32.4736 11.0679 36.3268C11.0679 40.1801 13.2765 43.3041 16.0001 43.3041C18.7237 43.3041 20.9322 40.1801 20.9322 36.3268C20.9322 32.4736 18.7237 29.3496 16.0001 29.3496Z" fill="black"/>
</svg>
