<svg width="60" height="40" viewBox="0 0 60 40" fill="none" xmlns="http://www.w3.org/2000/svg">
<path d="M60 9.73501C60 4.49473 55.7368 0.231567 50.4967 0.231567C45.8555 0.231567 41.983 3.57669 41.1579 7.982H35.9858C34.5953 5.46141 31.9116 3.74989 28.8352 3.74989C25.7587 3.74989 23.0754 5.46153 21.6848 7.982H8.38137C3.75984 7.982 0 11.7418 0 16.3632V31.3873C0 36.0088 3.75984 39.7685 8.38137 39.7685H44.4079C47.7687 39.7685 50.8092 37.7323 52.1203 34.6559C54.9086 33.6118 56.899 30.9209 56.899 27.7727C56.899 24.8825 55.2211 22.378 52.789 21.1791V18.9573C56.9251 17.9288 60 14.1851 60 9.73501ZM40.9976 9.91454C41.013 10.737 41.133 11.534 41.3456 12.2931H36.9867C36.9925 12.1664 36.9964 12.0391 36.9964 11.9109C36.9964 11.2224 36.9097 10.5536 36.7485 9.91454H40.9976ZM28.8352 5.68219C32.2697 5.68219 35.064 8.47641 35.064 11.9109C35.064 15.3455 32.2698 18.1397 28.8352 18.1397C25.4009 18.1397 22.6066 15.3455 22.6066 11.9109C22.6068 8.47653 25.4009 5.68219 28.8352 5.68219ZM39.5572 23.8753C39.5572 25.2922 38.2475 26.7391 35.9639 27.8454C33.4241 29.0757 30.0255 29.7533 26.3946 29.7533C22.7633 29.7533 19.3648 29.0756 16.8248 27.8454C14.5411 26.7391 13.2314 25.2921 13.2314 23.8753C13.2314 21.2199 17.741 18.7377 23.5707 18.1402C24.993 19.344 26.8302 20.0722 28.8352 20.0722C30.4048 20.0722 31.8715 19.6257 33.1173 18.8547C37.0438 19.9366 39.5572 21.8848 39.5572 23.8753ZM22.016 16.3866C15.6221 17.346 11.2991 20.3036 11.2991 23.8751C11.2991 28.2548 17.9299 31.6856 26.3947 31.6856C34.8592 31.6856 41.4898 28.255 41.4898 23.8751C41.4898 21.2078 39.0016 18.8023 34.8863 17.3809C35.6958 16.4863 36.3088 15.4113 36.6604 14.2253H42.1237C43.1036 16.0448 44.6599 17.5086 46.5458 18.3747V21.0709C43.9894 22.2222 42.2043 24.792 42.2043 27.7726C42.2043 30.0643 43.2595 32.114 44.9091 33.4623C44.7458 33.502 44.5784 33.5248 44.4081 33.5248H8.38137C7.20246 33.5248 6.24328 32.5658 6.24328 31.387V16.363C6.24328 15.1842 7.20234 14.2253 8.38137 14.2253H21.0105C21.24 15 21.5812 15.7264 22.016 16.3866ZM44.4079 37.8361H8.38137C4.82543 37.8361 1.93242 34.9431 1.93242 31.3873V16.3632C1.93242 12.8073 4.82543 9.91442 8.38137 9.91442H20.9223C20.7609 10.5537 20.6743 11.2223 20.6743 11.9108C20.6743 12.039 20.6781 12.1663 20.6839 12.293H8.38137C6.13688 12.293 4.31086 14.1189 4.31086 16.3632V31.3873C4.31086 33.6316 6.13688 35.4575 8.38137 35.4575H44.4079C45.3056 35.4575 46.1756 35.1559 46.8813 34.6158C47.7097 34.9402 48.6097 35.1202 49.5517 35.1202C49.5881 35.1202 49.6241 35.1179 49.6605 35.1174C48.467 36.7908 46.5191 37.8361 44.4079 37.8361ZM54.9666 27.7727C54.9666 30.7586 52.5375 33.1876 49.5518 33.1876C46.5657 33.1876 44.1366 30.7586 44.1366 27.7727C44.1366 24.7869 46.5657 22.3579 49.5518 22.3579C52.5375 22.3579 54.9666 24.7869 54.9666 27.7727ZM48.478 20.5047V19.0207C49.1291 19.1622 49.8039 19.2386 50.4968 19.2386C50.6174 19.2386 50.7369 19.2339 50.8564 19.2294V20.5439C50.4327 20.4675 49.9971 20.4256 49.5517 20.4256C49.187 20.4253 48.8287 20.4531 48.478 20.5047ZM50.4968 17.306C46.3221 17.306 42.9255 13.9097 42.9255 9.73489C42.9255 5.5602 46.322 2.16387 50.4968 2.16387C54.6714 2.16387 58.0677 5.5602 58.0677 9.73489C58.0676 13.9097 54.6714 17.306 50.4968 17.306Z" fill="black"/>
</svg>
