<svg width="54" height="53" viewBox="0 0 54 53" fill="none" xmlns="http://www.w3.org/2000/svg">
<path d="M10.2048 0.78357C9.94872 0.783548 9.69937 0.865423 9.49317 1.01723C9.28696 1.16903 9.13472 1.38281 9.05869 1.62732L8.29228 3.98045C7.3855 6.75728 7.69218 9.95267 9.19462 12.2562C10.1858 13.7759 10.4975 16.4174 9.82509 18.4765L9.05869 20.8273C9.00975 20.9772 8.99081 21.1353 9.00296 21.2925C9.01511 21.4497 9.0581 21.603 9.12949 21.7436C9.20087 21.8842 9.29925 22.0093 9.419 22.1119C9.53876 22.2145 9.67754 22.2924 9.82744 22.3414C9.97733 22.3903 10.1354 22.4093 10.2926 22.3971C10.4498 22.385 10.6031 22.342 10.7437 22.2706C10.8843 22.1992 11.0094 22.1008 11.112 21.9811C11.2146 21.8613 11.2926 21.7225 11.3415 21.5726L12.1079 19.2195C13.0147 16.4427 12.708 13.2473 11.2056 10.9437C10.2144 9.42408 9.90267 6.78258 10.5751 4.72341L11.3415 2.37263C11.4034 2.19183 11.4213 1.99885 11.3936 1.80975C11.3659 1.62065 11.2934 1.4409 11.1822 1.28545C11.071 1.13001 10.9243 1.00337 10.7543 0.916076C10.5843 0.82878 10.3959 0.783351 10.2048 0.78357ZM18.6048 0.78357C18.3487 0.783548 18.0994 0.865423 17.8932 1.01723C17.687 1.16903 17.5347 1.38281 17.4587 1.62732L16.6923 3.98045C15.7855 6.75728 16.0922 9.95267 17.5946 12.2562C18.5858 13.7759 18.8975 16.4174 18.2251 18.4765L17.4587 20.8273C17.4097 20.9772 17.3908 21.1353 17.403 21.2925C17.4151 21.4497 17.4581 21.603 17.5295 21.7436C17.6009 21.8842 17.6993 22.0093 17.819 22.1119C17.9388 22.2145 18.0775 22.2924 18.2274 22.3414C18.3773 22.3903 18.5354 22.4093 18.6926 22.3971C18.8498 22.385 19.0031 22.342 19.1437 22.2706C19.2843 22.1992 19.4094 22.1008 19.512 21.9811C19.6146 21.8613 19.6926 21.7225 19.7415 21.5726L20.5079 19.2195C21.4147 16.4427 21.108 13.2473 19.6056 10.9437C18.6144 9.42408 18.3027 6.78258 18.9751 4.72341L19.7415 2.37263C19.8034 2.19183 19.8213 1.99885 19.7936 1.80975C19.7659 1.62065 19.6934 1.4409 19.5822 1.28545C19.471 1.13001 19.3243 1.00337 19.1543 0.916076C18.9843 0.82878 18.7959 0.783351 18.6048 0.78357ZM27.0048 0.78357C26.7487 0.783548 26.4994 0.865423 26.2932 1.01723C26.087 1.16903 25.9347 1.38281 25.8587 1.62732L25.0923 3.98045C24.1855 6.75728 24.4922 9.95267 25.9946 12.2562C26.9858 13.7759 27.2975 16.4174 26.6251 18.4765L25.8587 20.8273C25.8097 20.9772 25.7908 21.1353 25.803 21.2925C25.8151 21.4497 25.8581 21.603 25.9295 21.7436C26.0009 21.8842 26.0992 22.0093 26.219 22.1119C26.3388 22.2145 26.4775 22.2924 26.6274 22.3414C26.7773 22.3903 26.9354 22.4093 27.0926 22.3971C27.2498 22.385 27.4031 22.342 27.5437 22.2706C27.6843 22.1992 27.8094 22.1008 27.912 21.9811C28.0146 21.8613 28.0926 21.7225 28.1415 21.5726L28.9079 19.2195C29.8147 16.4427 29.508 13.2473 28.0056 10.9437C27.0144 9.42408 26.7027 6.78258 27.3751 4.72341L28.1415 2.37263C28.2034 2.19183 28.2213 1.99885 28.1936 1.80975C28.1659 1.62065 28.0934 1.4409 27.9822 1.28545C27.871 1.13001 27.7243 1.00337 27.5543 0.916076C27.3843 0.82878 27.1959 0.783351 27.0048 0.78357ZM49.3267 8.00701C49.0558 8.00633 48.7855 8.03268 48.5204 8.08435C47.4602 8.29101 46.4798 8.90904 45.8532 9.88435L45.9517 9.7531L31.029 27.2H1.80009C1.48184 27.2 1.17664 27.3264 0.951599 27.5515C0.726562 27.7765 0.600124 28.0817 0.600092 28.4V32C0.600092 32.2418 0.683055 32.4615 0.693842 32.7008C0.599542 32.9065 0.565348 33.1347 0.595207 33.3591C0.625066 33.5835 0.71776 33.7948 0.862592 33.9687C1.4919 38.9678 4.27216 43.3586 7.94072 46.5547C12.0923 50.1716 17.2158 52.4 21.6001 52.4H32.4001C36.7843 52.4 41.9079 50.1716 46.0595 46.5547C50.2111 42.9377 53.4001 37.84 53.4001 32V28.4C53.4001 28.0817 53.2736 27.7765 53.0486 27.5515C52.8235 27.3264 52.5183 27.2 52.2001 27.2H40.1251L52.4462 14.7172C52.4795 14.6839 52.5108 14.6487 52.5399 14.6117C53.9623 12.7798 53.5624 10.0905 51.6681 8.75232C50.9579 8.25065 50.1391 8.00904 49.3267 8.00701ZM49.3056 10.3929C49.6404 10.3955 49.9815 10.4987 50.2829 10.7117C51.0804 11.275 51.2364 12.3455 50.6485 13.1211L36.7524 27.2H34.1884L47.7751 11.314C47.8101 11.2725 47.8422 11.2287 47.8712 11.1828C48.1374 10.7685 48.5395 10.5084 48.9751 10.4234C49.084 10.4022 49.1939 10.3921 49.3056 10.3929ZM3.00009 29.6H31.411C31.5222 29.6157 31.635 29.6157 31.7462 29.6H37.0852C37.191 29.6141 37.2982 29.6141 37.404 29.6H51.0001V32C51.0001 36.96 48.2505 41.4622 44.4821 44.7453C40.7137 48.0284 35.9358 50 32.4001 50H21.6001C18.0643 50 13.2865 48.0284 9.51806 44.7453C6.37407 42.0062 4.04417 38.3941 3.32353 34.4H46.2001C46.3591 34.4022 46.517 34.3728 46.6645 34.3135C46.8121 34.2543 46.9464 34.1662 47.0597 34.0546C47.1729 33.9429 47.2628 33.8099 47.3242 33.6632C47.3856 33.5164 47.4172 33.359 47.4172 33.2C47.4172 33.0409 47.3856 32.8835 47.3242 32.7368C47.2628 32.5901 47.1729 32.457 47.0597 32.3454C46.9464 32.2337 46.8121 32.1457 46.6645 32.0864C46.517 32.0271 46.3591 31.9977 46.2001 32H3.00009V29.6Z" fill="black"/>
</svg>
