<svg width="32" height="54" viewBox="0 0 32 54" fill="none" xmlns="http://www.w3.org/2000/svg">
<path d="M30.8206 0.132444C30.5699 -0.0254202 30.2557 -0.0432287 29.9889 0.0848777L25.5741 2.20375L21.1592 0.0848777C20.9234 -0.0281777 20.6492 -0.0282926 20.4134 0.0848777L15.9993 2.20375L11.585 0.0848777C11.3492 -0.0282926 11.075 -0.0282926 10.8392 0.0848777L6.42524 2.20375L2.01126 0.0848777C1.74425 -0.0433436 1.43001 -0.0253053 1.17943 0.132329C0.92873 0.290078 0.776611 0.565593 0.776611 0.861673V53.1383C0.776611 53.4345 0.92873 53.7099 1.17943 53.8676C1.43013 54.0252 1.74436 54.0432 2.01126 53.9151L6.42524 51.7962L10.8392 53.9151C11.075 54.0282 11.3492 54.0282 11.585 53.9151L15.9993 51.7962L20.4134 53.9151C20.5313 53.9717 20.6588 54 20.7864 54C20.9139 54 21.0414 53.9717 21.1592 53.9152L25.5741 51.7963L29.9889 53.9152C30.2559 54.0433 30.57 54.0254 30.8206 53.8676C31.0713 53.7099 31.2234 53.4345 31.2234 53.1383V0.861673C31.2234 0.565593 31.0714 0.290078 30.8206 0.132444ZM25.9469 50.0636C25.7113 49.9505 25.437 49.9505 25.2013 50.0636L20.7865 52.1825L16.3724 50.0636C16.2545 50.007 16.127 49.9787 15.9994 49.9787C15.8719 49.9787 15.7444 50.007 15.6265 50.0636L11.2122 52.1825L6.79819 50.0636C6.56242 49.9504 6.28817 49.9504 6.05241 50.0636L2.50002 51.7688V46.5319H26.9149C27.3908 46.5319 27.7766 46.1461 27.7766 45.6702C27.7766 45.1943 27.3908 44.8085 26.9149 44.8085H2.50002V2.23121L6.0523 3.93646C6.28806 4.04963 6.56231 4.04963 6.79807 3.93646L11.2121 1.81759L15.6264 3.93646C15.8621 4.04963 16.1364 4.04963 16.3722 3.93646L20.7863 1.81759L25.201 3.93646C25.4368 4.04951 25.7111 4.04951 25.9467 3.93646L29.5 2.23109V7.46806H5.08512C4.60923 7.46806 4.22342 7.85387 4.22342 8.32976C4.22342 8.80565 4.60923 9.19146 5.08512 9.19146H29.5V51.7688L25.9469 50.0636Z" fill="black"/>
<path d="M14.0911 20.3303C14.6746 20.1817 15.3169 20.1063 15.9999 20.1063C18.268 20.1063 19.9728 20.9255 20.449 22.2444C20.5758 22.5954 20.9068 22.8137 21.2596 22.8137C21.3567 22.8137 21.4556 22.7971 21.5522 22.7622C21.9999 22.6006 22.2317 22.1066 22.0701 21.659C21.3404 19.6384 19.0145 18.3829 15.9999 18.3829C15.1735 18.3829 14.3882 18.4762 13.6658 18.6602C13.2046 18.7776 12.926 19.2466 13.0435 19.7079C13.1609 20.169 13.6298 20.4479 14.0911 20.3303Z" fill="black"/>
<path d="M16.1387 26.1484C12.9206 25.6201 11.4043 25.1495 11.4043 23.1238C11.4043 22.5765 11.5544 22.0898 11.8502 21.6772C12.1277 21.2904 12.039 20.7522 11.6523 20.4747C11.2655 20.1975 10.7271 20.286 10.4498 20.6728C9.93965 21.3841 9.68091 22.2088 9.68091 23.1238C9.68091 26.8346 13.1067 27.397 15.8594 27.849C19.079 28.3775 20.5958 28.8485 20.5958 30.8761C20.5958 33.1033 18.1201 33.8936 16.0001 33.8936C13.7311 33.8936 12.0262 33.0739 11.5506 31.7545C11.3891 31.3069 10.8956 31.0747 10.4477 31.2361C9.99997 31.3975 9.76788 31.8913 9.92931 32.339C10.6583 34.361 12.9844 35.617 16.0001 35.617C19.7797 35.617 22.3192 33.7117 22.3192 30.8761C22.3192 27.1631 18.8923 26.6005 16.1387 26.1484Z" fill="black"/>
</svg>
