<svg width="49" height="51" viewBox="0 0 49 51" fill="none" xmlns="http://www.w3.org/2000/svg">
<path d="M28.5905 0.57605C24.746 0.57605 21.0417 1.72769 18.6877 4.40935C16.961 6.3774 16.2534 8.90858 15.98 11.0234H9.45391L0.67334 19.0934V46.3731C0.67334 48.9404 2.93393 50.9734 5.604 50.9734H28.0443C30.7146 50.9734 32.9733 48.9404 32.9733 46.3731V18.69L23.6565 11.0234H16.8632C17.1336 9.0441 17.7913 6.72067 19.3269 4.97048C21.4676 2.53175 24.916 1.42605 28.5905 1.42605C35.757 1.42605 41.5182 6.69338 41.5182 13.1517V13.1534L41.5613 18.2717C41.3642 18.4548 40.0847 19.6459 38.6876 21.0972C37.9337 21.8804 37.1779 22.708 36.6008 23.4381C36.3122 23.8031 36.069 24.1428 35.8886 24.4524C35.7082 24.7621 35.5725 25.0268 35.5715 25.3522L35.53 37.9246C35.524 39.5208 36.8537 40.8256 38.4701 40.8315L45.3531 40.8548C46.9697 40.8607 48.3098 39.5654 48.3148 37.9677L48.3563 25.3937C48.3574 25.0684 48.2242 24.803 48.0459 24.4923C47.8676 24.1815 47.6264 23.8398 47.3403 23.4729C46.7681 22.7391 46.0187 21.9088 45.2701 21.1205C43.8794 19.656 42.6017 18.4494 42.4113 18.27L42.3682 13.1517C42.3682 6.18858 36.1749 0.57605 28.5905 0.57605ZM10.1163 12.7234H15.8372C15.7982 13.762 15.8374 14.3177 15.8704 14.6857H14.4111V15.5357H18.2428V14.6857H16.727C16.7012 14.3692 16.6634 13.7835 16.7104 12.7234H22.9526L20.5836 17.8234H12.238L10.0067 12.8247L10.1163 12.7234ZM23.6565 13.2248L31.2733 19.4935V37.473C27.501 37.1799 23.5309 35.3355 20.4591 33.8057C16.6117 31.8906 12.7788 30.2142 7.79043 29.8197C5.95671 29.6745 4.14239 29.7055 2.37334 29.8795V19.8405L9.346 13.4306L11.6868 18.6734H21.1265L23.6565 13.2248ZM41.9863 19.0486C42.2345 19.283 43.3207 20.3024 44.6525 21.7049C45.3905 22.482 46.1277 23.3008 46.6696 23.9959C46.9406 24.3434 47.1626 24.6609 47.3088 24.9156C47.4549 25.1703 47.5064 25.3776 47.5063 25.3921L47.4648 37.9644C47.4614 39.0885 46.5194 40.009 45.3564 40.0048L38.4734 39.9815C37.3104 39.9773 36.3758 39.05 36.38 37.9279L36.4215 25.3539C36.4215 25.3393 36.4746 25.1328 36.6224 24.8791C36.7702 24.6254 36.9949 24.31 37.2682 23.9643C37.8147 23.2729 38.557 22.4587 39.3002 21.6866C40.6415 20.2932 41.7366 19.2812 41.9863 19.0486ZM41.9083 22.3523C41.0165 22.3493 40.2711 23.067 40.2681 23.9544C40.265 24.8417 41.0049 25.5617 41.8967 25.5647C42.7884 25.5678 43.5306 24.8517 43.5336 23.9643C43.5366 23.077 42.8 22.3554 41.9083 22.3523ZM41.905 23.2023C42.3474 23.2038 42.685 23.545 42.6836 23.9627C42.6821 24.3804 42.3424 24.7162 41.9 24.7147C41.4576 24.7132 41.1166 24.3737 41.1181 23.956C41.1195 23.5383 41.4626 23.2008 41.905 23.2023ZM6.11699 30.5834C6.65055 30.5967 7.18686 30.6239 7.72402 30.6664C12.5583 31.0487 16.2575 32.663 20.0806 34.5661C23.1821 36.1106 27.2512 38.0348 31.2733 38.328V46.3731C31.2733 47.9317 29.862 49.2734 28.0443 49.2734H5.604C3.78608 49.2734 2.37334 47.9317 2.37334 46.3731V30.7344C3.60194 30.6102 4.85105 30.5518 6.11699 30.5834Z" fill="black"/>
</svg>
