<svg width="34" height="64" viewBox="0 0 34 64" fill="none" xmlns="http://www.w3.org/2000/svg">
<path d="M30.9628 56C29.5762 55.4666 27.9761 55.5734 26.5894 56.32C25.1659 57.0318 22.5684 57.9768 18.8862 57.5925L21.5726 47.0385L21.7894 47.04C22.3228 47.04 22.7494 46.6134 22.856 46.08L28.1894 1.17336C28.1894 0.959987 28.0828 0.639991 27.8694 0.319996C27.7627 0.106623 27.4427 0 27.1227 0H1.52279C1.2028 0 0.8828 0.106623 0.669428 0.319996C0.562805 0.533368 0.456055 0.853364 0.456055 1.17336L2.59728 19.1597C2.59258 19.2085 2.5894 19.2576 2.5894 19.3067L4.50937 35.3068C4.51509 35.3351 4.52208 35.3629 4.52958 35.3906L5.78948 45.9734C5.89611 46.5067 6.32285 46.9334 6.85609 46.9334L7.06019 46.9348L10.0562 57.92C10.2695 58.3466 10.5895 58.6666 11.1228 58.6666H13.6298C14.6098 60.2949 17.9103 63.9999 28.0828 63.9999C28.1894 63.9999 28.4028 63.9999 28.6162 63.9999C29.4695 63.9999 31.0695 63.8933 32.2429 62.9333C33.0962 62.1867 33.5229 61.1199 33.5229 59.9466C33.6294 58.8799 33.4161 56.8532 30.9628 56ZM20.8416 44.8051C20.8021 44.8017 20.7624 44.7999 20.7228 44.7999H7.9227C7.9194 44.7999 7.91609 44.8006 7.91279 44.8006L7.81608 44.7999L6.79204 36.2665H15.3893C16.0293 36.2665 16.456 35.7331 16.456 35.1999V19.2C16.456 18.56 16.0293 18.1334 15.3893 18.1334H4.616L3.59171 9.59732C3.61306 9.59834 3.63415 9.59999 3.65601 9.59999H25.0556L20.8416 44.8051ZM4.87207 20.2666H14.3227V34.1333H6.5361L4.87207 20.2666ZM19.656 7.46665V2.13335H21.7894V7.46665H19.656ZM17.5227 7.46665H15.3893V2.13335H17.5227V7.46665ZM13.2561 7.46665H11.1228V2.13335H13.2561V7.46665ZM8.98944 7.46665H6.85609V2.13335H8.98944V7.46665ZM25.309 7.48406C25.241 7.473 25.1702 7.46665 25.0961 7.46665H23.9227V2.13335H25.9495L25.309 7.48406ZM4.72275 2.13335V7.46665H3.65614C3.54392 7.46665 3.4387 7.4805 3.34084 7.50554L2.69615 2.13335H4.72275ZM19.4198 47.0231L18.6246 50.1348C18.6128 50.1346 18.6014 50.1333 18.5894 50.1333H10.1984L9.31439 46.9509L19.4198 47.0231ZM10.7908 52.2667H18.0798L16.9895 56.5334H14.3427C14.2952 56.5285 14.247 56.5285 14.1983 56.5334H11.976L10.7908 52.2667ZM31.3894 59.5199C31.3894 59.6266 31.3894 59.6266 31.3894 59.7333C31.3894 60.3733 31.176 60.9067 30.856 61.2267C30.1094 61.8667 28.7227 61.8667 28.2961 61.8667H28.1894C22.5361 61.8667 19.336 60.6933 17.5228 59.5199C22.3229 60.3733 25.8428 59.0933 27.5494 58.1333C28.4028 57.7067 29.3628 57.6 30.2162 57.92C31.496 58.3466 31.3894 59.3066 31.3894 59.5199Z" fill="black"/>
</svg>
