<svg xmlns="http://www.w3.org/2000/svg" width="40" height="40" viewBox="0 0 40 40" fill="none">
  <path d="M3.33337 31.6667C3.33337 34.5 5.50004 36.6667 8.33337 36.6667H31.6667C34.5 36.6667 36.6667 34.5 36.6667 31.6667V18.3334H3.33337V31.6667ZM31.6667 6.66671H28.3334V5.00004C28.3334 4.00004 27.6667 3.33337 26.6667 3.33337C25.6667 3.33337 25 4.00004 25 5.00004V6.66671H15V5.00004C15 4.00004 14.3334 3.33337 13.3334 3.33337C12.3334 3.33337 11.6667 4.00004 11.6667 5.00004V6.66671H8.33337C5.50004 6.66671 3.33337 8.83337 3.33337 11.6667V15H36.6667V11.6667C36.6667 8.83337 34.5 6.66671 31.6667 6.66671Z" fill="#8D4520"/>
</svg>