<svg width="152" height="67" viewBox="0 0 152 67" fill="none" xmlns="http://www.w3.org/2000/svg">
<path d="M13.6094 18.3006V43.4256H47.6328H50.25H62.2891V42.9022H64.3828V31.3866H62.2891V19.3475H50.25V15.762" fill="#F6E89A"/>
<path d="M50.7734 19.3474V43.7919H65.4297C65.4297 43.6218 65.4297 43.6349 65.4297 43.6349V34.5271L62.2891 24.0583H50.7734" fill="#F6E89A"/>
<path d="M65.4297 44.9045H50.7734C50.1584 44.9045 49.6611 44.4072 49.6611 43.7922V19.3477C49.6611 18.7326 50.1584 18.2354 50.7734 18.2354C51.3885 18.2354 51.8857 18.7326 51.8857 19.3477V22.9463H62.2891C62.7863 22.9463 63.2182 23.2734 63.349 23.7445L66.4896 34.2133C66.5158 34.318 66.542 34.4227 66.542 34.5273V43.6352C66.542 43.6875 66.542 43.7529 66.542 43.8184C66.5289 44.4203 66.0316 44.9045 65.4297 44.9045ZM64.6314 44.4203C64.7361 44.5381 64.8801 44.6297 65.0371 44.682C64.8801 44.6166 64.7492 44.525 64.6314 44.4203ZM64.3174 43.7529C64.3305 43.8707 64.3566 43.9754 64.409 44.0932C64.3697 43.9885 64.3305 43.8707 64.3174 43.7529ZM51.8857 42.6799H64.3174V34.6975L61.4647 25.184H51.8857V42.6799Z" fill="#8D4520"/>
<path opacity="0.5" d="M37.5174 58.0951C51.2996 58.0951 62.4723 55.3239 62.4723 51.9055C62.4723 48.487 51.2996 45.7158 37.5174 45.7158C23.7352 45.7158 12.5625 48.487 12.5625 51.9055C12.5625 55.3239 23.7352 58.0951 37.5174 58.0951Z" fill="#B8CBCD"/>
<path d="M18.3203 45.5195H15.7031C13.6879 45.5195 12.0391 43.8707 12.0391 41.8555V18.3008C12.0391 17.4371 12.7457 16.7305 13.6094 16.7305C14.473 16.7305 15.1797 17.4371 15.1797 18.3008V41.8555C15.1797 42.1434 15.4152 42.3789 15.7031 42.3789H18.3203C19.184 42.3789 19.8906 43.0855 19.8906 43.9492C19.8906 44.8129 19.184 45.5195 18.3203 45.5195Z" fill="#8D4520"/>
<path d="M65.4297 45.5195H55.89V42.3789H63.8594V33.7291L59.5803 20.3945H51.0352V17.2539H60.7188C61.3992 17.2539 62.0012 17.6988 62.2105 18.34L66.9215 32.9963C66.9738 33.1533 67 33.3104 67 33.4805V43.9492C67 44.8129 66.2934 45.5195 65.4297 45.5195Z" fill="#8D4520"/>
<path d="M45.0156 42.3789H29.3125V45.5195H45.0156V42.3789Z" fill="#8D4520"/>
<path d="M9.42188 31.3867H1.57031C0.706641 31.3867 0 30.6801 0 29.8164C0 28.9527 0.706641 28.2461 1.57031 28.2461H9.42188C10.2855 28.2461 10.9922 28.9527 10.9922 29.8164C10.9922 30.6801 10.2855 31.3867 9.42188 31.3867Z" fill="#8D4520"/>
<path d="M9.42188 24.582H4.23985C3.37617 24.582 2.66953 23.8754 2.66953 23.0117C2.66953 22.148 3.37617 21.4414 4.23985 21.4414H9.42188C10.2855 21.4414 10.9922 22.148 10.9922 23.0117C10.9922 23.8754 10.2855 24.582 9.42188 24.582Z" fill="#8D4520"/>
<path d="M9.42188 38.1914H4.23985C3.37617 38.1914 2.66953 37.4848 2.66953 36.6211C2.66953 35.7574 3.37617 35.0508 4.23985 35.0508H9.42188C10.2855 35.0508 10.9922 35.7574 10.9922 36.6211C10.9922 37.4848 10.2855 38.1914 9.42188 38.1914Z" fill="#8D4520"/>
<path d="M28.1217 29.0705C25.8578 29.0705 24.0127 27.2254 24.0127 24.9615C24.0127 22.6977 25.8578 20.8525 28.1217 20.8525C30.3855 20.8525 32.2307 22.6977 32.2307 24.9615C32.2307 27.2254 30.3855 29.0705 28.1217 29.0705ZM28.1217 23.0771C27.0879 23.0771 26.2373 23.9277 26.2373 24.9615C26.2373 25.9953 27.0879 26.8459 28.1217 26.8459C29.1555 26.8459 30.0061 25.9953 30.0061 24.9615C30.0061 23.9277 29.1555 23.0771 28.1217 23.0771Z" fill="#8D4520"/>
<path d="M36.2611 37.2099C33.9973 37.2099 32.1521 35.3648 32.1521 33.1009C32.1521 30.8371 33.9973 28.9919 36.2611 28.9919C38.525 28.9919 40.3701 30.8371 40.3701 33.1009C40.3701 35.3648 38.525 37.2099 36.2611 37.2099ZM36.2611 31.2166C35.2273 31.2166 34.3768 32.0671 34.3768 33.1009C34.3768 34.1347 35.2273 34.9853 36.2611 34.9853C37.2949 34.9853 38.1455 34.1347 38.1455 33.1009C38.1455 32.0671 37.2949 31.2166 36.2611 31.2166Z" fill="#8D4520"/>
<path d="M25.9756 36.3594C25.6877 36.3594 25.3998 36.2547 25.1904 36.0322C24.7586 35.6004 24.7586 34.8938 25.1904 34.4619L37.609 22.0434C38.0408 21.6115 38.7475 21.6115 39.1793 22.0434C39.6111 22.4752 39.6111 23.1818 39.1793 23.6137L26.7607 36.0322C26.5514 36.2416 26.2635 36.3594 25.9756 36.3594Z" fill="#8D4520"/>
<path d="M24.7063 49.8117C27.9151 49.8117 30.5164 47.2104 30.5164 44.0016C30.5164 40.7927 27.9151 38.1914 24.7063 38.1914C21.4974 38.1914 18.8961 40.7927 18.8961 44.0016C18.8961 47.2104 21.4974 49.8117 24.7063 49.8117Z" fill="white"/>
<path d="M24.7063 50.937C20.8852 50.937 17.7838 47.8225 17.7838 44.0145C17.7838 40.2065 20.8982 37.092 24.7063 37.092C28.5273 37.092 31.6287 40.2065 31.6287 44.0145C31.6287 47.8225 28.5273 50.937 24.7063 50.937ZM24.7063 39.3036C22.1152 39.3036 20.0084 41.4104 20.0084 44.0014C20.0084 46.5924 22.1152 48.6993 24.7063 48.6993C27.2973 48.6993 29.4041 46.5924 29.4041 44.0014C29.4041 41.4104 27.3104 39.3036 24.7063 39.3036Z" fill="#8D4520"/>
<path d="M30.8828 43.9492C30.8828 47.4562 28.2133 50.0342 24.7193 50.0342C21.2123 50.0342 18.3203 47.4562 18.3203 43.9492" fill="white"/>
<path d="M24.7063 51.5913C20.2439 51.5913 16.7369 48.2282 16.7369 43.936V42.3657H19.8775V43.936C19.8775 46.4616 21.9975 48.4507 24.7063 48.4507C27.3758 48.4507 29.2994 46.5532 29.2994 43.936V42.3657H32.44V43.936C32.4531 48.3067 29.1293 51.5913 24.7063 51.5913Z" fill="#8D4520"/>
<path d="M24.7063 46.1477C25.8915 46.1477 26.8523 45.1868 26.8523 44.0016C26.8523 42.8163 25.8915 41.8555 24.7063 41.8555C23.521 41.8555 22.5602 42.8163 22.5602 44.0016C22.5602 45.1868 23.521 46.1477 24.7063 46.1477Z" fill="#8D4520"/>
<path d="M50.3547 49.8117C53.5635 49.8117 56.1648 47.2104 56.1648 44.0016C56.1648 40.7927 53.5635 38.1914 50.3547 38.1914C47.1458 38.1914 44.5445 40.7927 44.5445 44.0016C44.5445 47.2104 47.1458 49.8117 50.3547 49.8117Z" fill="white"/>
<path d="M50.3547 50.937C46.5336 50.937 43.4322 47.8225 43.4322 44.0145C43.4322 40.2065 46.5467 37.092 50.3547 37.092C54.1627 37.092 57.2772 40.2065 57.2772 44.0145C57.2772 47.8225 54.1758 50.937 50.3547 50.937ZM50.3547 39.3036C47.7637 39.3036 45.6568 41.4104 45.6568 44.0014C45.6568 46.5924 47.7637 48.6993 50.3547 48.6993C52.9457 48.6993 55.0525 46.5924 55.0525 44.0014C55.0525 41.4104 52.9588 39.3036 50.3547 39.3036Z" fill="#8D4520"/>
<path d="M56.5312 43.9492C56.5312 47.4562 53.8617 50.0342 50.3678 50.0342C46.8607 50.0342 43.9688 47.4562 43.9688 43.9492" fill="white"/>
<path d="M50.3547 51.5913C45.8924 51.5913 42.3854 48.2282 42.3854 43.936V42.3657H45.526V43.936C45.526 46.4616 47.6459 48.4507 50.3547 48.4507C53.0242 48.4507 54.9479 46.5532 54.9479 43.936V42.3657H58.0885V43.936C58.1016 48.3067 54.7777 51.5913 50.3547 51.5913Z" fill="#8D4520"/>
<path d="M50.3547 46.1477C51.5399 46.1477 52.5008 45.1868 52.5008 44.0016C52.5008 42.8163 51.5399 41.8555 50.3547 41.8555C49.1694 41.8555 48.2086 42.8163 48.2086 44.0016C48.2086 45.1868 49.1694 46.1477 50.3547 46.1477Z" fill="#8D4520"/>
<path d="M50.7734 18.3007L48.2609 11.4568C48.0646 10.9203 47.4234 10.4753 46.8477 10.4753H17.8492C17.2734 10.4753 16.6191 10.9072 16.4098 11.4437L13.6094 18.3007" fill="#F6E89A"/>
<path d="M50.7734 19.871C50.1322 19.871 49.5303 19.4785 49.2947 18.8373L46.7953 12.0457L46.7822 12.0326H17.9016C17.8885 12.0457 17.8623 12.0587 17.8492 12.0718L15.0619 18.8896C14.7348 19.6878 13.8188 20.0804 13.0205 19.7533C12.2223 19.4261 11.8297 18.5101 12.1568 17.7119L14.9572 10.8548C15.4152 9.72944 16.6322 8.90503 17.8492 8.90503H46.8477C48.0908 8.90503 49.2947 9.75561 49.7266 10.9203L52.2391 17.7642C52.54 18.5755 52.1213 19.4785 51.31 19.7794C51.1399 19.8449 50.9566 19.871 50.7734 19.871Z" fill="#8D4520"/>
<path d="M49.7266 19.9365H13.6094C12.9943 19.9365 12.4971 19.4393 12.4971 18.8242C12.4971 18.2092 12.9943 17.7119 13.6094 17.7119H49.7266C50.3416 17.7119 50.8389 18.2092 50.8389 18.8242C50.8389 19.4393 50.3416 19.9365 49.7266 19.9365Z" fill="#8D4520"/>
<path d="M92.0829 42.105C91.0929 42.105 90.1829 41.875 89.3529 41.415C88.5329 40.955 87.8779 40.315 87.3879 39.495C86.9079 38.665 86.6679 37.735 86.6679 36.705C86.6679 35.675 86.9079 34.75 87.3879 33.93C87.8779 33.11 88.5329 32.47 89.3529 32.01C90.1829 31.55 91.0929 31.32 92.0829 31.32C93.0729 31.32 93.9779 31.55 94.7979 32.01C95.6279 32.47 96.2779 33.11 96.7479 33.93C97.2279 34.75 97.4679 35.675 97.4679 36.705C97.4679 37.735 97.2279 38.665 96.7479 39.495C96.2679 40.315 95.6179 40.955 94.7979 41.415C93.9779 41.875 93.0729 42.105 92.0829 42.105ZM92.0829 39.765C92.9229 39.765 93.5929 39.485 94.0929 38.925C94.6029 38.365 94.8579 37.625 94.8579 36.705C94.8579 35.775 94.6029 35.035 94.0929 34.485C93.5929 33.925 92.9229 33.645 92.0829 33.645C91.2329 33.645 90.5529 33.92 90.0429 34.47C89.5429 35.02 89.2929 35.765 89.2929 36.705C89.2929 37.635 89.5429 38.38 90.0429 38.94C90.5529 39.49 91.2329 39.765 92.0829 39.765ZM101.46 34.815C101.71 34.425 102.055 34.11 102.495 33.87C102.935 33.63 103.45 33.51 104.04 33.51C104.73 33.51 105.355 33.685 105.915 34.035C106.475 34.385 106.915 34.885 107.235 35.535C107.565 36.185 107.73 36.94 107.73 37.8C107.73 38.66 107.565 39.42 107.235 40.08C106.915 40.73 106.475 41.235 105.915 41.595C105.355 41.945 104.73 42.12 104.04 42.12C103.46 42.12 102.945 42 102.495 41.76C102.055 41.52 101.71 41.21 101.46 40.83V45.99H98.8948V33.63H101.46V34.815ZM105.12 37.8C105.12 37.16 104.94 36.66 104.58 36.3C104.23 35.93 103.795 35.745 103.275 35.745C102.765 35.745 102.33 35.93 101.97 36.3C101.62 36.67 101.445 37.175 101.445 37.815C101.445 38.455 101.62 38.96 101.97 39.33C102.33 39.7 102.765 39.885 103.275 39.885C103.785 39.885 104.22 39.7 104.58 39.33C104.94 38.95 105.12 38.44 105.12 37.8ZM113.741 39.825V42H112.436C111.506 42 110.781 41.775 110.261 41.325C109.741 40.865 109.481 40.12 109.481 39.09V35.76H108.461V33.63H109.481V31.59H112.046V33.63H113.726V35.76H112.046V39.12C112.046 39.37 112.106 39.55 112.226 39.66C112.346 39.77 112.546 39.825 112.826 39.825H113.741ZM116.459 32.76C116.009 32.76 115.639 32.63 115.349 32.37C115.069 32.1 114.929 31.77 114.929 31.38C114.929 30.98 115.069 30.65 115.349 30.39C115.639 30.12 116.009 29.985 116.459 29.985C116.899 29.985 117.259 30.12 117.539 30.39C117.829 30.65 117.974 30.98 117.974 31.38C117.974 31.77 117.829 32.1 117.539 32.37C117.259 32.63 116.899 32.76 116.459 32.76ZM117.734 33.63V42H115.169V33.63H117.734ZM124.738 33.54C125.698 33.54 126.468 33.86 127.048 34.5C127.628 35.13 127.918 36 127.918 37.11V42H125.368V37.455C125.368 36.895 125.223 36.46 124.933 36.15C124.643 35.84 124.253 35.685 123.763 35.685C123.273 35.685 122.883 35.84 122.593 36.15C122.303 36.46 122.158 36.895 122.158 37.455V42H119.593V30.9H122.158V34.755C122.418 34.385 122.773 34.09 123.223 33.87C123.673 33.65 124.178 33.54 124.738 33.54ZM130.991 32.76C130.541 32.76 130.171 32.63 129.881 32.37C129.601 32.1 129.461 31.77 129.461 31.38C129.461 30.98 129.601 30.65 129.881 30.39C130.171 30.12 130.541 29.985 130.991 29.985C131.431 29.985 131.791 30.12 132.071 30.39C132.361 30.65 132.506 30.98 132.506 31.38C132.506 31.77 132.361 32.1 132.071 32.37C131.791 32.63 131.431 32.76 130.991 32.76ZM132.266 33.63V42H129.701V33.63H132.266ZM137.889 39.6L139.704 33.63H142.434L139.464 42H136.299L133.329 33.63H136.074L137.889 39.6ZM151.404 37.68C151.404 37.92 151.389 38.17 151.359 38.43H145.554C145.594 38.95 145.759 39.35 146.049 39.63C146.349 39.9 146.714 40.035 147.144 40.035C147.784 40.035 148.229 39.765 148.479 39.225H151.209C151.069 39.775 150.814 40.27 150.444 40.71C150.084 41.15 149.629 41.495 149.079 41.745C148.529 41.995 147.914 42.12 147.234 42.12C146.414 42.12 145.684 41.945 145.044 41.595C144.404 41.245 143.904 40.745 143.544 40.095C143.184 39.445 143.004 38.685 143.004 37.815C143.004 36.945 143.179 36.185 143.529 35.535C143.889 34.885 144.389 34.385 145.029 34.035C145.669 33.685 146.404 33.51 147.234 33.51C148.044 33.51 148.764 33.68 149.394 34.02C150.024 34.36 150.514 34.845 150.864 35.475C151.224 36.105 151.404 36.84 151.404 37.68ZM148.779 37.005C148.779 36.565 148.629 36.215 148.329 35.955C148.029 35.695 147.654 35.565 147.204 35.565C146.774 35.565 146.409 35.69 146.109 35.94C145.819 36.19 145.639 36.545 145.569 37.005H148.779Z" fill="url(#paint0_diamond_254_114)"/>
<defs>
<radialGradient id="paint0_diamond_254_114" cx="0" cy="0" r="1" gradientUnits="userSpaceOnUse" gradientTransform="translate(78.3289 36.5) scale(83.8026 249.005)">
<stop offset="0.0729167" stop-color="#8D4520"/>
<stop offset="0.473958" stop-color="#F6E89A"/>
<stop offset="0.994792" stop-color="#8D4520"/>
</radialGradient>
</defs>
</svg>
