<svg width="146" height="55" viewBox="0 0 146 55" fill="none" xmlns="http://www.w3.org/2000/svg">
<path d="M21.7708 8.40283C21.2644 8.40288 20.7786 8.6041 20.4205 8.96223C20.0624 9.32036 19.8612 9.80608 19.8611 10.3126V19.8612C19.8611 20.3677 20.0623 20.8534 20.4205 21.2115C20.7786 21.5697 21.2643 21.7709 21.7708 21.7709C22.2773 21.7709 22.7631 21.5697 23.1212 21.2115C23.4794 20.8534 23.6806 20.3677 23.6806 19.8612V12.2223H38.9583V42.7778H23.6806V35.1389C23.6806 34.6325 23.4794 34.1467 23.1212 33.7886C22.7631 33.4304 22.2773 33.2292 21.7708 33.2292C21.2643 33.2292 20.7786 33.4304 20.4205 33.7886C20.0623 34.1467 19.8611 34.6325 19.8611 35.1389V44.6876C19.8612 45.194 20.0624 45.6797 20.4205 46.0379C20.7786 46.396 21.2644 46.5972 21.7708 46.5973H40.8681C41.3745 46.5972 41.8602 46.396 42.2184 46.0379C42.5765 45.6797 42.7777 45.194 42.7778 44.6876V10.3126C42.7777 9.80608 42.5765 9.32036 42.2184 8.96223C41.8602 8.6041 41.3745 8.40288 40.8681 8.40283H21.7708ZM18.0073 21.7709C17.7472 21.7634 17.4883 21.8092 17.2465 21.9054C17.0046 22.0016 16.785 22.1462 16.6012 22.3304L12.819 26.1125L12.7817 26.1498C12.7754 26.156 12.7692 26.1622 12.7631 26.1685C12.732 26.201 12.7022 26.2346 12.6735 26.2692C12.6395 26.3101 12.6071 26.3524 12.5766 26.396C12.5503 26.4336 12.5254 26.4722 12.502 26.5116C12.4905 26.5288 12.4793 26.5463 12.4684 26.5638C12.4486 26.5993 12.4299 26.6354 12.4124 26.672C12.3907 26.7172 12.3708 26.7632 12.3528 26.81C12.3502 26.8175 12.3477 26.8249 12.3453 26.8324C12.329 26.8729 12.3141 26.914 12.3005 26.9555C12.2952 26.9778 12.2902 27.0002 12.2856 27.0226C12.2789 27.0486 12.2726 27.0747 12.267 27.101C12.2616 27.1245 12.2566 27.1481 12.2521 27.1718C12.2465 27.1991 12.2415 27.2264 12.2371 27.2539C12.2317 27.2997 12.228 27.3458 12.2259 27.3919C12.2241 27.4205 12.2228 27.4491 12.2222 27.4777C12.2222 27.4851 12.2222 27.4926 12.2222 27.5001C12.2232 27.5187 12.2244 27.5374 12.2259 27.556C12.2268 27.5796 12.228 27.6033 12.2297 27.6269C12.2313 27.6593 12.2338 27.6916 12.2371 27.7239C12.2394 27.7425 12.2418 27.7612 12.2446 27.7798C12.2514 27.8286 12.2601 27.8771 12.2707 27.9253C12.2795 27.9629 12.2895 28.0002 12.3005 28.0372C12.3086 28.0647 12.3173 28.0921 12.3267 28.1192C12.3291 28.1279 12.3316 28.1366 12.3341 28.1453C12.3511 28.1908 12.3697 28.2356 12.3901 28.2796C12.4096 28.3227 12.4308 28.365 12.4535 28.4064C12.4619 28.424 12.4706 28.4414 12.4796 28.4586C12.4975 28.4877 12.5161 28.5163 12.5355 28.5444C12.5441 28.5582 12.5528 28.5719 12.5616 28.5855C12.5761 28.6069 12.5911 28.628 12.6064 28.6489C12.6174 28.6627 12.6286 28.6764 12.64 28.6899C12.6685 28.7258 12.6984 28.7606 12.7295 28.7943C12.7417 28.8082 12.7542 28.8219 12.7668 28.8354C12.7717 28.8404 12.7767 28.8453 12.7817 28.8503C12.8071 28.8759 12.8332 28.9008 12.86 28.9249L16.6012 32.6697C16.9593 33.0278 17.445 33.2289 17.9514 33.2289C18.4578 33.2289 18.9435 33.0278 19.3016 32.6697C19.6597 32.3116 19.8608 31.8259 19.8608 31.3195C19.8608 30.8131 19.6597 30.3274 19.3016 29.9693L18.7421 29.4098H31.3194C31.8259 29.4098 32.3117 29.2086 32.6698 28.8504C33.028 28.4923 33.2292 28.0065 33.2292 27.5001C33.2292 26.9936 33.028 26.5078 32.6698 26.1497C32.3117 25.7915 31.8259 25.5903 31.3194 25.5903H18.7421L19.3016 25.0308C19.6597 24.6727 19.8608 24.187 19.8608 23.6806C19.8608 23.1742 19.6597 22.6885 19.3016 22.3304C18.9574 21.9856 18.4943 21.7855 18.0073 21.7709Z" fill="#8D4520"/>
<path d="M61.1136 36V18.5455H63.2273V34.125H71.3409V36H61.1136ZM79.6591 36.2727C78.4773 36.2727 77.4403 35.9915 76.5483 35.429C75.6619 34.8665 74.9688 34.0795 74.4688 33.0682C73.9744 32.0568 73.7273 30.875 73.7273 29.5227C73.7273 28.1591 73.9744 26.9687 74.4688 25.9517C74.9688 24.9347 75.6619 24.1449 76.5483 23.5824C77.4403 23.0199 78.4773 22.7386 79.6591 22.7386C80.8409 22.7386 81.875 23.0199 82.7614 23.5824C83.6534 24.1449 84.3466 24.9347 84.8409 25.9517C85.3409 26.9687 85.5909 28.1591 85.5909 29.5227C85.5909 30.875 85.3409 32.0568 84.8409 33.0682C84.3466 34.0795 83.6534 34.8665 82.7614 35.429C81.875 35.9915 80.8409 36.2727 79.6591 36.2727ZM79.6591 34.4659C80.5568 34.4659 81.2955 34.2358 81.875 33.7756C82.4545 33.3153 82.8835 32.7102 83.1619 31.9602C83.4403 31.2102 83.5795 30.3977 83.5795 29.5227C83.5795 28.6477 83.4403 27.8324 83.1619 27.0767C82.8835 26.321 82.4545 25.7102 81.875 25.2443C81.2955 24.7784 80.5568 24.5455 79.6591 24.5455C78.7614 24.5455 78.0227 24.7784 77.4432 25.2443C76.8636 25.7102 76.4347 26.321 76.1562 27.0767C75.8778 27.8324 75.7386 28.6477 75.7386 29.5227C75.7386 30.3977 75.8778 31.2102 76.1562 31.9602C76.4347 32.7102 76.8636 33.3153 77.4432 33.7756C78.0227 34.2358 78.7614 34.4659 79.6591 34.4659ZM93.9453 41.1818C92.9737 41.1818 92.1385 41.0568 91.4396 40.8068C90.7408 40.5625 90.1584 40.2386 89.6925 39.8352C89.2322 39.4375 88.8658 39.0114 88.593 38.5568L90.1953 37.4318C90.3771 37.6705 90.6072 37.9432 90.8857 38.25C91.1641 38.5625 91.5447 38.8324 92.0277 39.0597C92.5163 39.2926 93.1555 39.4091 93.9453 39.4091C95.0021 39.4091 95.8743 39.1534 96.5618 38.642C97.2493 38.1307 97.593 37.3295 97.593 36.2386V33.5795H97.4226C97.2749 33.8182 97.0646 34.1136 96.7919 34.4659C96.5249 34.8125 96.1385 35.1222 95.6328 35.3949C95.1328 35.6619 94.4567 35.7955 93.6044 35.7955C92.5476 35.7955 91.5987 35.5455 90.7578 35.0455C89.9226 34.5455 89.2607 33.8182 88.772 32.8636C88.2891 31.9091 88.0476 30.75 88.0476 29.3864C88.0476 28.0455 88.2834 26.8778 88.755 25.8835C89.2266 24.8835 89.8828 24.1108 90.7237 23.5653C91.5646 23.0142 92.5362 22.7386 93.6385 22.7386C94.4908 22.7386 95.1669 22.8807 95.6669 23.1648C96.1726 23.4432 96.5589 23.7614 96.826 24.1193C97.0987 24.4716 97.3089 24.7614 97.4567 24.9886H97.6612V22.9091H99.6044V36.375C99.6044 37.5 99.3487 38.4148 98.8374 39.1193C98.3317 39.8295 97.6499 40.3494 96.7919 40.679C95.9396 41.0142 94.9908 41.1818 93.9453 41.1818ZM93.8771 33.9886C94.6839 33.9886 95.3658 33.804 95.9226 33.4347C96.4794 33.0653 96.9027 32.5341 97.1925 31.8409C97.4822 31.1477 97.6271 30.3182 97.6271 29.3523C97.6271 28.4091 97.4851 27.5767 97.201 26.8551C96.9169 26.1335 96.4964 25.5682 95.9396 25.1591C95.3828 24.75 94.6953 24.5455 93.8771 24.5455C93.0249 24.5455 92.3146 24.7614 91.7464 25.1932C91.1839 25.625 90.7607 26.2045 90.4766 26.9318C90.1982 27.6591 90.0589 28.4659 90.0589 29.3523C90.0589 30.2614 90.201 31.0653 90.4851 31.7642C90.7749 32.4574 91.201 33.0028 91.7635 33.4006C92.3317 33.7926 93.0362 33.9886 93.8771 33.9886ZM115.354 36.2727C114.173 36.2727 113.136 35.9915 112.244 35.429C111.357 34.8665 110.664 34.0795 110.164 33.0682C109.67 32.0568 109.423 30.875 109.423 29.5227C109.423 28.1591 109.67 26.9687 110.164 25.9517C110.664 24.9347 111.357 24.1449 112.244 23.5824C113.136 23.0199 114.173 22.7386 115.354 22.7386C116.536 22.7386 117.57 23.0199 118.457 23.5824C119.349 24.1449 120.042 24.9347 120.536 25.9517C121.036 26.9687 121.286 28.1591 121.286 29.5227C121.286 30.875 121.036 32.0568 120.536 33.0682C120.042 34.0795 119.349 34.8665 118.457 35.429C117.57 35.9915 116.536 36.2727 115.354 36.2727ZM115.354 34.4659C116.252 34.4659 116.991 34.2358 117.57 33.7756C118.15 33.3153 118.579 32.7102 118.857 31.9602C119.136 31.2102 119.275 30.3977 119.275 29.5227C119.275 28.6477 119.136 27.8324 118.857 27.0767C118.579 26.321 118.15 25.7102 117.57 25.2443C116.991 24.7784 116.252 24.5455 115.354 24.5455C114.457 24.5455 113.718 24.7784 113.138 25.2443C112.559 25.7102 112.13 26.321 111.852 27.0767C111.573 27.8324 111.434 28.6477 111.434 29.5227C111.434 30.3977 111.573 31.2102 111.852 31.9602C112.13 32.7102 112.559 33.3153 113.138 33.7756C113.718 34.2358 114.457 34.4659 115.354 34.4659ZM132.607 30.6477V22.9091H134.618V36H132.607V33.7841H132.47C132.163 34.4489 131.686 35.0142 131.038 35.4801C130.391 35.9403 129.572 36.1705 128.584 36.1705C127.766 36.1705 127.038 35.9915 126.402 35.6335C125.766 35.2699 125.266 34.7244 124.902 33.9972C124.538 33.2642 124.357 32.3409 124.357 31.2273V22.9091H126.368V31.0909C126.368 32.0455 126.635 32.8068 127.169 33.375C127.709 33.9432 128.396 34.2273 129.232 34.2273C129.732 34.2273 130.24 34.0994 130.757 33.8438C131.28 33.5881 131.717 33.196 132.07 32.6676C132.428 32.1392 132.607 31.4659 132.607 30.6477ZM143.995 22.9091V24.6136H137.211V22.9091H143.995ZM139.188 19.7727H141.2V32.25C141.2 32.8182 141.282 33.2443 141.447 33.5284C141.617 33.8068 141.833 33.9943 142.094 34.0909C142.362 34.1818 142.643 34.2273 142.938 34.2273C143.16 34.2273 143.342 34.2159 143.484 34.1932C143.626 34.1648 143.739 34.142 143.825 34.125L144.234 35.9318C144.097 35.983 143.907 36.0341 143.663 36.0852C143.418 36.142 143.109 36.1705 142.734 36.1705C142.165 36.1705 141.609 36.0483 141.063 35.804C140.523 35.5597 140.075 35.1875 139.717 34.6875C139.364 34.1875 139.188 33.5568 139.188 32.7955V19.7727Z" fill="#8D4520"/>
</svg>
