<svg xmlns="http://www.w3.org/2000/svg" width="47" height="48" viewBox="0 0 47 48" fill="none">
  <path d="M23.3333 12.8333V25.8333" stroke="#FF0707" stroke-width="4" stroke-linecap="round"/>
  <path d="M23.3333 34.5001C24.6424 34.5001 25.7037 33.53 25.7037 32.3334C25.7037 31.1368 24.6424 30.1667 23.3333 30.1667C22.0242 30.1667 20.963 31.1368 20.963 32.3334C20.963 33.53 22.0242 34.5001 23.3333 34.5001Z" fill="#FF0707"/>
  <path d="M16.7343 4.16667C19.5308 2.72221 21.3666 2 23.3333 2C25.9735 2 28.378 3.30152 33.1867 5.90457L34.8133 6.785C39.622 9.38805 42.0265 10.6896 43.3466 12.8333C44.6667 14.9771 44.6667 17.5802 44.6667 22.7864V24.547C44.6667 29.7533 44.6667 32.3563 43.3466 34.5C42.0265 36.6437 39.622 37.9452 34.8133 40.5483L33.1867 41.4288C28.378 44.0318 25.9735 45.3333 23.3333 45.3333C20.6932 45.3333 18.2887 44.0318 13.4799 41.4288L11.8534 40.5483C7.04462 37.9452 4.64021 36.6437 3.32011 34.5C2 32.3563 2 29.7533 2 24.547V22.7864C2 17.5802 2 14.9771 3.32011 12.8333C4.36087 11.1432 6.07557 9.9766 9.11111 8.28299" stroke="#FF0707" stroke-width="4" stroke-linecap="round"/>
</svg>